<?xml version="1.0" standalone="no"?>
<!DOCTYPE svg PUBLIC "-//W3C//DTD SVG 1.1//EN" "http://www.w3.org/Graphics/SVG/1.1/DTD/svg11.dtd" >
<svg xmlns="http://www.w3.org/2000/svg" xmlns:xlink="http://www.w3.org/1999/xlink" version="1.1">
<metadata>
Created by FontForge 20190801 at Mon Sep 26 08:04:23 2022
 By www-data
Copyright (c) 2019 by Martin Va'cha. All rights reserved.
</metadata>
<defs>
<font id="TeodorTRIALRegularBF672198fb97abe" horiz-adv-x="796" >
  <font-face 
    font-family="TeodorTRIALRegularBF672198fb97abe"
    font-weight="400"
    font-stretch="normal"
    units-per-em="1000"
    panose-1="0 0 0 0 0 0 0 0 0 0"
    ascent="800"
    descent="-200"
    x-height="450"
    cap-height="668"
    bbox="-124 -277 1078 1047"
    underline-thickness="50"
    underline-position="-125"
    unicode-range="U+000D-277E"
  />
<missing-glyph horiz-adv-x="1101" 
d="M50 309q0 201 141 347t341 154v-1000q-99 3 -188 44t-153.5 107.5t-102.5 157.5t-38 190zM568 -187v993q62 -21 105.5 -165t43.5 -332t-43.5 -331t-105.5 -165zM644 -171q51 66 80.5 194.5t29.5 285.5t-29.5 286t-80.5 196q109 -46 178.5 -180.5t69.5 -301.5
q0 -168 -69.5 -301.5t-178.5 -178.5zM746 -150q84 73 133.5 195t49.5 264q0 141 -49.5 264t-133.5 196q137 -58 220.5 -183.5t83.5 -276.5t-83.5 -276.5t-220.5 -182.5z" />
    <glyph glyph-name="f_f" unicode="ff" horiz-adv-x="605" 
d="M98 476q0 97 56.5 152t144.5 55q86 0 138 -49q46 49 130 49q57 0 88 -19l-13 -104h-12q-12 98 -80 98q-36 0 -55.5 -34.5t-19.5 -88.5v-85h126v-25h-126v-358q0 -25 20.5 -37.5t66.5 -15.5v-14h-227v14q32 5 46 17t14 36v358h-217v-177h1v-181q0 -25 20 -37.5t66 -15.5
v-14h-227v14q33 4 46.5 16.5t13.5 36.5v358h-76v25h76v26zM178 450h217v60q0 36 10 69q-14 34 -43.5 57t-63.5 23q-56 0 -88 -45t-32 -113v-51z" />
    <glyph glyph-name="f_f_i" unicode="ffi" horiz-adv-x="861" 
d="M692 376q0 49 -47 49h-170v-177h1v-181q0 -25 20 -37.5t66 -15.5v-14h-227v14q33 4 46.5 16.5t13.5 36.5v358h-217v-177h1v-181q0 -25 20 -37.5t66 -15.5v-14h-227v14q33 4 46.5 16.5t13.5 36.5v358h-76v25h76v26q0 97 56.5 152t144.5 55q46 0 86.5 -16.5t63.5 -45.5
q59 62 155 62q98 0 135 -32l-14 -102h-12q-5 48 -40 78.5t-83 30.5q-53 0 -84 -45t-31 -113v-50h209l89 15v-398q0 -24 13.5 -36.5t46.5 -16.5v-14h-201v14q32 5 46 17t14 36v309zM178 450h217v25q0 45 16 87q-10 40 -42 68.5t-71 28.5q-56 0 -88 -45t-32 -113v-51z" />
    <glyph glyph-name="f_f_l" unicode="ffl" horiz-adv-x="858" 
d="M98 476q0 97 56.5 152t144.5 55q45 0 85 -16t63 -44q55 60 147 60q59 0 104 -24l75 32v-624q0 -24 13.5 -36.5t46.5 -16.5v-14h-201v14q32 5 46 17t14 36v532q-36 60 -97 60q-56 0 -88 -45t-32 -113v-51h110v-25h-110v-177h1v-181q0 -25 20 -37.5t66 -15.5v-14h-227v14
q33 4 46.5 16.5t13.5 36.5v358h-217v-177h1v-181q0 -25 20 -37.5t66 -15.5v-14h-227v14q33 4 46.5 16.5t13.5 36.5v358h-76v25h76v26zM178 450h217v26q0 49 15 88q-10 39 -42 67t-70 28q-56 0 -88 -45t-32 -113v-51z" />
    <glyph glyph-name="f_i" unicode="fi" horiz-adv-x="564" 
d="M395 376q0 49 -47 49h-170v-177h1v-181q0 -25 20 -37.5t66 -15.5v-14h-227v14q33 4 46.5 16.5t13.5 36.5v358h-76v25h76v25q0 96 60 152t149 56q98 0 135 -32l-14 -102h-12q-5 48 -40 78.5t-83 30.5q-53 0 -84 -45t-31 -113v-50h209l89 15v-398q0 -24 13.5 -36.5
t46.5 -16.5v-14h-201v14q32 5 46 17t14 36v309z" />
    <glyph glyph-name="f_l" unicode="fl" horiz-adv-x="561" 
d="M395 599q-36 60 -97 60q-56 0 -88 -45t-32 -113v-51h110v-25h-110v-177h1v-181q0 -25 20 -37.5t66 -15.5v-14h-227v14q33 4 46.5 16.5t13.5 36.5v358h-76v25h76v26q0 97 56.5 152t144.5 55q54 0 102 -24l75 32v-624q0 -24 13.5 -36.5t46.5 -16.5v-14h-201v14q32 5 46 17
t14 36v532z" />
    <glyph glyph-name=".notdef" horiz-adv-x="1101" 
d="M50 309q0 201 141 347t341 154v-1000q-99 3 -188 44t-153.5 107.5t-102.5 157.5t-38 190zM568 -187v993q62 -21 105.5 -165t43.5 -332t-43.5 -331t-105.5 -165zM644 -171q51 66 80.5 194.5t29.5 285.5t-29.5 286t-80.5 196q109 -46 178.5 -180.5t69.5 -301.5
q0 -168 -69.5 -301.5t-178.5 -178.5zM746 -150q84 73 133.5 195t49.5 264q0 141 -49.5 264t-133.5 196q137 -58 220.5 -183.5t83.5 -276.5t-83.5 -276.5t-220.5 -182.5z" />
    <glyph glyph-name=".null" horiz-adv-x="0" 
 />
    <glyph glyph-name="nonmarkingreturn" horiz-adv-x="333" 
 />
    <glyph glyph-name="CR" unicode="&#xd;" horiz-adv-x="600" 
 />
    <glyph glyph-name="space" unicode=" " horiz-adv-x="161" 
 />
    <glyph glyph-name="exclam" unicode="!" horiz-adv-x="251" 
d="M119 207q-1 12 -24.5 172t-23.5 289h109q0 -128 -23 -286t-24 -175h-14zM61 49q0 27 18.5 44.5t46.5 17.5t46.5 -17.5t18.5 -44.5q0 -28 -18.5 -46t-46.5 -18t-46.5 18t-18.5 46z" />
    <glyph glyph-name="quotedbl" unicode="&#x22;" horiz-adv-x="321" 
d="M83 478q-2 19 -19.5 105.5t-17.5 163.5h82q0 -77 -18 -163t-20 -106h-7zM194 747h82q0 -77 -18 -163t-20 -106h-7q-2 19 -19.5 105.5t-17.5 163.5z" />
    <glyph glyph-name="numbersign" unicode="#" horiz-adv-x="756" 
d="M351 728h30l-71 -251h209l71 251h29l-71 -251h167v-28h-174l-59 -207h163v-28h-170l-71 -251h-29l71 251h-209l-71 -251h-30l71 251h-167v28h174l59 207h-163v28h170zM244 242h209l59 207h-209z" />
    <glyph glyph-name="dollar" unicode="$" horiz-adv-x="623" 
d="M294 810h27v-128q94 -3 150 -53t57 -129h-94q4 16 4 36q0 49 -31.5 81t-85.5 36v-255q105 -40 137 -59q95 -57 95 -159q0 -88 -63.5 -140t-168.5 -54v-135h-27v136q-96 6 -154 59t-60 136h94q-4 -16 -4 -35q0 -53 33.5 -89t90.5 -43v287q-40 14 -60.5 22.5t-52.5 26.5
t-48 36.5t-29 48.5t-13 66q0 79 54.5 127.5t148.5 52.5v128zM169 539q0 -48 32 -77t93 -54v246q-57 -4 -91 -35.5t-34 -79.5zM321 14q68 1 107.5 36.5t39.5 91.5q0 58 -37.5 90.5t-109.5 59.5v-278z" />
    <glyph glyph-name="percent" unicode="%" horiz-adv-x="754" 
d="M201 0h-28l380 668h28zM40 496q0 85 41.5 136t108.5 51q68 0 109.5 -51t41.5 -136q0 -81 -42 -134t-108 -53t-108.5 52.5t-42.5 134.5zM118 496q0 -79 19.5 -123t53.5 -44t53 44t19 123q0 167 -72 167q-73 0 -73 -167zM412 173q0 85 41.5 136t108.5 51q68 0 109.5 -51
t41.5 -136q0 -81 -42 -134t-108 -53t-108.5 52.5t-42.5 134.5zM490 173q0 -79 19.5 -123t53.5 -44t53 44t19 123q0 167 -72 167q-73 0 -73 -167z" />
    <glyph glyph-name="ampersand" unicode="&#x26;" horiz-adv-x="754" 
d="M251 318l-29 31q-85 -57 -85 -157q0 -71 46 -120.5t125 -49.5q92 0 154 67zM50 174q0 137 156 192q-46 50 -67.5 86.5t-21.5 80.5q0 69 47.5 109.5t127.5 40.5q78 0 124 -39t46 -103q0 -54 -39 -96.5t-114 -64.5q7 -7 21 -23l188 -202q32 61 32 139q0 35 -8 75h99
q-7 -139 -99 -240l48 -51q18 -19 31.5 -30t38 -22t53.5 -12v-14h-168l-59 64q-86 -78 -220 -78q-102 0 -159 52t-57 136zM194 562q0 -36 19.5 -68t78.5 -96q99 46 99 141q0 53 -27.5 85t-73.5 32q-44 0 -70 -26t-26 -68z" />
    <glyph glyph-name="quotesingle" unicode="'" horiz-adv-x="174" 
d="M83 478q-2 19 -19.5 105.5t-17.5 163.5h82q0 -77 -18 -163t-20 -106h-7z" />
    <glyph glyph-name="parenleft" unicode="(" horiz-adv-x="311" 
d="M322 -159q-112 58 -182 176.5t-70 253.5q0 134 69.5 253t182.5 177l8 -14q-77 -64 -125.5 -179t-48.5 -237t48 -236.5t126 -179.5z" />
    <glyph glyph-name="parenright" unicode=")" horiz-adv-x="311" 
d="M-19 -145q78 65 126 179.5t48 236.5t-48.5 237t-125.5 179l8 14q113 -58 182.5 -177t69.5 -253q0 -135 -70 -253.5t-182 -176.5z" />
    <glyph glyph-name="asterisk" unicode="*" horiz-adv-x="390" 
d="M44 629q37 -14 82.5 -43t60.5 -36q-1 17 -13 70t-13 92h66q-2 -39 -15 -91.5t-14 -70.5q16 7 62 36t83 43l22 -63q-38 -11 -92 -16t-70 -9q12 -14 53.5 -48t65.5 -64l-53 -40q-23 33 -44.5 83.5t-30.5 64.5q-11 -16 -32.5 -66t-43.5 -82l-53 40q24 30 65.5 64t53.5 48
q-16 4 -70 9t-92 16z" />
    <glyph glyph-name="plus" unicode="+" horiz-adv-x="514" 
d="M241 543h32v-193h192v-31h-192v-192h-32v192h-192v31h192v193z" />
    <glyph glyph-name="comma" unicode="," horiz-adv-x="254" 
d="M64 -119q33 16 58.5 45t26.5 64q-11 -5 -26 -5q-26 0 -44 17.5t-18 44.5q0 28 18.5 46.5t46.5 18.5q33 0 51.5 -23.5t18.5 -61.5q0 -62 -34 -101.5t-94 -53.5z" />
    <glyph glyph-name="hyphen" unicode="-" horiz-adv-x="338" 
d="M297 288v-30h-256v30h256z" />
    <glyph glyph-name="period" unicode="." horiz-adv-x="252" 
d="M126 -15q-28 0 -46.5 18t-18.5 46q0 27 18.5 44.5t46.5 17.5t46.5 -17.5t18.5 -44.5q0 -28 -18.5 -46t-46.5 -18z" />
    <glyph glyph-name="slash" unicode="/" horiz-adv-x="387" 
d="M40 -45l276 731h30l-276 -731h-30z" />
    <glyph glyph-name="zero" unicode="0" horiz-adv-x="626" 
d="M313 -15q-115 0 -187 97t-72 252t72 252t187 97t187 -97t72 -252t-72 -252t-187 -97zM151 334q0 -154 42.5 -238t119.5 -84t119 84t42 238t-42 238t-119 84t-119.5 -84t-42.5 -238z" />
    <glyph glyph-name="one" unicode="1" horiz-adv-x="351" 
d="M40 14q63 3 86 17.5t24 57.5v479h-109v14q66 17 109 39.5t77 61.5h13v-594q0 -42 20.5 -57t69.5 -18v-14h-290v14z" />
    <glyph glyph-name="two" unicode="2" horiz-adv-x="579" 
d="M43 0v14l51 52q11 11 32 33q61 63 90.5 94t72 82t62 84t34.5 74t15 79q0 64 -34 104t-92 40q-52 0 -85.5 -36t-33.5 -98q0 -34 12 -74h-104q-2 22 -2 32q0 99 63 151t153 52q97 0 159 -54.5t62 -138.5q0 -43 -21 -87.5t-43 -75t-80 -79.5t-85 -69t-106 -76
q-15 -11 -22 -16h226q68 0 95.5 19.5t45.5 84.5h14l-28 -191h-451z" />
    <glyph glyph-name="three" unicode="3" horiz-adv-x="570" 
d="M278 -14q-100 0 -167 54t-59 145h94q-4 -16 -4 -36q0 -57 38 -96t99 -39q64 0 105 43t41 116q0 72 -42.5 117t-121.5 45q-30 0 -55 -5l-1 16l209 236h-151q-80 0 -119.5 -26t-57.5 -96h-14l28 220q60 -12 161 -12h264v-14l-265 -292q39 9 72 9q89 0 139.5 -53.5
t50.5 -127.5q0 -89 -68 -146.5t-176 -57.5z" />
    <glyph glyph-name="four" unicode="4" horiz-adv-x="582" 
d="M219 14q59 3 88 22.5t29 70.5v67h-319v14l347 484h62v-433h120v-65h-120v-67q0 -52 20.5 -71t70.5 -22v-14h-298v14zM87 239h249v347z" />
    <glyph glyph-name="five" unicode="5" horiz-adv-x="536" 
d="M67 351l66 317h340v-86h-329l-40 -190q71 21 136 21q112 0 183.5 -58t71.5 -163q0 -93 -65.5 -149.5t-170.5 -56.5q-102 0 -163 52t-54 147h93q-4 -20 -4 -42q0 -60 34.5 -94.5t93.5 -34.5q63 0 100.5 42.5t37.5 114.5q0 82 -58 130.5t-166 48.5q-44 0 -95 -9z" />
    <glyph glyph-name="six" unicode="6" horiz-adv-x="604" 
d="M309 -15q-123 0 -191 90.5t-68 252.5q0 79 18 142.5t47 102t67 64.5t75.5 36t76.5 10q36 0 69.5 -9t65.5 -29t52.5 -57.5t22.5 -88.5h-101q0 3 0.5 9t0.5 9q0 66 -35.5 102.5t-85.5 36.5q-71 0 -123 -79t-52 -233v-37q40 116 179 116q98 0 157.5 -60t59.5 -154
q0 -100 -66.5 -162t-168.5 -62zM159 209q0 -85 41 -141t107 -56q62 0 101 52.5t39 135.5q0 85 -39.5 133.5t-106.5 48.5q-66 0 -104 -46t-38 -127z" />
    <glyph glyph-name="seven" unicode="7" horiz-adv-x="505" 
d="M494 654q-224 -260 -224 -594q0 -20 2 -60h-103q-2 34 -2 49q0 161 66.5 289.5t182.5 243.5h-196q-80 0 -119 -26t-57 -96h-14l27 220q60 -12 161 -12h276v-14z" />
    <glyph glyph-name="eight" unicode="8" horiz-adv-x="582" 
d="M290 -15q-105 0 -172.5 47t-67.5 124q0 56 38.5 101t112.5 72q-63 28 -98 69.5t-35 109.5q0 78 63 126.5t162 48.5q97 0 159.5 -45.5t62.5 -115.5q0 -102 -140 -156q74 -31 115.5 -74.5t41.5 -122.5q0 -81 -65 -132.5t-177 -51.5zM130 169q0 -72 45.5 -114.5t116.5 -42.5
q67 0 110 36t43 91q0 23 -6 42t-20 34.5t-26.5 26.5t-36.5 22.5t-39 18t-45 17.5t-44 17q-98 -55 -98 -148zM155 540q0 -15 3 -28t7 -23.5t13.5 -21t15.5 -17.5t21 -15.5t22 -13t26 -12.5t26 -10.5t29 -11t28 -10.5q91 51 91 136q0 67 -40 105.5t-105 38.5q-61 0 -99 -33.5
t-38 -83.5z" />
    <glyph glyph-name="nine" unicode="9" horiz-adv-x="604" 
d="M295 683q123 0 191 -90.5t68 -252.5q0 -79 -18 -142.5t-47 -102t-67 -64.5t-75.5 -36t-76.5 -10q-36 0 -69.5 9t-65.5 29t-52.5 57.5t-22.5 88.5h101q0 -3 -0.5 -9t-0.5 -9q0 -66 35.5 -102.5t85.5 -36.5q71 0 123 79t52 233v37q-40 -116 -179 -116q-98 0 -157.5 60
t-59.5 154q0 100 66.5 162t168.5 62zM157 468q0 -85 39.5 -133.5t106.5 -48.5q66 0 104 46t38 127q0 85 -41 141t-107 56q-62 0 -101 -52.5t-39 -135.5z" />
    <glyph glyph-name="colon" unicode=":" horiz-adv-x="252" 
d="M126 338q-28 0 -46.5 18t-18.5 46q0 27 18.5 44.5t46.5 17.5t46.5 -17.5t18.5 -44.5q0 -28 -18.5 -46t-46.5 -18zM61 49q0 27 18.5 44.5t46.5 17.5t46.5 -17.5t18.5 -44.5q0 -28 -18.5 -46t-46.5 -18t-46.5 18t-18.5 46z" />
    <glyph glyph-name="semicolon" unicode=";" horiz-adv-x="264" 
d="M71 -119q33 16 58.5 45t26.5 64q-11 -5 -26 -5q-26 0 -44 17.5t-18 44.5q0 28 18.5 46.5t46.5 18.5q33 0 51.5 -23.5t18.5 -61.5q0 -62 -34 -101.5t-94 -53.5zM61 403q0 27 18.5 44.5t46.5 17.5t46.5 -17.5t18.5 -44.5q0 -28 -18.5 -46t-46.5 -18t-46.5 18t-18.5 46z" />
    <glyph glyph-name="less" unicode="&#x3c;" horiz-adv-x="507" 
d="M45 320v30l402 191l14 -28l-376 -178l376 -179l-14 -28z" />
    <glyph glyph-name="equal" unicode="=" horiz-adv-x="507" 
d="M46 420v31h416v-31h-416zM46 219v31h416v-31h-416z" />
    <glyph glyph-name="greater" unicode="&#x3e;" horiz-adv-x="507" 
d="M46 156l376 179l-376 178l14 28l402 -191v-30l-402 -192z" />
    <glyph glyph-name="question" unicode="?" horiz-adv-x="468" 
d="M229 682q98 0 153.5 -39t55.5 -105q0 -46 -22.5 -83.5t-54.5 -63t-64 -49.5t-54.5 -55.5t-22.5 -67.5q0 -12 1 -19h-14q-16 41 -16 74t15.5 61t37.5 49.5t43.5 44t37 54.5t15.5 69q0 46 -29 74.5t-78 28.5q-51 0 -80 -33.5t-29 -90.5q0 -31 9 -65h-100q-3 18 -3 36
q0 83 53.5 131.5t145.5 48.5zM152 49q0 27 18.5 44.5t46.5 17.5t46.5 -17.5t18.5 -44.5q0 -28 -18.5 -46t-46.5 -18t-46.5 18t-18.5 46z" />
    <glyph glyph-name="at" unicode="@" horiz-adv-x="941" 
d="M472 -169q-187 0 -304.5 106.5t-117.5 280.5q0 123 62.5 224t170 158t235.5 57q167 0 270 -84t103 -221q0 -124 -67 -211t-170 -87q-54 0 -81.5 29.5t-27.5 74.5q-22 -46 -59.5 -75t-82.5 -29q-58 0 -91 41.5t-33 107.5q0 19 3 42q13 95 77.5 157.5t138.5 62.5
q69 0 104 -38l74 38l-57 -270q-6 -28 -6 -53q0 -65 51 -65q60 0 101 81.5t41 189.5q0 126 -78 204.5t-210 78.5q-161 0 -271.5 -122t-110.5 -293q0 -157 97.5 -254t260.5 -97q64 0 132 20t119 54l7 -9q-46 -41 -122 -70t-158 -29zM362 250q-4 -21 -4 -45q0 -48 20.5 -75
t56.5 -27q37 0 71.5 31.5t49.5 99.5l16 71q4 19 4 41q0 42 -18.5 69t-54.5 27q-53 0 -92 -58t-49 -134z" />
    <glyph glyph-name="A" unicode="A" horiz-adv-x="717" 
d="M601 115q21 -51 46.5 -74.5t69.5 -26.5v-14h-265v14q65 1 65 49q0 19 -10 42l-49 120h-265l-47 -115q-13 -31 -13 -50q0 -45 74 -46v-14h-207v14q46 2 71.5 25t46.5 75l234 569h14zM204 253h243l-121 298z" />
    <glyph glyph-name="B" unicode="B" horiz-adv-x="662" 
d="M40 14q50 3 70 17.5t20 57.5v491q0 41 -20.5 56t-69.5 18v14h286q114 0 178.5 -42.5t64.5 -116.5q0 -66 -49 -109t-134 -50q107 -6 166.5 -50.5t59.5 -119.5q0 -85 -63 -132.5t-176 -47.5h-333v14zM220 87q0 -59 85 -59h49q75 0 117.5 40.5t42.5 111.5t-48 112t-131 41
h-115v-246zM220 361h105q68 0 107 39t39 109q0 61 -43.5 96t-119.5 35h-88v-279z" />
    <glyph glyph-name="C" unicode="C" horiz-adv-x="673" 
d="M566 490q-11 79 -62.5 122t-128.5 43q-103 0 -164.5 -81.5t-61.5 -222.5q0 -129 71.5 -212.5t181.5 -83.5q76 0 134 42t83 117l14 -3q-23 -106 -95.5 -166t-170.5 -60q-140 0 -228 98t-89 253q0 154 91.5 250.5t230.5 96.5q132 0 221 -57l-13 -136h-14z" />
    <glyph glyph-name="D" unicode="D" horiz-adv-x="735" 
d="M40 14q50 3 70 17.5t20 57.5v491q0 41 -20.5 56t-69.5 18v14h286q161 0 259.5 -92t98.5 -242t-94.5 -242t-248.5 -92h-301v14zM220 87q0 -33 17 -46t64 -13h40q111 0 178.5 84.5t67.5 221.5q0 138 -76 222t-202 84h-89v-553z" />
    <glyph glyph-name="E" unicode="E" horiz-adv-x="663" 
d="M578 175h14l-27 -184q-51 9 -116 9h-409v14q47 2 68.5 19.5t21.5 61.5v479q0 43 -22 60.5t-68 19.5v14h397q65 0 116 9l28 -184h-14q-20 75 -58 111t-112 36h-177v-283h154q51 0 72 22.5t23 73.5h14v-220h-14q-2 51 -23 73.5t-72 22.5h-154v-234q0 -36 13 -51.5t42 -15.5
h134q74 0 112 36t57 111z" />
    <glyph glyph-name="F" unicode="F" horiz-adv-x="637" 
d="M553 677l27 -184h-14q-19 75 -57 111t-112 36h-177v-284h154q51 0 72 22.5t23 73.5h14v-219h-14q-2 51 -23 74t-72 23h-154v-238q0 -46 24.5 -60.5t95.5 -17.5v-14h-300v14q50 3 70 17.5t20 57.5v491q0 41 -20.5 56t-69.5 18v14h396q66 0 117 9z" />
    <glyph glyph-name="G" unicode="G" horiz-adv-x="729" 
d="M382 -14q-151 0 -241 96t-91 247q0 154 97.5 254t243.5 100q138 0 230 -57l-13 -136h-14q-11 77 -65 121t-133 44q-112 0 -179.5 -85.5t-68.5 -231.5q1 -147 69.5 -235t182.5 -88q101 0 146 49v174q0 42 -21 62t-74 23v14h263v-14q-77 -6 -77 -85v-133
q-36 -53 -103.5 -86t-151.5 -33z" />
    <glyph glyph-name="H" unicode="H" horiz-adv-x="789" 
d="M479 14q48 3 69 19.5t21 61.5v234h-349v-234q0 -45 21 -61.5t69 -19.5v-14h-270v14q48 3 69 19.5t21 61.5v479q0 44 -21 60.5t-69 19.5v14h270v-14q-48 -3 -69 -19.5t-21 -60.5v-217h349v217q0 44 -21 60.5t-69 19.5v14h270v-14q-48 -3 -69 -19.5t-21 -60.5v-479
q0 -45 21 -61.5t69 -19.5v-14h-270v14z" />
    <glyph glyph-name="I" unicode="I" horiz-adv-x="361" 
d="M45 14q48 3 69 19.5t21 61.5v479q0 44 -21 60.5t-69 19.5v14h270v-14q-48 -3 -69 -19.5t-21 -60.5v-479q0 -45 21 -61.5t69 -19.5v-14h-270v14z" />
    <glyph glyph-name="J" unicode="J" horiz-adv-x="533" 
d="M503 654q-49 -2 -69 -18t-20 -59v-394q0 -97 -52.5 -147.5t-145.5 -50.5q-91 0 -145 51t-50 139h96q-5 -27 -5 -46q0 -55 29 -85.5t77 -30.5q50 0 78 36t28 107v421q0 43 -20.5 59t-69.5 18v14h269v-14z" />
    <glyph glyph-name="K" unicode="K" horiz-adv-x="719" 
d="M575 88q64 -69 130 -74v-14h-188q-8 35 -65 97l-232 235v-237q0 -45 21 -61.5t69 -19.5v-14h-270v14q48 3 69 19.5t21 61.5v479q0 44 -21 60.5t-69 19.5v14h270v-14q-48 -3 -69 -19.5t-21 -60.5v-229l280 250q25 22 25 36q0 22 -64 23v14h205v-14q-64 -3 -131 -64
l-235 -213z" />
    <glyph glyph-name="L" unicode="L" horiz-adv-x="619" 
d="M574 175h14l-27 -184q-51 9 -116 9h-405v14q50 3 70 18.5t20 56.5v491q0 40 -20 55.5t-70 18.5v14h270v-14q-49 -3 -69.5 -18.5t-20.5 -55.5v-491q0 -32 12.5 -46.5t39.5 -14.5h133q74 0 112 36t57 111z" />
    <glyph glyph-name="M" unicode="M" horiz-adv-x="930" 
d="M890 654q-48 -2 -69 -20t-21 -61v-491q0 -34 20 -48.5t70 -19.5v-14h-270v14q49 5 69.5 19.5t20.5 48.5v481l-271 -578h-14l-267 578v-481q0 -36 20 -49.5t69 -18.5v-14h-206v14q49 5 69 19t20 49v491q0 43 -21 61t-69 20v14h169l257 -559l262 559h162v-14z" />
    <glyph glyph-name="N" unicode="N" horiz-adv-x="732" 
d="M483 668h214v-14q-39 -3 -58 -17t-19 -55v-597h-14l-441 584v-481q0 -18 5.5 -31t13.5 -20.5t23.5 -12t29 -6.5t36.5 -3v-15h-213v14q27 2 41 6.5t25 21t11 46.5v490q0 69 -97 76v14h165l387 -514v428q0 42 -26 55.5t-83 16.5v14z" />
    <glyph glyph-name="O" unicode="O" horiz-adv-x="771" 
d="M386 -15q-149 0 -242.5 97t-93.5 252t93.5 252t242.5 97q148 0 241.5 -97t93.5 -252t-93.5 -252t-241.5 -97zM148 334q0 -147 64.5 -234t173.5 -87q108 0 172.5 87t64.5 234q0 148 -64.5 234.5t-172.5 86.5q-109 0 -173.5 -86.5t-64.5 -234.5z" />
    <glyph glyph-name="P" unicode="P" horiz-adv-x="631" 
d="M40 14q49 3 69.5 19.5t20.5 61.5v479q0 44 -21 60.5t-69 19.5v14h290q122 0 191 -47t69 -140q0 -94 -69.5 -141.5t-190.5 -47.5h-110v-197q0 -46 23.5 -62t86.5 -19v-14h-290v14zM220 320h93q87 0 133.5 43.5t46.5 117.5q0 73 -46.5 116t-133.5 43h-93v-320z" />
    <glyph glyph-name="Q" unicode="Q" horiz-adv-x="771" 
d="M386 -15h-5q30 -59 88 -92t122 -33l-21 -81q-80 3 -135 58.5t-77 148.5q-138 10 -223 105.5t-85 242.5q0 155 93.5 252t242.5 97q148 0 241.5 -97t93.5 -252t-93.5 -252t-241.5 -97zM148 334q0 -147 64.5 -234t173.5 -87q108 0 172.5 87t64.5 234q0 148 -64.5 234.5
t-172.5 86.5q-109 0 -173.5 -86.5t-64.5 -234.5z" />
    <glyph glyph-name="R" unicode="R" horiz-adv-x="697" 
d="M485 0q-4 23 -58 89l-207 241v-241q0 -42 20.5 -57t69.5 -18v-14h-270v14q50 3 70 17.5t20 57.5v491q0 41 -20.5 56t-69.5 18v14h283q268 0 268 -176q0 -172 -248 -177l183 -213q68 -80 151 -88v-14h-192zM220 343h96q86 0 131.5 39.5t45.5 109.5q0 69 -45.5 108.5
t-131.5 39.5h-95z" />
    <glyph glyph-name="S" unicode="S" horiz-adv-x="615" 
d="M108 210q24 -92 79 -144t128 -52q64 0 104 34.5t40 90.5q0 42 -21 72.5t-54 48.5t-73 32.5t-80.5 31t-73.5 37.5t-54 57.5t-21 86.5q0 79 57.5 128t153.5 49q121 0 214 -55l-13 -137h-14q-16 83 -66 123.5t-124 40.5q-53 0 -91.5 -32t-38.5 -82q0 -43 28.5 -74t71 -47
t92.5 -36.5t92.5 -41.5t71 -63t28.5 -100q0 -87 -64 -139.5t-168 -52.5q-147 0 -232 75l14 149h14z" />
    <glyph glyph-name="T" unicode="T" horiz-adv-x="664" 
d="M377 103q0 -51 19.5 -68.5t70.5 -20.5v-14h-270v14q50 3 70 20.5t20 68.5v537h-73q-74 0 -112 -36t-58 -111h-14l28 184q51 -9 116 -9h316q65 0 116 9l27 -184h-14q-19 75 -57 111t-112 36h-73v-537z" />
    <glyph glyph-name="U" unicode="U" horiz-adv-x="748" 
d="M510 668h208v-14q-49 -3 -69.5 -18t-20.5 -56v-327q0 -132 -62.5 -199.5t-182.5 -67.5q-126 0 -194.5 67.5t-68.5 194.5v332q0 41 -20.5 56t-69.5 18v14h270v-14q-49 -3 -69.5 -18t-20.5 -56v-325q0 -109 54.5 -167t149.5 -58q89 0 137.5 57t48.5 167v326q0 41 -20.5 56
t-69.5 18v14z" />
    <glyph glyph-name="V" unicode="V" horiz-adv-x="697" 
d="M106 553q-21 51 -46.5 74.5t-69.5 26.5v14h265v-14q-65 -1 -65 -49q0 -19 10 -42l181 -446l180 441q13 31 13 50q0 45 -74 46v14h207v-14q-46 -2 -71.5 -25t-46.5 -75l-234 -569h-14z" />
    <glyph glyph-name="W" unicode="W" horiz-adv-x="1022" 
d="M474 553q-17 48 -40.5 73t-62.5 28v14h255v-14q-67 -1 -67 -51q0 -18 8 -40l155 -434l156 429q11 28 11 48q0 47 -71 48v14h204v-14q-48 -3 -72.5 -26.5t-43.5 -73.5l-209 -569h-14l-178 485l-179 -485h-14l-209 568q-18 49 -40.5 73.5t-62.5 27.5v14h256v-14
q-67 -1 -67 -51q0 -18 8 -40l154 -433l139 381z" />
    <glyph glyph-name="X" unicode="X" horiz-adv-x="737" 
d="M459 14q59 2 59 31q0 17 -20 46l-157 224l-159 -220q-22 -29 -22 -49q0 -31 70 -32v-14h-215v14q42 1 72.5 20t63.5 66l173 238l-173 247q-26 38 -50 53t-59 16v14h262v-14q-62 -2 -62 -29q0 -15 18 -40l131 -188l126 174q24 33 24 52q0 30 -70 31v14h208v-14
q-38 -1 -66.5 -19.5t-61.5 -63.5l-143 -198l199 -283q52 -75 114 -76v-14h-262v14z" />
    <glyph glyph-name="Y" unicode="Y" horiz-adv-x="623" 
d="M165 14q47 3 67 18t20 57v197l-172 285q-48 80 -100 83v14h262v-14q-73 -1 -73 -39q0 -17 16 -44l147 -246l152 246q20 32 20 50q0 32 -69 33v14h208v-14q-74 -1 -126 -83l-175 -282v-200q0 -42 20 -57t68 -18v-14h-265v14z" />
    <glyph glyph-name="Z" unicode="Z" horiz-adv-x="632" 
d="M550 -9q-51 9 -117 9h-386v14l411 626h-204q-74 0 -112 -36t-58 -111h-14l28 184q51 -9 116 -9h360v-14l-411 -626h231q74 0 112 36t57 111h14z" />
    <glyph glyph-name="bracketleft" unicode="[" horiz-adv-x="304" 
d="M100 -169v926h180v-19h-101v-888h101v-19h-180z" />
    <glyph glyph-name="backslash" unicode="\" horiz-adv-x="387" 
d="M347 -45h-30l-276 731h30z" />
    <glyph glyph-name="bracketright" unicode="]" horiz-adv-x="304" 
d="M204 -169h-180v19h101v888h-101v19h180v-926z" />
    <glyph glyph-name="asciicircum" unicode="^" horiz-adv-x="448" 
d="M403 443h-37l-141 214l-141 -214h-38l171 254h18z" />
    <glyph glyph-name="underscore" unicode="_" horiz-adv-x="418" 
d="M377 -15v-32h-336v32h336z" />
    <glyph glyph-name="grave" unicode="`" horiz-adv-x="374" 
d="M260 537l-163 160h117l60 -160h-14z" />
    <glyph glyph-name="a" unicode="a" horiz-adv-x="477" 
d="M177 -15q-59 0 -95.5 33.5t-36.5 86.5q0 50 28.5 81t69 43.5t80.5 23t68.5 31.5t28.5 57q0 44 -26.5 71.5t-69.5 27.5t-68.5 -28t-25.5 -71q0 -19 6 -39h-91q2 70 52 116.5t133 46.5q79 0 125 -42.5t46 -114.5v-224q0 -46 47 -50l14 -1v-14l-140 -35v120
q-36 -119 -145 -119zM131 117q0 -36 23 -60t58 -24q42 0 75 35.5t33 93.5v120q-12 -23 -44.5 -38t-63.5 -22.5t-56 -34t-25 -70.5z" />
    <glyph glyph-name="b" unicode="b" horiz-adv-x="522" 
d="M298 465q85 0 136.5 -65t51.5 -171q0 -116 -61 -180t-150 -64q-75 0 -119 39l-83 -39v611q0 46 -47 50l-14 1v14l142 36v-347q15 55 53 85t91 30zM154 154q0 -62 32 -103t85 -41q62 0 94.5 56t32.5 146q0 92 -35 146t-91 54q-51 0 -84.5 -37t-33.5 -111v-110z" />
    <glyph glyph-name="c" unicode="c" horiz-adv-x="460" 
d="M383 318q-7 58 -39.5 90t-79.5 32q-62 0 -102.5 -56.5t-40.5 -139.5q0 -86 46 -143t116 -57q47 0 82.5 26.5t53.5 69.5l11 -3q-14 -70 -61.5 -110.5t-120.5 -40.5q-92 0 -153.5 67.5t-61.5 172.5t65 172t164 67q85 0 141 -32l-6 -115h-14z" />
    <glyph glyph-name="d" unicode="d" horiz-adv-x="528" 
d="M223 -15q-85 0 -136.5 65t-51.5 171q0 116 61 180t150 64q77 0 121 -48v179q0 46 -47 50l-14 1v14l142 36v-612q0 -46 47 -50l14 -1v-14l-140 -36v125q-13 -59 -52 -91.5t-94 -32.5zM123 238q0 -92 35 -146t91 -54q51 0 84 37t34 111v110q0 62 -31.5 103t-85.5 41
q-62 0 -94.5 -56t-32.5 -146z" />
    <glyph glyph-name="e" unicode="e" horiz-adv-x="472" 
d="M117 259q-2 -98 42 -156t123 -58q49 0 85 27.5t52 68.5l12 -3q-14 -71 -64 -111.5t-124 -40.5q-93 0 -151.5 65t-58.5 168q0 114 62.5 180t162.5 66q79 0 126 -44t47 -121q0 -10 -2 -32h-312v-9zM119 293h226q2 18 2 27q0 56 -28.5 88t-74.5 32q-50 0 -83.5 -40
t-41.5 -107z" />
    <glyph glyph-name="f" unicode="f" horiz-adv-x="308" 
d="M304 450v-25h-126v-358q0 -25 20.5 -37.5t66.5 -15.5v-14h-227v14q32 5 46 17t14 36v358h-76v25h76v60q0 85 47.5 129t124.5 44q57 0 88 -19l-13 -104h-12q-12 98 -80 98q-36 0 -55.5 -34.5t-19.5 -88.5v-85h126z" />
    <glyph glyph-name="g" unicode="g" horiz-adv-x="495" 
d="M243 -212q-98 0 -159.5 31.5t-61.5 87.5q0 65 93 98q-51 28 -51 85q0 56 53 92q-69 42 -69 126q0 71 52.5 114t137.5 43q56 0 103 -21q13 3 37 9t44 9.5t41 3.5v-40h-93q57 -44 57 -118q0 -71 -52 -114.5t-137 -43.5q-64 0 -107 24q-18 -23 -18 -47q0 -49 78 -55l119 -7
q164 -12 164 -124q0 -69 -61.5 -111t-169.5 -42zM96 -79q0 -51 42 -79t117 -28q72 0 114 26.5t42 69.5q0 61 -115 69l-98 5q-39 3 -69 14q-33 -26 -33 -77zM132 308q0 -62 29 -97t77 -35t76.5 35t28.5 97t-28.5 97t-76.5 35t-77 -35t-29 -97z" />
    <glyph glyph-name="h" unicode="h" horiz-adv-x="539" 
d="M458 67q0 -24 14 -36t46 -17v-14h-201v14q33 4 46.5 16.5t13.5 36.5v239q0 53 -24 78.5t-65 25.5q-49 0 -84 -36t-35 -106v-201q0 -24 13.5 -36.5t46.5 -16.5v-14h-201v14q33 4 46.5 16.5t13.5 36.5v529q0 46 -47 50l-14 1v14l142 36v-350q20 57 60.5 87.5t94.5 30.5
q62 0 98 -39t36 -113v-246z" />
    <glyph glyph-name="i" unicode="i" horiz-adv-x="261" 
d="M172 67q0 -24 14 -36t46 -17v-14h-200v14q32 5 46 17t14 36v297q0 47 -48 51l-14 1v14l142 35v-398zM69 641q0 26 18 43t45 17q26 0 43.5 -17t17.5 -43t-17.5 -43t-43.5 -17q-27 0 -45 17t-18 43z" />
    <glyph glyph-name="j" unicode="j" horiz-adv-x="225" 
d="M18 416v14l142 35v-390q0 -111 -39 -178t-139 -109l-6 11q53 41 78 94.5t25 150.5v320q0 47 -48 51zM56 641q0 26 18 43t45 17q26 0 43.5 -17t17.5 -43t-17.5 -43t-43.5 -17q-27 0 -45 17t-18 43z" />
    <glyph glyph-name="k" unicode="k" horiz-adv-x="526" 
d="M367 0q-4 28 -51 79l-147 162v-174q0 -24 13.5 -36.5t46.5 -16.5v-14h-201v14q33 4 46.5 16.5t13.5 36.5v529q0 46 -47 50l-14 1v14l142 36v-447l171 130q31 24 31 38q0 15 -36 18v14h162v-14q-48 -3 -127 -63l-126 -99l179 -204q47 -53 102 -57v-13h-158z" />
    <glyph glyph-name="l" unicode="l" horiz-adv-x="254" 
d="M169 67q0 -24 13.5 -36.5t46.5 -16.5v-14h-201v14q33 4 46.5 16.5t13.5 36.5v529q0 46 -47 50l-14 1v14l142 36v-630z" />
    <glyph glyph-name="m" unicode="m" horiz-adv-x="831" 
d="M751 67q0 -24 14 -36t46 -17v-14h-201v14q33 4 46.5 16.5t13.5 36.5v239q0 53 -24 78.5t-65 25.5q-49 0 -84 -36t-35 -106v-201q0 -24 13.5 -36.5t46.5 -16.5v-14h-201v14q32 5 46 17t14 36v239q0 53 -24.5 78.5t-65.5 25.5q-48 0 -83.5 -36t-35.5 -106v-201
q0 -24 14 -36t46 -17v-14h-200v14q32 5 46 17t14 36v297q0 47 -48 51l-14 1v14l142 35v-118q20 57 60.5 87.5t94.5 30.5q56 0 91 -31.5t42 -91.5q20 59 60.5 91t95.5 32q63 0 99 -39t36 -113v-246z" />
    <glyph glyph-name="n" unicode="n" horiz-adv-x="542" 
d="M462 67q0 -24 13.5 -36.5t46.5 -16.5v-14h-201v14q32 5 46 17t14 36v239q0 53 -24.5 78.5t-65.5 25.5q-48 0 -83.5 -36t-35.5 -106v-201q0 -24 14 -36t46 -17v-14h-200v14q32 5 46 17t14 36v297q0 47 -48 51l-14 1v14l142 35v-118q20 57 60.5 87.5t94.5 30.5
q62 0 98.5 -39.5t36.5 -112.5v-246z" />
    <glyph glyph-name="o" unicode="o" horiz-adv-x="496" 
d="M248 -14q-96 0 -155.5 66.5t-59.5 173.5t59.5 173t155.5 66t155 -66t59 -173t-59 -173.5t-155 -66.5zM121 226q0 -102 33.5 -158.5t93.5 -56.5q59 0 92.5 56.5t33.5 158.5t-33.5 158t-92.5 56q-60 0 -93.5 -56.5t-33.5 -157.5z" />
    <glyph glyph-name="p" unicode="p" horiz-adv-x="538" 
d="M316 467q85 0 136.5 -65t51.5 -172q0 -116 -61 -180t-150 -64q-76 0 -121 49v-165q0 -25 20.5 -37.5t66.5 -15.5v-14h-227v14q32 5 46 17t14 36v494q0 47 -48 51l-14 1v14l142 35v-114q15 55 53 85.5t91 30.5zM172 156q0 -63 31.5 -104t85.5 -41q63 0 95 56.5t32 146.5
q0 92 -34.5 145.5t-90.5 53.5q-51 0 -84.5 -36.5t-34.5 -110.5v-110z" />
    <glyph glyph-name="q" unicode="q" horiz-adv-x="513" 
d="M446 -130q0 -24 14 -36t46 -17v-14h-227v14q46 3 66 15.5t20 37.5v231q-14 -55 -52 -85.5t-92 -30.5q-84 0 -136 65t-52 172q0 116 61.5 179.5t149.5 63.5q72 0 119 -39l83 39v-595zM121 238q0 -91 35 -145t91 -54q51 0 84.5 36.5t33.5 110.5v110q0 63 -31 103.5
t-85 40.5q-63 0 -95.5 -56t-32.5 -146z" />
    <glyph glyph-name="r" unicode="r" horiz-adv-x="359" 
d="M172 329q16 62 51.5 99t76.5 37q21 0 43 -11l-8 -78q-26 17 -55 17q-44 0 -75.5 -39t-32.5 -112v-175q0 -25 20.5 -37.5t66.5 -15.5v-14h-227v14q32 5 46 17t14 36v297q0 47 -48 51l-14 1v14l142 35v-136z" />
    <glyph glyph-name="s" unicode="s" horiz-adv-x="418" 
d="M71 150q18 -66 56.5 -102.5t88.5 -36.5q44 0 71.5 23.5t27.5 61.5q0 31 -19.5 51.5t-48.5 29.5t-63.5 21t-63.5 25t-48.5 42.5t-19.5 72.5q0 58 43 92.5t114 34.5q86 0 138 -31l-6 -113h-14q-11 56 -43.5 87.5t-79.5 31.5q-40 0 -64.5 -21t-24.5 -55q0 -29 19.5 -48
t48.5 -28t63.5 -21t63.5 -26t48.5 -44t19.5 -74q0 -62 -45 -99.5t-119 -37.5q-110 0 -164 48l7 116h14z" />
    <glyph glyph-name="t" unicode="t" horiz-adv-x="314" 
d="M292 52q-14 -29 -41.5 -47t-61.5 -18q-56 0 -85 34.5t-29 100.5v303h-59v14q80 73 126 143h14v-132h129v-25h-129v-307q0 -87 74 -87q32 0 51 27z" />
    <glyph glyph-name="u" unicode="u" horiz-adv-x="527" 
d="M494 34l14 -1v-14l-139 -35v127q-19 -59 -60 -92t-98 -33q-62 0 -98 39t-36 113v226q0 47 -47 51l-14 1v14l142 35v-320q0 -53 24 -78.5t65 -25.5q49 0 84 36t35 106v181q0 47 -47 51l-14 1v14l142 35v-381q0 -46 47 -50z" />
    <glyph glyph-name="v" unicode="v" horiz-adv-x="459" 
d="M60 381q-12 28 -27.5 41t-40.5 14v14h203v-14q-51 -1 -51 -32q0 -10 6 -27l110 -277l111 273q7 15 7 29q0 31 -57 34v14h146v-14q-45 -4 -70 -65l-160 -385h-14z" />
    <glyph glyph-name="w" unicode="w" horiz-adv-x="713" 
d="M320 385q-20 49 -60 52v13h201v-13q-58 -3 -58 -30q0 -8 6 -22l110 -280l107 265q8 16 8 31q0 32 -59 36v13h146v-13q-42 -3 -71 -70l-155 -381h-12l-128 313l-128 -313h-13l-159 394q-23 54 -63 57v13h201v-13q-58 -1 -58 -31q0 -10 6 -23l108 -277l93 224z" />
    <glyph glyph-name="x" unicode="x" horiz-adv-x="511" 
d="M293 13q41 3 41 24q0 14 -13 31l-91 129l-95 -119q-19 -24 -19 -38q0 -23 46 -27v-13h-150v13q38 3 94 70l108 135l-116 164q-37 52 -79 55v13h205v-13q-40 -1 -40 -22q0 -12 14 -32l78 -109l80 99q19 25 19 39q0 22 -45 26v13h150v-13q-42 -3 -96 -69l-93 -116l132 -186
q36 -51 77 -54v-13h-207v13z" />
    <glyph glyph-name="y" unicode="y" horiz-adv-x="451" 
d="M1 -106q39 -34 87 -34q32 0 57 25.5t48 80.5l15 37l-152 365q-28 66 -66 69v13h201v-13q-56 -3 -56 -35q0 -12 5 -23l111 -273l105 252q11 23 11 41q0 34 -59 38v13h151v-13q-43 -6 -76 -82l-165 -394q-40 -94 -81.5 -133.5t-101.5 -39.5q-29 0 -65 18z" />
    <glyph glyph-name="z" unicode="z" horiz-adv-x="465" 
d="M42 0v14l274 411h-135q-82 0 -120 -125h-13l24 150h347v-14l-274 -411h146q84 0 118 129h14l-24 -154h-357z" />
    <glyph glyph-name="braceleft" unicode="{" horiz-adv-x="313" 
d="M27 304q56 0 78 20t22 57q0 16 -3 34l-26 191q-3 19 -3 38q0 61 40.5 90t136.5 29v-17q-55 0 -76 -21.5t-21 -60.5q0 -11 2 -33l27 -193q4 -24 4 -48q0 -48 -26.5 -68t-93.5 -28q68 -8 94 -28t26 -66q0 -24 -4 -49l-27 -197q-2 -22 -2 -31q0 -38 21 -59t76 -22v-17
q-96 0 -136.5 29t-40.5 91q0 17 3 38l26 192q0 3 1.5 15t1.5 18q0 37 -22 57t-78 20v19z" />
    <glyph glyph-name="bar" unicode="|" horiz-adv-x="168" 
d="M70 -192v960h27v-960h-27z" />
    <glyph glyph-name="braceright" unicode="}" horiz-adv-x="313" 
d="M286 285q-56 0 -78 -20t-22 -57q0 -6 1.5 -18t1.5 -15l26 -192q3 -21 3 -38q0 -62 -40.5 -91t-136.5 -29v17q55 1 76 22t21 59q0 9 -2 31l-27 197q-4 25 -4 49q0 46 26 66t94 28q-67 8 -93.5 28t-26.5 68q0 24 4 48l27 193q2 22 2 33q0 39 -21 60.5t-76 21.5v17
q96 0 136.5 -29t40.5 -90q0 -18 -3 -38l-26 -191q-3 -18 -3 -34q0 -37 22 -57t78 -20v-19z" />
    <glyph glyph-name="asciitilde" unicode="~" horiz-adv-x="520" 
d="M475 405q2 -68 -22 -106.5t-72 -38.5q-27 0 -55 14.5t-77 50.5q-31 22 -45 31.5t-32 17.5t-33 8q-67 0 -62 -118h-32q-5 148 95 148q28 0 54.5 -14t77.5 -51q28 -21 42.5 -30.5t33 -18t32.5 -8.5q68 0 63 115h32z" />
    <glyph glyph-name="uni00A0" unicode="&#xa0;" horiz-adv-x="161" 
 />
    <glyph glyph-name="exclamdown" unicode="&#xa1;" horiz-adv-x="251" 
d="M133 244q1 -17 24 -175t23 -286h-109q0 129 23.5 289t24.5 172h14zM61 402q0 28 18.5 46t46.5 18t46.5 -18t18.5 -46q0 -27 -18.5 -44.5t-46.5 -17.5t-46.5 17.5t-18.5 44.5z" />
    <glyph glyph-name="cent" unicode="&#xa2;" horiz-adv-x="460" 
d="M383 318q-7 56 -37.5 88t-75.5 34v-395q4 -1 13 -1q47 0 82.5 26.5t53.5 69.5l11 -3q-13 -65 -54.5 -104.5t-105.5 -45.5v-136h-27v135q-91 2 -150.5 69.5t-59.5 170.5q0 99 59 165t151 73v136h27v-135q80 -2 133 -32l-6 -115h-14zM121 244q0 -73 34 -126t88 -68v388
q-54 -10 -88 -64t-34 -130z" />
    <glyph glyph-name="sterling" unicode="&#xa3;" horiz-adv-x="625" 
d="M482 330h-217q4 -24 4 -37q0 -99 -144 -225q81 51 138 51q48 0 117.5 -29.5t100.5 -29.5q41 0 67.5 25t33.5 67l13 -3q-26 -163 -166 -163q-51 0 -128.5 33.5t-117.5 33.5q-56 0 -126 -53l-11 14q141 137 141 224q0 42 -27 92h-112v26h97q-15 27 -22.5 41.5t-15 40.5
t-7.5 51q0 84 63 138.5t160 54.5q92 0 152.5 -49.5t60.5 -122.5q0 -17 -3 -38h-92q12 37 12 67q0 48 -37.5 81.5t-92.5 33.5q-59 0 -98.5 -35.5t-39.5 -87.5q0 -28 12 -57.5t31.5 -63t27.5 -54.5h226v-26z" />
    <glyph glyph-name="currency" unicode="&#xa4;" horiz-adv-x="643" 
d="M322 23q-92 0 -156 66l-97 -97l-19 19l98 98q-48 61 -48 141q0 73 41 131l-91 91l19 19l88 -88q66 74 165 74t163 -74l88 88l19 -19l-90 -90q40 -59 40 -132q0 -80 -48 -141l98 -98l-19 -19l-96 96q-67 -65 -155 -65zM126 250q0 -84 57.5 -142t138.5 -58q79 0 136.5 58
t57.5 142t-57 142t-137 58q-81 0 -138.5 -58t-57.5 -142z" />
    <glyph glyph-name="yen" unicode="&#xa5;" horiz-adv-x="610" 
d="M480 151v-25h-145v-37q0 -42 20 -57t68 -18v-14h-265v14q47 3 67 18t20 57v37h-144v25h144v119h-144v25h144v36l-185 262q-24 35 -41 48t-39 13v14h268v-14q-88 0 -88 -36q0 -18 18 -42l145 -206l173 231q10 13 10 24q0 29 -80 29v14h203v-14q-36 0 -59.5 -16t-48.5 -49
l-186 -249v-45h145v-25h-145v-119h145z" />
    <glyph glyph-name="brokenbar" unicode="&#xa6;" horiz-adv-x="168" 
d="M97 768v-401h-27v401h27zM70 -192v401h27v-401h-27z" />
    <glyph glyph-name="section" unicode="&#xa7;" horiz-adv-x="720" 
d="M383 683q71 0 122 -15t98 -51l-17 -158h-15q-14 96 -55.5 146t-106.5 50q-47 0 -82 -27t-35 -78q0 -33 19.5 -63.5t37 -45.5t56.5 -45l106 -82q31 -24 47.5 -38.5t41.5 -44t37 -67.5t12 -84q0 -117 -82 -183t-234 -66q-81 0 -138.5 18t-116.5 58l17 161h15
q23 -104 71 -156.5t129 -52.5q58 0 92.5 26t34.5 77q0 26 -9 48t-28.5 42t-34.5 32.5t-42 31.5l-98 72q-28 20 -46 36t-44 47t-40 73.5t-14 93.5q0 118 80 181.5t222 63.5zM157 463q0 -34 9.5 -64t19 -48t34 -41t33.5 -30t39 -29l94 -67q27 -20 42.5 -33.5t37.5 -37
t32.5 -51t10.5 -59.5q0 -103 -103 -144q79 15 123 66t44 125q0 39 -10 70.5t-30.5 56t-36 38.5t-42.5 34l-105 77q-42 30 -64 49t-43 56t-21 80q0 54 28.5 89.5t71.5 53.5q-164 -33 -164 -191z" />
    <glyph glyph-name="dieresis" unicode="&#xa8;" horiz-adv-x="487" 
d="M159 554q-25 0 -42 16t-17 40q0 23 17 39t42 16q23 0 39.5 -16t16.5 -39q0 -24 -16.5 -40t-39.5 -16zM272 610q0 23 17 39t42 16q24 0 40 -16t16 -39q0 -24 -16 -40t-40 -16q-25 0 -42 16t-17 40z" />
    <glyph glyph-name="copyright" unicode="&#xa9;" 
d="M397 -14q-143 0 -245 102.5t-102 245.5t102 245.5t245 102.5q144 0 246.5 -102.5t102.5 -245.5t-102.5 -245.5t-246.5 -102.5zM75 333q0 -133 94 -227.5t227 -94.5q134 0 229.5 94.5t95.5 227.5q0 134 -95.5 229t-229.5 95q-133 0 -227 -95t-94 -229zM225 337
q0 83 51 136t129 53q73 0 124 -31l-10 -78h-7q-7 44 -35.5 68.5t-68.5 24.5q-54 0 -87 -44t-33 -119q0 -70 39 -115.5t98 -45.5q40 0 72 23t45 63l7 -2q-12 -60 -52 -94t-96 -34q-78 0 -127 54.5t-49 140.5z" />
    <glyph glyph-name="ordfeminine" unicode="&#xaa;" horiz-adv-x="341" 
d="M215 608q0 27 -14 42t-38 15q-22 0 -35.5 -16t-13.5 -40q0 -11 5 -28h-74q2 46 35 74.5t88 28.5q56 0 87 -27.5t31 -75.5v-132q0 -26 27 -30l12 -2v-11l-108 -29v73q-19 -71 -92 -71q-35 0 -57.5 19t-22.5 55q0 22 7 37.5t23.5 26t28 15t35.5 12.5q25 8 38 13.5
t25.5 18.5t12.5 32zM118 470q0 -51 40 -51q24 0 40.5 17.5t16.5 50.5v79q-7 -12 -42 -31q-32 -12 -43.5 -26.5t-11.5 -38.5z" />
    <glyph glyph-name="guillemotleft" unicode="&#xab;" horiz-adv-x="513" 
d="M247 253v16l212 183l7 -6l-127 -184l127 -185l-7 -7zM45 253v16l212 183l7 -6l-127 -184l127 -185l-7 -7z" />
    <glyph glyph-name="logicalnot" unicode="&#xac;" horiz-adv-x="564" 
d="M456 346v-221h-32v190h-384v31h416z" />
    <glyph glyph-name="registered" unicode="&#xae;" horiz-adv-x="518" 
d="M258 266q-86 0 -147 61t-61 147t61 147.5t147 61.5t148 -61.5t62 -147.5q0 -85 -62 -146.5t-148 -61.5zM66 474q0 -80 56.5 -136.5t135.5 -56.5q80 0 137 57t57 136q0 80 -57 137t-137 57q-79 0 -135.5 -57t-56.5 -137zM153 364v5q16 2 23 6.5t7 16.5v165q0 12 -7 16.5
t-23 6.5v4h101q93 0 93 -59q0 -51 -71 -57l56 -70q22 -27 48 -29v-5h-72l-84 106v-78q0 -21 29 -23v-5h-100zM224 476h26q26 0 40.5 13.5t14.5 35.5q0 23 -14.5 36.5t-40.5 13.5h-25z" />
    <glyph glyph-name="macron" unicode="&#xaf;" horiz-adv-x="471" 
d="M100 578v24h271v-24h-271z" />
    <glyph glyph-name="degree" unicode="&#xb0;" horiz-adv-x="360" 
d="M179 389q-58 0 -102 43.5t-44 102.5q0 62 44 104.5t106 42.5q59 0 101.5 -43t42.5 -104q0 -59 -43.5 -102.5t-104.5 -43.5zM66 535q0 -50 32 -83t81 -33q50 0 83.5 33t33.5 83t-33.5 84t-83.5 34q-49 0 -81 -33.5t-32 -84.5z" />
    <glyph glyph-name="plusminus" unicode="&#xb1;" horiz-adv-x="514" 
d="M241 543h32v-193h192v-31h-192v-192h-32v192h-192v31h192v193zM36 0v31h416v-31h-416z" />
    <glyph glyph-name="uni00B2" unicode="&#xb2;" horiz-adv-x="339" 
d="M23 357v8l32 33q5 6 24 25.5t25 26t22 24t22 25t18.5 23.5t17.5 25t13 23t11.5 25t6 24t2.5 25q0 34 -15.5 54t-42.5 20q-25 0 -40 -19.5t-15 -51.5q0 -23 9 -50h-81q-6 68 32.5 102t96.5 34t95.5 -30.5t37.5 -79.5q0 -21 -6.5 -40t-23.5 -38t-29.5 -31.5t-42.5 -32.5
t-43.5 -28.5t-50.5 -30.5h122q36 0 55 13t28 47h8l-17 -125h-271z" />
    <glyph glyph-name="uni00B3" unicode="&#xb3;" horiz-adv-x="330" 
d="M161 349q-57 0 -97.5 28.5t-37.5 83.5h72q-3 -12 -3 -23q0 -31 18.5 -52t47.5 -21q30 0 50 22t20 60q0 39 -21.5 63t-60.5 24q-13 0 -28 -3l-4 10l107 115h-61q-49 0 -74.5 -14t-35.5 -54h-8l14 144q39 -8 99 -8h153v-7l-159 -165q23 8 48 8q47 0 77 -29.5t30 -69.5
q0 -48 -41.5 -80t-104.5 -32z" />
    <glyph glyph-name="acute" unicode="&#xb4;" horiz-adv-x="374" 
d="M114 537h-14l60 160h117z" />
    <glyph glyph-name="uni00B5" unicode="&#xb5;" horiz-adv-x="527" 
d="M494 34l14 -1v-14l-139 -35v127q-19 -59 -60 -92t-98 -33q-89 0 -120 75q6 -134 74 -258h-92q0 31 2 138.5t2 188.5v-1v9v226q0 47 -47 51l-14 1v14l142 35v-320q0 -53 24 -78.5t65 -25.5q49 0 84 36t35 106v181q0 47 -47 51l-14 1v14l142 35v-381q0 -46 47 -50z" />
    <glyph glyph-name="paragraph" unicode="&#xb6;" horiz-adv-x="613" 
d="M274 238q-107 0 -170.5 58.5t-63.5 158.5q0 98 63.5 155.5t170.5 57.5h299v-14q-48 -3 -69 -19.5t-21 -60.5v-743h-35v809h-102v-809h-35v407h-37z" />
    <glyph glyph-name="periodcentered" unicode="&#xb7;" horiz-adv-x="252" 
d="M126 274q-28 0 -46.5 18t-18.5 46q0 27 18.5 44.5t46.5 17.5t46.5 -17.5t18.5 -44.5q0 -28 -18.5 -46t-46.5 -18z" />
    <glyph glyph-name="cedilla" unicode="&#xb8;" horiz-adv-x="381" 
d="M106 -171q29 -18 58 -18q50 0 50 40q0 38 -70 50l39 101h18l-21 -57q101 -19 101 -83q0 -33 -25 -53.5t-67 -20.5q-53 0 -89 33z" />
    <glyph glyph-name="uni00B9" unicode="&#xb9;" horiz-adv-x="208" 
d="M20 365q37 3 48 11.5t11 26.5l1 260h-60v8q79 20 125 58h7v-326q0 -20 11 -28t37 -10v-8h-180v8z" />
    <glyph glyph-name="ordmasculine" unicode="&#xba;" horiz-adv-x="349" 
d="M174 379q-63 0 -102 42t-39 110t39 110.5t102 42.5t102 -42.5t39 -110.5t-39 -110t-102 -42zM109 531q0 -133 65 -133q66 0 66 133q0 134 -66 134q-65 0 -65 -134z" />
    <glyph glyph-name="guillemotright" unicode="&#xbb;" horiz-adv-x="513" 
d="M266 253l-212 -183l-7 7l127 185l-127 184l7 6l212 -183v-16zM249 77l127 185l-127 184l7 6l212 -183v-16l-212 -183z" />
    <glyph glyph-name="onequarter" unicode="&#xbc;" horiz-adv-x="667" 
d="M20 265q37 3 48 11.5t11 26.5l1 260h-60v8q79 20 125 58h7v-326q0 -20 11 -28t37 -10v-8h-180v8zM124 0l380 668h28l-380 -668h-28zM348 95v7l175 265h64v-238h63v-34h-63v-34q0 -27 10 -38.5t38 -14.5v-8h-181v8q32 3 46 15t14 38v34h-166zM384 129h130v196z" />
    <glyph glyph-name="onehalf" unicode="&#xbd;" horiz-adv-x="741" 
d="M20 265q37 3 48 11.5t11 26.5l1 260h-60v8q79 20 125 58h7v-326q0 -20 11 -28t37 -10v-8h-180v8zM124 0l380 668h28l-380 -668h-28zM426 0v8l32 33q5 6 24 25.5t25 26t22 24t22 25t18.5 23.5t17.5 25t13 23t11.5 25t6 24t2.5 25q0 34 -15.5 54t-42.5 20q-25 0 -40 -19.5
t-15 -51.5q0 -23 9 -50h-81q-6 68 32.5 102t96.5 34t95.5 -30.5t37.5 -79.5q0 -21 -6.5 -40t-23.5 -38t-29.5 -31.5t-42.5 -32.5t-43.5 -28.5t-50.5 -30.5h122q36 0 55 13t28 47h8l-17 -125h-271z" />
    <glyph glyph-name="threequarters" unicode="&#xbe;" horiz-adv-x="749" 
d="M161 249q-57 0 -97.5 28.5t-37.5 83.5h72q-3 -12 -3 -23q0 -31 18.5 -52t47.5 -21q30 0 50 22t20 60q0 39 -21.5 63t-60.5 24q-13 0 -28 -3l-4 10l107 115h-61q-49 0 -74.5 -14t-35.5 -54h-8l14 144q39 -8 99 -8h153v-7l-159 -165q23 8 48 8q47 0 77 -29.5t30 -69.5
q0 -48 -41.5 -80t-104.5 -32zM206 0l380 668h28l-380 -668h-28zM430 95v7l175 265h64v-238h63v-34h-63v-34q0 -27 10 -38.5t38 -14.5v-8h-181v8q32 3 46 15t14 38v34h-166zM466 129h130v196z" />
    <glyph glyph-name="questiondown" unicode="&#xbf;" horiz-adv-x="468" 
d="M239 -230q-98 0 -153.5 39t-55.5 105q0 46 22.5 83.5t54.5 63t64 49.5t54.5 55.5t22.5 67.5q0 12 -1 19h14q16 -41 16 -74t-15.5 -61t-37.5 -49.5t-43.5 -44t-37 -54.5t-15.5 -69q0 -46 29 -74.5t78 -28.5q51 0 80 33.5t29 90.5q0 31 -9 65h100q3 -18 3 -36
q0 -83 -53.5 -131.5t-145.5 -48.5zM186 403q0 28 18.5 46t46.5 18t46.5 -18t18.5 -46q0 -27 -18.5 -44.5t-46.5 -17.5t-46.5 17.5t-18.5 44.5z" />
    <glyph glyph-name="Agrave" unicode="&#xc0;" horiz-adv-x="717" 
d="M601 115q21 -51 46.5 -74.5t69.5 -26.5v-14h-265v14q65 1 65 49q0 19 -10 42l-49 120h-265l-47 -115q-13 -31 -13 -50q0 -45 74 -46v-14h-207v14q46 2 71.5 25t46.5 75l234 569h14zM171 871h128l103 -134h-14zM204 253h243l-121 298z" />
    <glyph glyph-name="Aacute" unicode="&#xc1;" horiz-adv-x="717" 
d="M601 115q21 -51 46.5 -74.5t69.5 -26.5v-14h-265v14q65 1 65 49q0 19 -10 42l-49 120h-265l-47 -115q-13 -31 -13 -50q0 -45 74 -46v-14h-207v14q46 2 71.5 25t46.5 75l234 569h14zM204 253h243l-121 298zM324 738l103 134h128l-217 -134h-14z" />
    <glyph glyph-name="Acircumflex" unicode="&#xc2;" horiz-adv-x="717" 
d="M601 115q21 -51 46.5 -74.5t69.5 -26.5v-14h-265v14q65 1 65 49q0 19 -10 42l-49 120h-265l-47 -115q-13 -31 -13 -50q0 -45 74 -46v-14h-207v14q46 2 71.5 25t46.5 75l234 569h14zM204 253h243l-121 298zM211 751l110 121h86l107 -121h-15l-136 66l-138 -66h-14z" />
    <glyph glyph-name="Atilde" unicode="&#xc3;" horiz-adv-x="717" 
d="M601 115q21 -51 46.5 -74.5t69.5 -26.5v-14h-265v14q65 1 65 49q0 19 -10 42l-49 120h-265l-47 -115q-13 -31 -13 -50q0 -45 74 -46v-14h-207v14q46 2 71.5 25t46.5 75l234 569h14zM204 253h243l-121 298zM224 782v28q0 80 67 80q28 0 80.5 -26.5t74.5 -26.5q20 0 30 11
t13 40h11v-27q0 -80 -66 -80q-27 0 -80 26t-76 26q-20 0 -30 -10.5t-13 -40.5h-11z" />
    <glyph glyph-name="Adieresis" unicode="&#xc4;" horiz-adv-x="717" 
d="M601 115q21 -51 46.5 -74.5t69.5 -26.5v-14h-265v14q65 1 65 49q0 19 -10 42l-49 120h-265l-47 -115q-13 -31 -13 -50q0 -45 74 -46v-14h-207v14q46 2 71.5 25t46.5 75l234 569h14zM204 253h243l-121 298zM221 814q0 23 16.5 38.5t41.5 15.5q23 0 39 -16t16 -38
q0 -24 -16 -40t-39 -16q-25 0 -41.5 16t-16.5 40zM390 814q0 22 17 38t41 16t39.5 -15.5t15.5 -38.5q0 -24 -15.5 -40t-39.5 -16t-41 16t-17 40z" />
    <glyph glyph-name="Aring" unicode="&#xc5;" horiz-adv-x="717" 
d="M601 115q21 -51 46.5 -74.5t69.5 -26.5v-14h-265v14q65 1 65 49q0 19 -10 42l-49 120h-265l-47 -115q-13 -31 -13 -50q0 -45 74 -46v-14h-207v14q46 2 71.5 25t46.5 75l234 569h14zM204 253h243l-121 298zM267 830q0 38 27 63t68 25t68 -25t27 -63t-27.5 -63t-67.5 -25
q-41 0 -68 25t-27 63zM292 830q0 -29 20 -48.5t50 -19.5t50 19.5t20 48.5q0 30 -20 49t-50 19t-50 -19t-20 -49z" />
    <glyph glyph-name="AE" unicode="&#xc6;" horiz-adv-x="1011" 
d="M0 14q37 5 65 28t60 72l284 450q25 41 25 57q0 15 -16 22.5t-53 10.5v14h420q66 0 117 9l27 -184h-14q-19 75 -57 111t-112 36h-178v-283h163q46 0 65 22.5t21 73.5h14v-220h-14q-2 51 -21 73.5t-65 22.5h-163v-234q0 -36 13 -51.5t42 -15.5h135q74 0 112 36t57 111h14
l-27 -184q-51 9 -117 9h-409v14q47 2 68.5 19.5t21.5 61.5v130h-250l-73 -115q-25 -40 -25 -57q0 -34 76 -39v-14h-206v14zM245 253h233v369z" />
    <glyph glyph-name="Ccedilla" unicode="&#xc7;" horiz-adv-x="673" 
d="M566 490q-11 79 -62.5 122t-128.5 43q-103 0 -164.5 -81.5t-61.5 -222.5q0 -129 71.5 -212.5t181.5 -83.5q76 0 134 42t83 117l14 -3q-22 -102 -90.5 -161.5t-160.5 -64.5l-15 -40q101 -19 101 -83q0 -33 -25 -53.5t-67 -20.5q-53 0 -89 33l6 8q29 -18 58 -18q50 0 50 40
q0 38 -70 50l32 84q-139 1 -225.5 99t-87.5 252q0 154 91.5 250.5t230.5 96.5q132 0 221 -57l-13 -136h-14z" />
    <glyph glyph-name="Egrave" unicode="&#xc8;" horiz-adv-x="663" 
d="M578 175h14l-27 -184q-51 9 -116 9h-409v14q47 2 68.5 19.5t21.5 61.5v479q0 43 -22 60.5t-68 19.5v14h397q65 0 116 9l28 -184h-14q-20 75 -58 111t-112 36h-177v-283h154q51 0 72 22.5t23 73.5h14v-220h-14q-2 51 -23 73.5t-72 22.5h-154v-234q0 -36 13 -51.5t42 -15.5
h134q74 0 112 36t57 111zM144 871h128l103 -134h-14z" />
    <glyph glyph-name="Eacute" unicode="&#xc9;" horiz-adv-x="663" 
d="M578 175h14l-27 -184q-51 9 -116 9h-409v14q47 2 68.5 19.5t21.5 61.5v479q0 43 -22 60.5t-68 19.5v14h397q65 0 116 9l28 -184h-14q-20 75 -58 111t-112 36h-177v-283h154q51 0 72 22.5t23 73.5h14v-220h-14q-2 51 -23 73.5t-72 22.5h-154v-234q0 -36 13 -51.5t42 -15.5
h134q74 0 112 36t57 111zM297 738l103 134h128l-217 -134h-14z" />
    <glyph glyph-name="Ecircumflex" unicode="&#xca;" horiz-adv-x="663" 
d="M578 175h14l-27 -184q-51 9 -116 9h-409v14q47 2 68.5 19.5t21.5 61.5v479q0 43 -22 60.5t-68 19.5v14h397q65 0 116 9l28 -184h-14q-20 75 -58 111t-112 36h-177v-283h154q51 0 72 22.5t23 73.5h14v-220h-14q-2 51 -23 73.5t-72 22.5h-154v-234q0 -36 13 -51.5t42 -15.5
h134q74 0 112 36t57 111zM184 751l110 121h86l107 -121h-15l-136 66l-138 -66h-14z" />
    <glyph glyph-name="Edieresis" unicode="&#xcb;" horiz-adv-x="663" 
d="M578 175h14l-27 -184q-51 9 -116 9h-409v14q47 2 68.5 19.5t21.5 61.5v479q0 43 -22 60.5t-68 19.5v14h397q65 0 116 9l28 -184h-14q-20 75 -58 111t-112 36h-177v-283h154q51 0 72 22.5t23 73.5h14v-220h-14q-2 51 -23 73.5t-72 22.5h-154v-234q0 -36 13 -51.5t42 -15.5
h134q74 0 112 36t57 111zM194 814q0 23 16.5 38.5t41.5 15.5q23 0 39 -16t16 -38q0 -24 -16 -40t-39 -16q-25 0 -41.5 16t-16.5 40zM363 814q0 22 17 38t41 16t39.5 -15.5t15.5 -38.5q0 -24 -15.5 -40t-39.5 -16t-41 16t-17 40z" />
    <glyph glyph-name="Igrave" unicode="&#xcc;" horiz-adv-x="361" 
d="M45 14q48 3 69 19.5t21 61.5v479q0 44 -21 60.5t-69 19.5v14h270v-14q-48 -3 -69 -19.5t-21 -60.5v-479q0 -45 21 -61.5t69 -19.5v-14h-270v14zM-10 871h128l103 -134h-14z" />
    <glyph glyph-name="Iacute" unicode="&#xcd;" horiz-adv-x="361" 
d="M45 14q48 3 69 19.5t21 61.5v479q0 44 -21 60.5t-69 19.5v14h270v-14q-48 -3 -69 -19.5t-21 -60.5v-479q0 -45 21 -61.5t69 -19.5v-14h-270v14zM144 738l103 134h128l-217 -134h-14z" />
    <glyph glyph-name="Icircumflex" unicode="&#xce;" horiz-adv-x="361" 
d="M45 14q48 3 69 19.5t21 61.5v479q0 44 -21 60.5t-69 19.5v14h270v-14q-48 -3 -69 -19.5t-21 -60.5v-479q0 -45 21 -61.5t69 -19.5v-14h-270v14zM30 751l110 121h86l107 -121h-15l-136 66l-138 -66h-14z" />
    <glyph glyph-name="Idieresis" unicode="&#xcf;" horiz-adv-x="361" 
d="M45 14q48 3 69 19.5t21 61.5v479q0 44 -21 60.5t-69 19.5v14h270v-14q-48 -3 -69 -19.5t-21 -60.5v-479q0 -45 21 -61.5t69 -19.5v-14h-270v14zM41 814q0 23 16.5 38.5t41.5 15.5q23 0 39 -16t16 -38q0 -24 -16 -40t-39 -16q-25 0 -41.5 16t-16.5 40zM210 814q0 22 17 38
t41 16t39.5 -15.5t15.5 -38.5q0 -24 -15.5 -40t-39.5 -16t-41 16t-17 40z" />
    <glyph glyph-name="Eth" unicode="&#xd0;" horiz-adv-x="735" 
d="M40 14q50 3 70 17.5t20 57.5v233h-109v24h109v234q0 41 -20.5 56t-69.5 18v14h286q161 0 259.5 -92t98.5 -242t-94.5 -242t-248.5 -92h-301v14zM220 87q0 -33 17 -46t64 -13h40q111 0 178.5 84.5t67.5 221.5q0 138 -76 222t-202 84h-89v-294h108v-24h-108v-235z" />
    <glyph glyph-name="Ntilde" unicode="&#xd1;" horiz-adv-x="732" 
d="M483 668h214v-14q-39 -3 -58 -17t-19 -55v-597h-14l-441 584v-481q0 -18 5.5 -31t13.5 -20.5t23.5 -12t29 -6.5t36.5 -3v-15h-213v14q27 2 41 6.5t25 21t11 46.5v490q0 69 -97 76v14h165l387 -514v428q0 42 -26 55.5t-83 16.5v14zM245 782v28q0 80 67 80q28 0 80 -26.5
t75 -26.5q20 0 30 11t13 40h11v-27q0 -80 -66 -80q-27 0 -80 26t-76 26q-20 0 -30 -10.5t-13 -40.5h-11z" />
    <glyph glyph-name="Ograve" unicode="&#xd2;" horiz-adv-x="771" 
d="M386 -15q-149 0 -242.5 97t-93.5 252t93.5 252t242.5 97q148 0 241.5 -97t93.5 -252t-93.5 -252t-241.5 -97zM148 334q0 -147 64.5 -234t173.5 -87q108 0 172.5 87t64.5 234q0 148 -64.5 234.5t-172.5 86.5q-109 0 -173.5 -86.5t-64.5 -234.5zM197 871h128l103 -134h-14z
" />
    <glyph glyph-name="Oacute" unicode="&#xd3;" horiz-adv-x="771" 
d="M386 -15q-149 0 -242.5 97t-93.5 252t93.5 252t242.5 97q148 0 241.5 -97t93.5 -252t-93.5 -252t-241.5 -97zM148 334q0 -147 64.5 -234t173.5 -87q108 0 172.5 87t64.5 234q0 148 -64.5 234.5t-172.5 86.5q-109 0 -173.5 -86.5t-64.5 -234.5zM351 738l103 134h128
l-217 -134h-14z" />
    <glyph glyph-name="Ocircumflex" unicode="&#xd4;" horiz-adv-x="771" 
d="M386 -15q-149 0 -242.5 97t-93.5 252t93.5 252t242.5 97q148 0 241.5 -97t93.5 -252t-93.5 -252t-241.5 -97zM148 334q0 -147 64.5 -234t173.5 -87q108 0 172.5 87t64.5 234q0 148 -64.5 234.5t-172.5 86.5q-109 0 -173.5 -86.5t-64.5 -234.5zM237 751l110 121h86
l107 -121h-15l-136 66l-138 -66h-14z" />
    <glyph glyph-name="Otilde" unicode="&#xd5;" horiz-adv-x="771" 
d="M386 -15q-149 0 -242.5 97t-93.5 252t93.5 252t242.5 97q148 0 241.5 -97t93.5 -252t-93.5 -252t-241.5 -97zM148 334q0 -147 64.5 -234t173.5 -87q108 0 172.5 87t64.5 234q0 148 -64.5 234.5t-172.5 86.5q-109 0 -173.5 -86.5t-64.5 -234.5zM250 782v28q0 80 67 80
q29 0 81 -26.5t74 -26.5q20 0 30 11t13 40h11v-27q0 -80 -66 -80q-27 0 -80 26t-76 26q-20 0 -30 -10.5t-13 -40.5h-11z" />
    <glyph glyph-name="Odieresis" unicode="&#xd6;" horiz-adv-x="771" 
d="M386 -15q-149 0 -242.5 97t-93.5 252t93.5 252t242.5 97q148 0 241.5 -97t93.5 -252t-93.5 -252t-241.5 -97zM148 334q0 -147 64.5 -234t173.5 -87q108 0 172.5 87t64.5 234q0 148 -64.5 234.5t-172.5 86.5q-109 0 -173.5 -86.5t-64.5 -234.5zM248 814q0 23 16.5 38.5
t41.5 15.5q23 0 39 -16t16 -38q0 -24 -16 -40t-39 -16q-25 0 -41.5 16t-16.5 40zM417 814q0 22 17 38t41 16t39.5 -15.5t15.5 -38.5q0 -24 -15.5 -40t-39.5 -16t-41 16t-17 40z" />
    <glyph glyph-name="multiply" unicode="&#xd7;" horiz-adv-x="466" 
d="M46 500l21 22l166 -166l166 166l22 -21l-166 -166l165 -166l-21 -22l-166 166l-165 -165l-22 21l166 166z" />
    <glyph glyph-name="Oslash" unicode="&#xd8;" horiz-adv-x="738" 
d="M386 -15q-72 0 -136 25l-33 -73l-20 9l33 73q-84 41 -132 124t-48 191q0 155 93.5 252t242.5 97q72 0 134 -25l33 74l21 -9l-34 -74q85 -41 133 -123.5t48 -191.5q0 -155 -93.5 -252t-241.5 -97zM148 334q0 -189 101 -273l254 561q-52 33 -117 33q-109 0 -173.5 -86.5
t-64.5 -234.5zM267 47q53 -34 119 -34q108 0 172.5 87t64.5 234q0 190 -101 274z" />
    <glyph glyph-name="Ugrave" unicode="&#xd9;" horiz-adv-x="748" 
d="M510 668h208v-14q-49 -3 -69.5 -18t-20.5 -56v-327q0 -132 -62.5 -199.5t-182.5 -67.5q-126 0 -194.5 67.5t-68.5 194.5v332q0 41 -20.5 56t-69.5 18v14h270v-14q-49 -3 -69.5 -18t-20.5 -56v-325q0 -109 54.5 -167t149.5 -58q89 0 137.5 57t48.5 167v326q0 41 -20.5 56
t-69.5 18v14zM210 871h128l103 -134h-14z" />
    <glyph glyph-name="Uacute" unicode="&#xda;" horiz-adv-x="748" 
d="M510 668h208v-14q-49 -3 -69.5 -18t-20.5 -56v-327q0 -132 -62.5 -199.5t-182.5 -67.5q-126 0 -194.5 67.5t-68.5 194.5v332q0 41 -20.5 56t-69.5 18v14h270v-14q-49 -3 -69.5 -18t-20.5 -56v-325q0 -109 54.5 -167t149.5 -58q89 0 137.5 57t48.5 167v326q0 41 -20.5 56
t-69.5 18v14zM363 738l103 134h128l-217 -134h-14z" />
    <glyph glyph-name="Ucircumflex" unicode="&#xdb;" horiz-adv-x="748" 
d="M510 668h208v-14q-49 -3 -69.5 -18t-20.5 -56v-327q0 -132 -62.5 -199.5t-182.5 -67.5q-126 0 -194.5 67.5t-68.5 194.5v332q0 41 -20.5 56t-69.5 18v14h270v-14q-49 -3 -69.5 -18t-20.5 -56v-325q0 -109 54.5 -167t149.5 -58q89 0 137.5 57t48.5 167v326q0 41 -20.5 56
t-69.5 18v14zM250 751l110 121h86l107 -121h-15l-136 66l-138 -66h-14z" />
    <glyph glyph-name="Udieresis" unicode="&#xdc;" horiz-adv-x="748" 
d="M510 668h208v-14q-49 -3 -69.5 -18t-20.5 -56v-327q0 -132 -62.5 -199.5t-182.5 -67.5q-126 0 -194.5 67.5t-68.5 194.5v332q0 41 -20.5 56t-69.5 18v14h270v-14q-49 -3 -69.5 -18t-20.5 -56v-325q0 -109 54.5 -167t149.5 -58q89 0 137.5 57t48.5 167v326q0 41 -20.5 56
t-69.5 18v14zM260 814q0 23 16.5 38.5t41.5 15.5q23 0 39 -16t16 -38q0 -24 -16 -40t-39 -16q-25 0 -41.5 16t-16.5 40zM429 814q0 22 17 38t41 16t39.5 -15.5t15.5 -38.5q0 -24 -15.5 -40t-39.5 -16t-41 16t-17 40z" />
    <glyph glyph-name="Yacute" unicode="&#xdd;" horiz-adv-x="623" 
d="M165 14q47 3 67 18t20 57v197l-172 285q-48 80 -100 83v14h262v-14q-73 -1 -73 -39q0 -17 16 -44l147 -246l152 246q20 32 20 50q0 32 -69 33v14h208v-14q-74 -1 -126 -83l-175 -282v-200q0 -42 20 -57t68 -18v-14h-265v14zM275 738l103 134h128l-217 -134h-14z" />
    <glyph glyph-name="Thorn" unicode="&#xde;" horiz-adv-x="641" 
d="M330 525q122 0 191 -46.5t69 -140.5q0 -93 -69 -140.5t-191 -47.5h-110v-55q0 -46 23.5 -62t86.5 -19v-14h-290v14q49 3 69.5 19.5t20.5 61.5v479q0 44 -21 60.5t-69 19.5v14h270v-14q-48 -3 -69 -19.5t-21 -60.5v-49h110zM220 178h93q87 0 133.5 43.5t46.5 116.5
t-46.5 116t-133.5 43h-93v-319z" />
    <glyph glyph-name="germandbls" unicode="&#xdf;" horiz-adv-x="579" 
d="M178 68q0 -27 15.5 -38t51.5 -17v-13h-211v13q32 5 48 16.5t16 38.5v357h-76v25h76v32q0 201 196 201q97 0 145 -50.5t48 -158.5v-35q-74 0 -105 -19t-31 -59q0 -27 20.5 -48t49.5 -37.5t58 -35t49.5 -50t20.5 -72.5q0 -63 -39 -97.5t-105 -34.5q-45 0 -82 14t-54 33
l8 117h14q31 -139 114 -139q36 0 58 19t22 59q0 31 -20.5 53.5t-49.5 37.5t-57.5 32t-49 46.5t-20.5 71.5q0 104 125 128q-1 108 -29.5 154t-91.5 46q-55 0 -84.5 -34.5t-29.5 -116.5v-439z" />
    <glyph glyph-name="agrave" unicode="&#xe0;" horiz-adv-x="477" 
d="M177 -15q-59 0 -95.5 33.5t-36.5 86.5q0 50 28.5 81t69 43.5t80.5 23t68.5 31.5t28.5 57q0 44 -26.5 71.5t-69.5 27.5t-68.5 -28t-25.5 -71q0 -19 6 -39h-91q2 70 52 116.5t133 46.5q79 0 125 -42.5t46 -114.5v-224q0 -46 47 -50l14 -1v-14l-140 -35v120
q-36 -119 -145 -119zM93 697h117l60 -160h-14zM131 117q0 -36 23 -60t58 -24q42 0 75 35.5t33 93.5v120q-12 -23 -44.5 -38t-63.5 -22.5t-56 -34t-25 -70.5z" />
    <glyph glyph-name="aacute" unicode="&#xe1;" horiz-adv-x="477" 
d="M177 -15q-59 0 -95.5 33.5t-36.5 86.5q0 50 28.5 81t69 43.5t80.5 23t68.5 31.5t28.5 57q0 44 -26.5 71.5t-69.5 27.5t-68.5 -28t-25.5 -71q0 -19 6 -39h-91q2 70 52 116.5t133 46.5q79 0 125 -42.5t46 -114.5v-224q0 -46 47 -50l14 -1v-14l-140 -35v120
q-36 -119 -145 -119zM131 117q0 -36 23 -60t58 -24q42 0 75 35.5t33 93.5v120q-12 -23 -44.5 -38t-63.5 -22.5t-56 -34t-25 -70.5zM205 537l60 160h117l-163 -160h-14z" />
    <glyph glyph-name="acircumflex" unicode="&#xe2;" horiz-adv-x="477" 
d="M177 -15q-59 0 -95.5 33.5t-36.5 86.5q0 50 28.5 81t69 43.5t80.5 23t68.5 31.5t28.5 57q0 44 -26.5 71.5t-69.5 27.5t-68.5 -28t-25.5 -71q0 -19 6 -39h-91q2 70 52 116.5t133 46.5q79 0 125 -42.5t46 -114.5v-224q0 -46 47 -50l14 -1v-14l-140 -35v120
q-36 -119 -145 -119zM87 537l99 141h88l98 -141h-13l-128 87l-130 -87h-14zM131 117q0 -36 23 -60t58 -24q42 0 75 35.5t33 93.5v120q-12 -23 -44.5 -38t-63.5 -22.5t-56 -34t-25 -70.5z" />
    <glyph glyph-name="atilde" unicode="&#xe3;" horiz-adv-x="477" 
d="M177 -15q-59 0 -95.5 33.5t-36.5 86.5q0 50 28.5 81t69 43.5t80.5 23t68.5 31.5t28.5 57q0 44 -26.5 71.5t-69.5 27.5t-68.5 -28t-25.5 -71q0 -19 6 -39h-91q2 70 52 116.5t133 46.5q79 0 125 -42.5t46 -114.5v-224q0 -46 47 -50l14 -1v-14l-140 -35v120
q-36 -119 -145 -119zM91 564v28q0 80 67 80q27 0 78 -26t74 -26q20 0 29.5 10.5t12.5 40.5h11v-28q0 -80 -66 -80q-27 0 -78.5 26t-74.5 26q-20 0 -29.5 -10.5t-12.5 -40.5h-11zM131 117q0 -36 23 -60t58 -24q42 0 75 35.5t33 93.5v120q-12 -23 -44.5 -38t-63.5 -22.5
t-56 -34t-25 -70.5z" />
    <glyph glyph-name="adieresis" unicode="&#xe4;" horiz-adv-x="477" 
d="M177 -15q-59 0 -95.5 33.5t-36.5 86.5q0 50 28.5 81t69 43.5t80.5 23t68.5 31.5t28.5 57q0 44 -26.5 71.5t-69.5 27.5t-68.5 -28t-25.5 -71q0 -19 6 -39h-91q2 70 52 116.5t133 46.5q79 0 125 -42.5t46 -114.5v-224q0 -46 47 -50l14 -1v-14l-140 -35v120
q-36 -119 -145 -119zM86 610q0 23 17 39t42 16q23 0 39.5 -16t16.5 -39q0 -24 -16.5 -40t-39.5 -16q-25 0 -42 16t-17 40zM131 117q0 -36 23 -60t58 -24q42 0 75 35.5t33 93.5v120q-12 -23 -44.5 -38t-63.5 -22.5t-56 -34t-25 -70.5zM258 610q0 23 17 39t42 16q24 0 40 -16
t16 -39q0 -24 -16 -40t-40 -16q-25 0 -42 16t-17 40z" />
    <glyph glyph-name="aring" unicode="&#xe5;" horiz-adv-x="477" 
d="M177 -15q-59 0 -95.5 33.5t-36.5 86.5q0 50 28.5 81t69 43.5t80.5 23t68.5 31.5t28.5 57q0 44 -26.5 71.5t-69.5 27.5t-68.5 -28t-25.5 -71q0 -19 6 -39h-91q2 70 52 116.5t133 46.5q79 0 125 -42.5t46 -114.5v-224q0 -46 47 -50l14 -1v-14l-140 -35v120
q-36 -119 -145 -119zM131 117q0 -36 23 -60t58 -24q42 0 75 35.5t33 93.5v120q-12 -23 -44.5 -38t-63.5 -22.5t-56 -34t-25 -70.5zM135 626q0 38 27 63t68 25t68 -25t27 -63t-27.5 -63t-67.5 -25q-41 0 -68 25t-27 63zM160 626q0 -29 20 -48.5t50 -19.5t50 19.5t20 48.5
q0 30 -20 49t-50 19t-50 -19t-20 -49z" />
    <glyph glyph-name="ae" unicode="&#xe6;" horiz-adv-x="759" 
d="M320 341q0 44 -26.5 71.5t-69.5 27.5t-68.5 -28t-25.5 -71q0 -19 6 -39h-91q2 70 52 116.5t133 46.5q105 0 146 -73q62 73 169 73q79 0 126 -44t47 -121q0 -10 -2 -32h-312v-9q-2 -98 42 -156t123 -58q49 0 85 27.5t52 68.5l12 -3q-14 -71 -64 -111.5t-124 -40.5
q-71 0 -123 38.5t-73 105.5q-11 -73 -55.5 -109t-101.5 -36q-59 0 -95.5 33.5t-36.5 86.5q0 50 28.5 81t69 43.5t80.5 23t68.5 31.5t28.5 57zM131 117q0 -36 22.5 -58t58.5 -22q44 0 76 37t32 110v97q-11 -23 -44 -37.5t-64 -22.5t-56 -34t-25 -70zM406 293h226q2 18 2 27
q0 56 -28.5 88t-74.5 32q-50 0 -83.5 -40t-41.5 -107z" />
    <glyph glyph-name="ccedilla" unicode="&#xe7;" horiz-adv-x="460" 
d="M383 318q-7 58 -39.5 90t-79.5 32q-62 0 -102.5 -56.5t-40.5 -139.5q0 -86 46 -143t116 -57q47 0 82.5 26.5t53.5 69.5l11 -3q-14 -70 -61.5 -110.5t-120.5 -40.5h-8l-15 -41q101 -19 101 -83q0 -33 -25 -53.5t-67 -20.5q-53 0 -89 33l6 8q29 -18 58 -18q50 0 50 40
q0 38 -70 50l33 86q-83 10 -136 76t-53 163q0 105 65 172t164 67q85 0 141 -32l-6 -115h-14z" />
    <glyph glyph-name="egrave" unicode="&#xe8;" horiz-adv-x="472" 
d="M117 259q-2 -98 42 -156t123 -58q49 0 85 27.5t52 68.5l12 -3q-14 -71 -64 -111.5t-124 -40.5q-93 0 -151.5 65t-58.5 168q0 114 62.5 180t162.5 66q79 0 126 -44t47 -121q0 -10 -2 -32h-312v-9zM109 697h117l60 -160h-14zM119 293h226q2 18 2 27q0 56 -28.5 88t-74.5 32
q-50 0 -83.5 -40t-41.5 -107z" />
    <glyph glyph-name="eacute" unicode="&#xe9;" horiz-adv-x="472" 
d="M117 259q-2 -98 42 -156t123 -58q49 0 85 27.5t52 68.5l12 -3q-14 -71 -64 -111.5t-124 -40.5q-93 0 -151.5 65t-58.5 168q0 114 62.5 180t162.5 66q79 0 126 -44t47 -121q0 -10 -2 -32h-312v-9zM119 293h226q2 18 2 27q0 56 -28.5 88t-74.5 32q-50 0 -83.5 -40
t-41.5 -107zM221 537l60 160h117l-163 -160h-14z" />
    <glyph glyph-name="ecircumflex" unicode="&#xea;" horiz-adv-x="472" 
d="M117 259q-2 -98 42 -156t123 -58q49 0 85 27.5t52 68.5l12 -3q-14 -71 -64 -111.5t-124 -40.5q-93 0 -151.5 65t-58.5 168q0 114 62.5 180t162.5 66q79 0 126 -44t47 -121q0 -10 -2 -32h-312v-9zM103 537l99 141h88l98 -141h-13l-128 87l-130 -87h-14zM119 293h226
q2 18 2 27q0 56 -28.5 88t-74.5 32q-50 0 -83.5 -40t-41.5 -107z" />
    <glyph glyph-name="edieresis" unicode="&#xeb;" horiz-adv-x="472" 
d="M117 259q-2 -98 42 -156t123 -58q49 0 85 27.5t52 68.5l12 -3q-14 -71 -64 -111.5t-124 -40.5q-93 0 -151.5 65t-58.5 168q0 114 62.5 180t162.5 66q79 0 126 -44t47 -121q0 -10 -2 -32h-312v-9zM102 610q0 23 17 39t42 16q23 0 39.5 -16t16.5 -39q0 -24 -16.5 -40
t-39.5 -16q-25 0 -42 16t-17 40zM119 293h226q2 18 2 27q0 56 -28.5 88t-74.5 32q-50 0 -83.5 -40t-41.5 -107zM274 610q0 23 17 39t42 16q24 0 40 -16t16 -39q0 -24 -16 -40t-40 -16q-25 0 -42 16t-17 40z" />
    <glyph glyph-name="igrave" unicode="&#xec;" horiz-adv-x="261" 
d="M172 67q0 -24 14 -36t46 -17v-14h-200v14q32 5 46 17t14 36v297q0 47 -48 51l-14 1v14l142 35v-398zM-5 697h117l60 -160h-14z" />
    <glyph glyph-name="iacute" unicode="&#xed;" horiz-adv-x="261" 
d="M172 67q0 -24 14 -36t46 -17v-14h-200v14q32 5 46 17t14 36v297q0 47 -48 51l-14 1v14l142 35v-398zM107 537l60 160h117l-163 -160h-14z" />
    <glyph glyph-name="icircumflex" unicode="&#xee;" horiz-adv-x="261" 
d="M172 67q0 -24 14 -36t46 -17v-14h-200v14q32 5 46 17t14 36v297q0 47 -48 51l-14 1v14l142 35v-398zM-12 537l99 141h88l98 -141h-13l-128 87l-130 -87h-14z" />
    <glyph glyph-name="idieresis" unicode="&#xef;" horiz-adv-x="261" 
d="M172 67q0 -24 14 -36t46 -17v-14h-200v14q32 5 46 17t14 36v297q0 47 -48 51l-14 1v14l142 35v-398zM-12 610q0 23 17 39t42 16q23 0 39.5 -16t16.5 -39q0 -24 -16.5 -40t-39.5 -16q-25 0 -42 16t-17 40zM160 610q0 23 17 39t42 16q24 0 40 -16t16 -39q0 -24 -16 -40
t-40 -16q-25 0 -42 16t-17 40z" />
    <glyph glyph-name="eth" unicode="&#xf0;" horiz-adv-x="516" 
d="M248 11q126 0 126 214q0 100 -31 157.5t-97 57.5q-60 0 -92.5 -54.5t-32.5 -157.5q0 -106 33 -161.5t94 -55.5zM33 224q0 106 54 173.5t151 67.5q95 0 136 -71q-11 134 -74 196l-82 -56l-13 20l77 51q-67 49 -191 53v25q150 -7 227 -51l80 52l11 -18l-70 -47
q127 -87 127 -321q0 -64 -10.5 -117t-34 -99t-67.5 -71.5t-106 -25.5q-96 0 -155.5 65t-59.5 174z" />
    <glyph glyph-name="ntilde" unicode="&#xf1;" horiz-adv-x="542" 
d="M462 67q0 -24 13.5 -36.5t46.5 -16.5v-14h-201v14q32 5 46 17t14 36v239q0 53 -24.5 78.5t-65.5 25.5q-48 0 -83.5 -36t-35.5 -106v-201q0 -24 14 -36t46 -17v-14h-200v14q32 5 46 17t14 36v297q0 47 -48 51l-14 1v14l142 35v-118q20 57 60.5 87.5t94.5 30.5
q62 0 98.5 -39.5t36.5 -112.5v-246zM136 564v28q0 80 67 80q27 0 78 -26t74 -26q20 0 29.5 10.5t12.5 40.5h11v-28q0 -80 -66 -80q-27 0 -78.5 26t-74.5 26q-20 0 -29.5 -10.5t-12.5 -40.5h-11z" />
    <glyph glyph-name="ograve" unicode="&#xf2;" horiz-adv-x="496" 
d="M248 -14q-96 0 -155.5 66.5t-59.5 173.5t59.5 173t155.5 66t155 -66t59 -173t-59 -173.5t-155 -66.5zM112 697h117l60 -160h-14zM121 226q0 -102 33.5 -158.5t93.5 -56.5q59 0 92.5 56.5t33.5 158.5t-33.5 158t-92.5 56q-60 0 -93.5 -56.5t-33.5 -157.5z" />
    <glyph glyph-name="oacute" unicode="&#xf3;" horiz-adv-x="496" 
d="M248 -14q-96 0 -155.5 66.5t-59.5 173.5t59.5 173t155.5 66t155 -66t59 -173t-59 -173.5t-155 -66.5zM121 226q0 -102 33.5 -158.5t93.5 -56.5q59 0 92.5 56.5t33.5 158.5t-33.5 158t-92.5 56q-60 0 -93.5 -56.5t-33.5 -157.5zM224 537l60 160h117l-163 -160h-14z" />
    <glyph glyph-name="ocircumflex" unicode="&#xf4;" horiz-adv-x="496" 
d="M248 -14q-96 0 -155.5 66.5t-59.5 173.5t59.5 173t155.5 66t155 -66t59 -173t-59 -173.5t-155 -66.5zM105 537l99 141h88l98 -141h-13l-128 87l-130 -87h-14zM121 226q0 -102 33.5 -158.5t93.5 -56.5q59 0 92.5 56.5t33.5 158.5t-33.5 158t-92.5 56q-60 0 -93.5 -56.5
t-33.5 -157.5z" />
    <glyph glyph-name="otilde" unicode="&#xf5;" horiz-adv-x="496" 
d="M248 -14q-96 0 -155.5 66.5t-59.5 173.5t59.5 173t155.5 66t155 -66t59 -173t-59 -173.5t-155 -66.5zM110 564v28q0 80 67 80q27 0 78 -26t74 -26q20 0 29.5 10.5t12.5 40.5h11v-28q0 -80 -66 -80q-27 0 -78.5 26t-74.5 26q-20 0 -29.5 -10.5t-12.5 -40.5h-11zM121 226
q0 -102 33.5 -158.5t93.5 -56.5q59 0 92.5 56.5t33.5 158.5t-33.5 158t-92.5 56q-60 0 -93.5 -56.5t-33.5 -157.5z" />
    <glyph glyph-name="odieresis" unicode="&#xf6;" horiz-adv-x="496" 
d="M248 -14q-96 0 -155.5 66.5t-59.5 173.5t59.5 173t155.5 66t155 -66t59 -173t-59 -173.5t-155 -66.5zM105 610q0 23 17 39t42 16q23 0 39.5 -16t16.5 -39q0 -24 -16.5 -40t-39.5 -16q-25 0 -42 16t-17 40zM121 226q0 -102 33.5 -158.5t93.5 -56.5q59 0 92.5 56.5
t33.5 158.5t-33.5 158t-92.5 56q-60 0 -93.5 -56.5t-33.5 -157.5zM277 610q0 23 17 39t42 16q24 0 40 -16t16 -39q0 -24 -16 -40t-40 -16q-25 0 -42 16t-17 40z" />
    <glyph glyph-name="divide" unicode="&#xf7;" horiz-adv-x="507" 
d="M259 141q-25 0 -41 15.5t-16 38.5t16 38.5t41 15.5q23 0 39 -15.5t16 -38.5t-16 -38.5t-39 -15.5zM46 319v31h416v-31h-416zM202 479q0 23 16 38.5t41 15.5q23 0 39 -15.5t16 -38.5t-16 -38.5t-39 -15.5q-25 0 -41 15.5t-16 38.5z" />
    <glyph glyph-name="oslash" unicode="&#xf8;" horiz-adv-x="496" 
d="M248 -14q-50 0 -89 18l-25 -56l-20 8l26 58q-51 29 -79 84.5t-28 127.5q0 107 59.5 173t155.5 66q49 0 88 -18l28 63l21 -8l-29 -65q50 -29 78 -84t28 -127q0 -107 -59 -173.5t-155 -66.5zM121 226q0 -114 41 -169l157 355q-30 28 -71 28q-60 0 -93.5 -56.5t-33.5 -157.5
zM177 39q31 -28 71 -28q59 0 92.5 56.5t33.5 158.5q0 111 -39 167z" />
    <glyph glyph-name="ugrave" unicode="&#xf9;" horiz-adv-x="527" 
d="M494 34l14 -1v-14l-139 -35v127q-19 -59 -60 -92t-98 -33q-62 0 -98 39t-36 113v226q0 47 -47 51l-14 1v14l142 35v-320q0 -53 24 -78.5t65 -25.5q49 0 84 36t35 106v181q0 47 -47 51l-14 1v14l142 35v-381q0 -46 47 -50zM124 697h117l60 -160h-14z" />
    <glyph glyph-name="uacute" unicode="&#xfa;" horiz-adv-x="527" 
d="M494 34l14 -1v-14l-139 -35v127q-19 -59 -60 -92t-98 -33q-62 0 -98 39t-36 113v226q0 47 -47 51l-14 1v14l142 35v-320q0 -53 24 -78.5t65 -25.5q49 0 84 36t35 106v181q0 47 -47 51l-14 1v14l142 35v-381q0 -46 47 -50zM236 537l60 160h117l-163 -160h-14z" />
    <glyph glyph-name="ucircumflex" unicode="&#xfb;" horiz-adv-x="527" 
d="M494 34l14 -1v-14l-139 -35v127q-19 -59 -60 -92t-98 -33q-62 0 -98 39t-36 113v226q0 47 -47 51l-14 1v14l142 35v-320q0 -53 24 -78.5t65 -25.5q49 0 84 36t35 106v181q0 47 -47 51l-14 1v14l142 35v-381q0 -46 47 -50zM117 537l99 141h88l98 -141h-13l-128 87
l-130 -87h-14z" />
    <glyph glyph-name="udieresis" unicode="&#xfc;" horiz-adv-x="527" 
d="M494 34l14 -1v-14l-139 -35v127q-19 -59 -60 -92t-98 -33q-62 0 -98 39t-36 113v226q0 47 -47 51l-14 1v14l142 35v-320q0 -53 24 -78.5t65 -25.5q49 0 84 36t35 106v181q0 47 -47 51l-14 1v14l142 35v-381q0 -46 47 -50zM117 610q0 23 17 39t42 16q23 0 39.5 -16
t16.5 -39q0 -24 -16.5 -40t-39.5 -16q-25 0 -42 16t-17 40zM289 610q0 23 17 39t42 16q24 0 40 -16t16 -39q0 -24 -16 -40t-40 -16q-25 0 -42 16t-17 40z" />
    <glyph glyph-name="yacute" unicode="&#xfd;" horiz-adv-x="451" 
d="M1 -106q39 -34 87 -34q32 0 57 25.5t48 80.5l15 37l-152 365q-28 66 -66 69v13h201v-13q-56 -3 -56 -35q0 -12 5 -23l111 -273l105 252q11 23 11 41q0 34 -59 38v13h151v-13q-43 -6 -76 -82l-165 -394q-40 -94 -81.5 -133.5t-101.5 -39.5q-29 0 -65 18zM205 538l60 160
h117l-163 -160h-14z" />
    <glyph glyph-name="thorn" unicode="&#xfe;" horiz-adv-x="548" 
d="M323 465q85 0 137 -65t52 -172q0 -116 -61.5 -179.5t-149.5 -63.5q-73 0 -121 40v-155q0 -25 20 -37.5t66 -15.5v-14h-227v14q33 4 46.5 16.5t13.5 36.5v726q0 47 -47 51l-14 1v14l142 35v-347q16 56 53 85.5t90 29.5zM180 154q0 -63 31 -103.5t85 -40.5q63 0 95 56
t32 146q0 92 -34.5 145.5t-90.5 53.5q-51 0 -84.5 -36.5t-33.5 -110.5v-110z" />
    <glyph glyph-name="ydieresis" unicode="&#xff;" horiz-adv-x="451" 
d="M1 -106q39 -34 87 -34q32 0 57 25.5t48 80.5l15 37l-152 365q-28 66 -66 69v13h201v-13q-56 -3 -56 -35q0 -12 5 -23l111 -273l105 252q11 23 11 41q0 34 -59 38v13h151v-13q-43 -6 -76 -82l-165 -394q-40 -94 -81.5 -133.5t-101.5 -39.5q-29 0 -65 18zM86 611
q0 23 17 39t42 16q23 0 39.5 -16t16.5 -39q0 -24 -16.5 -40t-39.5 -16q-25 0 -42 16t-17 40zM258 611q0 23 17 39t42 16q24 0 40 -16t16 -39q0 -24 -16 -40t-40 -16q-25 0 -42 16t-17 40z" />
    <glyph glyph-name="Amacron" unicode="&#x100;" horiz-adv-x="717" 
d="M601 115q21 -51 46.5 -74.5t69.5 -26.5v-14h-265v14q65 1 65 49q0 19 -10 42l-49 120h-265l-47 -115q-13 -31 -13 -50q0 -45 74 -46v-14h-207v14q46 2 71.5 25t46.5 75l234 569h14zM204 253h243l-121 298zM226 782v24h271v-24h-271z" />
    <glyph glyph-name="amacron" unicode="&#x101;" horiz-adv-x="477" 
d="M177 -15q-59 0 -95.5 33.5t-36.5 86.5q0 50 28.5 81t69 43.5t80.5 23t68.5 31.5t28.5 57q0 44 -26.5 71.5t-69.5 27.5t-68.5 -28t-25.5 -71q0 -19 6 -39h-91q2 70 52 116.5t133 46.5q79 0 125 -42.5t46 -114.5v-224q0 -46 47 -50l14 -1v-14l-140 -35v120
q-36 -119 -145 -119zM95 578v24h271v-24h-271zM131 117q0 -36 23 -60t58 -24q42 0 75 35.5t33 93.5v120q-12 -23 -44.5 -38t-63.5 -22.5t-56 -34t-25 -70.5z" />
    <glyph glyph-name="Abreve" unicode="&#x102;" horiz-adv-x="717" 
d="M601 115q21 -51 46.5 -74.5t69.5 -26.5v-14h-265v14q65 1 65 49q0 19 -10 42l-49 120h-265l-47 -115q-13 -31 -13 -50q0 -45 74 -46v-14h-207v14q46 2 71.5 25t46.5 75l234 569h14zM204 253h243l-121 298zM232 875h12q9 -74 117 -74q110 0 119 74h12q-1 -60 -34.5 -95
t-96.5 -35q-62 0 -95.5 35t-33.5 95z" />
    <glyph glyph-name="abreve" unicode="&#x103;" horiz-adv-x="477" 
d="M177 -15q-59 0 -95.5 33.5t-36.5 86.5q0 50 28.5 81t69 43.5t80.5 23t68.5 31.5t28.5 57q0 44 -26.5 71.5t-69.5 27.5t-68.5 -28t-25.5 -71q0 -19 6 -39h-91q2 70 52 116.5t133 46.5q79 0 125 -42.5t46 -114.5v-224q0 -46 47 -50l14 -1v-14l-140 -35v120
q-36 -119 -145 -119zM111 689h12q5 -88 107 -88q104 0 109 88h12q1 -71 -30.5 -109t-90.5 -38q-58 0 -89 38t-30 109zM131 117q0 -36 23 -60t58 -24q42 0 75 35.5t33 93.5v120q-12 -23 -44.5 -38t-63.5 -22.5t-56 -34t-25 -70.5z" />
    <glyph glyph-name="Aogonek" unicode="&#x104;" horiz-adv-x="717" 
d="M601 115q21 -51 46.5 -74.5t69.5 -26.5v-14h-135q-78 -57 -78 -118q0 -26 15.5 -42t39.5 -16q38 0 71 42l8 -4q-14 -34 -41.5 -54t-59.5 -20q-42 0 -67 21t-25 56q0 80 112 135h-105v14q65 1 65 49q0 19 -10 42l-49 120h-265l-47 -115q-13 -31 -13 -50q0 -45 74 -46v-14
h-207v14q46 2 71.5 25t46.5 75l234 569h14zM204 253h243l-121 298z" />
    <glyph glyph-name="aogonek" unicode="&#x105;" horiz-adv-x="477" 
d="M177 -15q-59 0 -95.5 33.5t-36.5 86.5q0 50 28.5 81t69 43.5t80.5 23t68.5 31.5t28.5 57q0 44 -26.5 71.5t-69.5 27.5t-68.5 -28t-25.5 -71q0 -19 6 -39h-91q2 70 52 116.5t133 46.5q79 0 125 -42.5t46 -114.5v-224q0 -46 47 -50l14 -1v-14l-108 -27q-30 -22 -48.5 -52
t-18.5 -58q0 -26 15.5 -42t39.5 -16q38 0 71 42l8 -4q-14 -34 -41.5 -54t-59.5 -20q-42 0 -67 21t-25 56q0 36 25.5 68.5t68.5 53.5v117q-36 -119 -145 -119zM131 117q0 -36 23 -60t58 -24q42 0 75 35.5t33 93.5v120q-12 -23 -44.5 -38t-63.5 -22.5t-56 -34t-25 -70.5z" />
    <glyph glyph-name="Cacute" unicode="&#x106;" horiz-adv-x="673" 
d="M566 490q-11 79 -62.5 122t-128.5 43q-103 0 -164.5 -81.5t-61.5 -222.5q0 -129 71.5 -212.5t181.5 -83.5q76 0 134 42t83 117l14 -3q-23 -106 -95.5 -166t-170.5 -60q-140 0 -228 98t-89 253q0 154 91.5 250.5t230.5 96.5q132 0 221 -57l-13 -136h-14zM338 738l103 134
h128l-217 -134h-14z" />
    <glyph glyph-name="cacute" unicode="&#x107;" horiz-adv-x="460" 
d="M383 318q-7 58 -39.5 90t-79.5 32q-62 0 -102.5 -56.5t-40.5 -139.5q0 -86 46 -143t116 -57q47 0 82.5 26.5t53.5 69.5l11 -3q-14 -70 -61.5 -110.5t-120.5 -40.5q-92 0 -153.5 67.5t-61.5 172.5t65 172t164 67q85 0 141 -32l-6 -115h-14zM227 537l60 160h117l-163 -160
h-14z" />
    <glyph glyph-name="Ccircumflex" unicode="&#x108;" horiz-adv-x="673" 
d="M566 490q-11 79 -62.5 122t-128.5 43q-103 0 -164.5 -81.5t-61.5 -222.5q0 -129 71.5 -212.5t181.5 -83.5q76 0 134 42t83 117l14 -3q-23 -106 -95.5 -166t-170.5 -60q-140 0 -228 98t-89 253q0 154 91.5 250.5t230.5 96.5q132 0 221 -57l-13 -136h-14zM225 751l110 121
h86l107 -121h-15l-136 66l-138 -66h-14z" />
    <glyph glyph-name="ccircumflex" unicode="&#x109;" horiz-adv-x="460" 
d="M383 318q-7 58 -39.5 90t-79.5 32q-62 0 -102.5 -56.5t-40.5 -139.5q0 -86 46 -143t116 -57q47 0 82.5 26.5t53.5 69.5l11 -3q-14 -70 -61.5 -110.5t-120.5 -40.5q-92 0 -153.5 67.5t-61.5 172.5t65 172t164 67q85 0 141 -32l-6 -115h-14zM109 537l99 141h88l98 -141h-13
l-128 87l-130 -87h-14z" />
    <glyph glyph-name="Cdotaccent" unicode="&#x10a;" horiz-adv-x="673" 
d="M566 490q-11 79 -62.5 122t-128.5 43q-103 0 -164.5 -81.5t-61.5 -222.5q0 -129 71.5 -212.5t181.5 -83.5q76 0 134 42t83 117l14 -3q-23 -106 -95.5 -166t-170.5 -60q-140 0 -228 98t-89 253q0 154 91.5 250.5t230.5 96.5q132 0 221 -57l-13 -136h-14zM314 829
q0 25 18 42t44 17t43 -17t17 -42q0 -26 -17 -42.5t-43 -16.5t-44 17t-18 42z" />
    <glyph glyph-name="cdotaccent" unicode="&#x10b;" horiz-adv-x="460" 
d="M383 318q-7 58 -39.5 90t-79.5 32q-62 0 -102.5 -56.5t-40.5 -139.5q0 -86 46 -143t116 -57q47 0 82.5 26.5t53.5 69.5l11 -3q-14 -70 -61.5 -110.5t-120.5 -40.5q-92 0 -153.5 67.5t-61.5 172.5t65 172t164 67q85 0 141 -32l-6 -115h-14zM190 641q0 26 18 43t45 17
q26 0 43.5 -17t17.5 -43t-17.5 -43t-43.5 -17q-27 0 -45 17t-18 43z" />
    <glyph glyph-name="Ccaron" unicode="&#x10c;" horiz-adv-x="673" 
d="M566 490q-11 79 -62.5 122t-128.5 43q-103 0 -164.5 -81.5t-61.5 -222.5q0 -129 71.5 -212.5t181.5 -83.5q76 0 134 42t83 117l14 -3q-23 -106 -95.5 -166t-170.5 -60q-140 0 -228 98t-89 253q0 154 91.5 250.5t230.5 96.5q132 0 221 -57l-13 -136h-14zM224 872h14
l138 -66l136 66h15l-107 -121h-86z" />
    <glyph glyph-name="ccaron" unicode="&#x10d;" horiz-adv-x="460" 
d="M383 318q-7 58 -39.5 90t-79.5 32q-62 0 -102.5 -56.5t-40.5 -139.5q0 -86 46 -143t116 -57q47 0 82.5 26.5t53.5 69.5l11 -3q-14 -70 -61.5 -110.5t-120.5 -40.5q-92 0 -153.5 67.5t-61.5 172.5t65 172t164 67q85 0 141 -32l-6 -115h-14zM108 688h14l130 -87l128 87h13
l-98 -141h-88z" />
    <glyph glyph-name="Dcaron" unicode="&#x10e;" horiz-adv-x="735" 
d="M40 14q50 3 70 17.5t20 57.5v491q0 41 -20.5 56t-69.5 18v14h286q161 0 259.5 -92t98.5 -242t-94.5 -242t-248.5 -92h-301v14zM168 872h14l138 -66l136 66h15l-107 -121h-86zM220 87q0 -33 17 -46t64 -13h40q111 0 178.5 84.5t67.5 221.5q0 138 -76 222t-202 84h-89v-553
z" />
    <glyph glyph-name="dcaron" unicode="&#x10f;" horiz-adv-x="528" 
d="M223 -15q-85 0 -136.5 65t-51.5 171q0 116 61 180t150 64q77 0 121 -48v179q0 46 -47 50l-14 1v14l142 36v-612q0 -46 47 -50l14 -1v-14l-140 -36v125q-13 -59 -52 -91.5t-94 -32.5zM123 238q0 -92 35 -146t91 -54q51 0 84 37t34 111v110q0 62 -31.5 103t-85.5 41
q-62 0 -94.5 -56t-32.5 -146zM503 501l15 190h80l-86 -190h-9z" />
    <glyph glyph-name="Dcroat" unicode="&#x110;" horiz-adv-x="735" 
d="M40 14q50 3 70 17.5t20 57.5v233h-109v24h109v234q0 41 -20.5 56t-69.5 18v14h286q161 0 259.5 -92t98.5 -242t-94.5 -242t-248.5 -92h-301v14zM220 87q0 -33 17 -46t64 -13h40q111 0 178.5 84.5t67.5 221.5q0 138 -76 222t-202 84h-89v-294h108v-24h-108v-235z" />
    <glyph glyph-name="dcroat" unicode="&#x111;" horiz-adv-x="528" 
d="M223 -15q-85 0 -136.5 65t-51.5 171q0 116 61 180t150 64q77 0 121 -48v125h-133v24h133v30q0 46 -47 50l-14 1v14l142 36v-131h93v-24h-93v-457q0 -46 47 -50l14 -1v-14l-140 -36v125q-13 -59 -52 -91.5t-94 -32.5zM123 238q0 -92 35 -146t91 -54q51 0 84 37t34 111v110
q0 62 -31.5 103t-85.5 41q-62 0 -94.5 -56t-32.5 -146z" />
    <glyph glyph-name="Emacron" unicode="&#x112;" horiz-adv-x="663" 
d="M578 175h14l-27 -184q-51 9 -116 9h-409v14q47 2 68.5 19.5t21.5 61.5v479q0 43 -22 60.5t-68 19.5v14h397q65 0 116 9l28 -184h-14q-20 75 -58 111t-112 36h-177v-283h154q51 0 72 22.5t23 73.5h14v-220h-14q-2 51 -23 73.5t-72 22.5h-154v-234q0 -36 13 -51.5t42 -15.5
h134q74 0 112 36t57 111zM199 782v24h271v-24h-271z" />
    <glyph glyph-name="emacron" unicode="&#x113;" horiz-adv-x="472" 
d="M117 259q-2 -98 42 -156t123 -58q49 0 85 27.5t52 68.5l12 -3q-14 -71 -64 -111.5t-124 -40.5q-93 0 -151.5 65t-58.5 168q0 114 62.5 180t162.5 66q79 0 126 -44t47 -121q0 -10 -2 -32h-312v-9zM110 578v24h271v-24h-271zM119 293h226q2 18 2 27q0 56 -28.5 88t-74.5 32
q-50 0 -83.5 -40t-41.5 -107z" />
    <glyph glyph-name="Ebreve" unicode="&#x114;" horiz-adv-x="663" 
d="M578 175h14l-27 -184q-51 9 -116 9h-409v14q47 2 68.5 19.5t21.5 61.5v479q0 43 -22 60.5t-68 19.5v14h397q65 0 116 9l28 -184h-14q-20 75 -58 111t-112 36h-177v-283h154q51 0 72 22.5t23 73.5h14v-220h-14q-2 51 -23 73.5t-72 22.5h-154v-234q0 -36 13 -51.5t42 -15.5
h134q74 0 112 36t57 111zM205 875h12q9 -74 117 -74q110 0 119 74h12q-1 -60 -34.5 -95t-96.5 -35q-62 0 -95.5 35t-33.5 95z" />
    <glyph glyph-name="ebreve" unicode="&#x115;" horiz-adv-x="472" 
d="M117 259q-2 -98 42 -156t123 -58q49 0 85 27.5t52 68.5l12 -3q-14 -71 -64 -111.5t-124 -40.5q-93 0 -151.5 65t-58.5 168q0 114 62.5 180t162.5 66q79 0 126 -44t47 -121q0 -10 -2 -32h-312v-9zM119 293h226q2 18 2 27q0 56 -28.5 88t-74.5 32q-50 0 -83.5 -40
t-41.5 -107zM126 689h12q5 -88 107 -88q103 0 109 88h12q1 -71 -30.5 -109t-90.5 -38q-58 0 -89 38t-30 109z" />
    <glyph glyph-name="Edotaccent" unicode="&#x116;" horiz-adv-x="663" 
d="M578 175h14l-27 -184q-51 9 -116 9h-409v14q47 2 68.5 19.5t21.5 61.5v479q0 43 -22 60.5t-68 19.5v14h397q65 0 116 9l28 -184h-14q-20 75 -58 111t-112 36h-177v-283h154q51 0 72 22.5t23 73.5h14v-220h-14q-2 51 -23 73.5t-72 22.5h-154v-234q0 -36 13 -51.5t42 -15.5
h134q74 0 112 36t57 111zM273 829q0 25 18 42t44 17t43 -17t17 -42q0 -26 -17 -42.5t-43 -16.5t-44 17t-18 42z" />
    <glyph glyph-name="edotaccent" unicode="&#x117;" horiz-adv-x="472" 
d="M117 259q-2 -98 42 -156t123 -58q49 0 85 27.5t52 68.5l12 -3q-14 -71 -64 -111.5t-124 -40.5q-93 0 -151.5 65t-58.5 168q0 114 62.5 180t162.5 66q79 0 126 -44t47 -121q0 -10 -2 -32h-312v-9zM119 293h226q2 18 2 27q0 56 -28.5 88t-74.5 32q-50 0 -83.5 -40
t-41.5 -107zM184 641q0 26 18 43t45 17q26 0 43.5 -17t17.5 -43t-17.5 -43t-43.5 -17q-27 0 -45 17t-18 43z" />
    <glyph glyph-name="Eogonek" unicode="&#x118;" horiz-adv-x="663" 
d="M578 175h14l-27 -184q-51 9 -116 9h-17q-78 -57 -78 -118q0 -26 15.5 -42t39.5 -16q38 0 71 42l8 -4q-14 -34 -41.5 -54t-59.5 -20q-42 0 -67 21t-25 56q0 80 112 135h-367v14q47 2 68.5 19.5t21.5 61.5v479q0 43 -22 60.5t-68 19.5v14h397q65 0 116 9l28 -184h-14
q-20 75 -58 111t-112 36h-177v-283h154q51 0 72 22.5t23 73.5h14v-220h-14q-2 51 -23 73.5t-72 22.5h-154v-234q0 -36 13 -51.5t42 -15.5h134q74 0 112 36t57 111z" />
    <glyph glyph-name="eogonek" unicode="&#x119;" horiz-adv-x="472" 
d="M117 259q-2 -98 42 -156t123 -58q49 0 85 27.5t52 68.5l12 -3q-21 -106 -115 -140q-34 -22 -55 -54t-21 -62q0 -26 15.5 -42t39.5 -16q38 0 71 42l8 -4q-14 -34 -41.5 -54t-59.5 -20q-42 0 -67 21t-25 56q0 37 26.5 70t71.5 54q-17 -3 -36 -3q-93 0 -151.5 65t-58.5 168
q0 114 62.5 180t162.5 66q79 0 126 -44t47 -121q0 -10 -2 -32h-312v-9zM119 293h226q2 18 2 27q0 56 -28.5 88t-74.5 32q-50 0 -83.5 -40t-41.5 -107z" />
    <glyph glyph-name="Ecaron" unicode="&#x11a;" horiz-adv-x="663" 
d="M578 175h14l-27 -184q-51 9 -116 9h-409v14q47 2 68.5 19.5t21.5 61.5v479q0 43 -22 60.5t-68 19.5v14h397q65 0 116 9l28 -184h-14q-20 75 -58 111t-112 36h-177v-283h154q51 0 72 22.5t23 73.5h14v-220h-14q-2 51 -23 73.5t-72 22.5h-154v-234q0 -36 13 -51.5t42 -15.5
h134q74 0 112 36t57 111zM183 872h14l138 -66l136 66h15l-107 -121h-86z" />
    <glyph glyph-name="ecaron" unicode="&#x11b;" horiz-adv-x="472" 
d="M117 259q-2 -98 42 -156t123 -58q49 0 85 27.5t52 68.5l12 -3q-14 -71 -64 -111.5t-124 -40.5q-93 0 -151.5 65t-58.5 168q0 114 62.5 180t162.5 66q79 0 126 -44t47 -121q0 -10 -2 -32h-312v-9zM102 688h14l130 -87l128 87h13l-98 -141h-88zM119 293h226q2 18 2 27
q0 56 -28.5 88t-74.5 32q-50 0 -83.5 -40t-41.5 -107z" />
    <glyph glyph-name="Gcircumflex" unicode="&#x11c;" horiz-adv-x="729" 
d="M382 -14q-151 0 -241 96t-91 247q0 154 97.5 254t243.5 100q138 0 230 -57l-13 -136h-14q-11 77 -65 121t-133 44q-112 0 -179.5 -85.5t-68.5 -231.5q1 -147 69.5 -235t182.5 -88q101 0 146 49v174q0 42 -21 62t-74 23v14h263v-14q-77 -6 -77 -85v-133
q-36 -53 -103.5 -86t-151.5 -33zM240 751l110 121h86l107 -121h-15l-136 66l-138 -66h-14z" />
    <glyph glyph-name="gcircumflex" unicode="&#x11d;" horiz-adv-x="495" 
d="M243 -212q-98 0 -159.5 31.5t-61.5 87.5q0 65 93 98q-51 28 -51 85q0 56 53 92q-69 42 -69 126q0 71 52.5 114t137.5 43q56 0 103 -21q13 3 37 9t44 9.5t41 3.5v-40h-93q57 -44 57 -118q0 -71 -52 -114.5t-137 -43.5q-64 0 -107 24q-18 -23 -18 -47q0 -49 78 -55l119 -7
q164 -12 164 -124q0 -69 -61.5 -111t-169.5 -42zM96 -79q0 -51 42 -79t117 -28q72 0 114 26.5t42 69.5q0 61 -115 69l-98 5q-39 3 -69 14q-33 -26 -33 -77zM96 537l99 141h88l98 -141h-13l-128 87l-130 -87h-14zM132 308q0 -62 29 -97t77 -35t76.5 35t28.5 97t-28.5 97
t-76.5 35t-77 -35t-29 -97z" />
    <glyph glyph-name="Gbreve" unicode="&#x11e;" horiz-adv-x="729" 
d="M382 -14q-151 0 -241 96t-91 247q0 154 97.5 254t243.5 100q138 0 230 -57l-13 -136h-14q-11 77 -65 121t-133 44q-112 0 -179.5 -85.5t-68.5 -231.5q1 -147 69.5 -235t182.5 -88q101 0 146 49v174q0 42 -21 62t-74 23v14h263v-14q-77 -6 -77 -85v-133
q-36 -53 -103.5 -86t-151.5 -33zM262 875h12q9 -74 117 -74q110 0 119 74h12q-1 -60 -34.5 -95t-96.5 -35q-62 0 -95.5 35t-33.5 95z" />
    <glyph glyph-name="gbreve" unicode="&#x11f;" horiz-adv-x="495" 
d="M243 -212q-98 0 -159.5 31.5t-61.5 87.5q0 65 93 98q-51 28 -51 85q0 56 53 92q-69 42 -69 126q0 71 52.5 114t137.5 43q56 0 103 -21q13 3 37 9t44 9.5t41 3.5v-40h-93q57 -44 57 -118q0 -71 -52 -114.5t-137 -43.5q-64 0 -107 24q-18 -23 -18 -47q0 -49 78 -55l119 -7
q164 -12 164 -124q0 -69 -61.5 -111t-169.5 -42zM96 -79q0 -51 42 -79t117 -28q72 0 114 26.5t42 69.5q0 61 -115 69l-98 5q-39 3 -69 14q-33 -26 -33 -77zM120 689h12q5 -88 107 -88q103 0 109 88h12q1 -71 -30.5 -109t-90.5 -38q-58 0 -89 38t-30 109zM132 308
q0 -62 29 -97t77 -35t76.5 35t28.5 97t-28.5 97t-76.5 35t-77 -35t-29 -97z" />
    <glyph glyph-name="Gdotaccent" unicode="&#x120;" horiz-adv-x="729" 
d="M382 -14q-151 0 -241 96t-91 247q0 154 97.5 254t243.5 100q138 0 230 -57l-13 -136h-14q-11 77 -65 121t-133 44q-112 0 -179.5 -85.5t-68.5 -231.5q1 -147 69.5 -235t182.5 -88q101 0 146 49v174q0 42 -21 62t-74 23v14h263v-14q-77 -6 -77 -85v-133
q-36 -53 -103.5 -86t-151.5 -33zM330 829q0 25 18 42t44 17t43 -17t17 -42q0 -26 -17 -42.5t-43 -16.5t-44 17t-18 42z" />
    <glyph glyph-name="gdotaccent" unicode="&#x121;" horiz-adv-x="495" 
d="M243 -212q-98 0 -159.5 31.5t-61.5 87.5q0 65 93 98q-51 28 -51 85q0 56 53 92q-69 42 -69 126q0 71 52.5 114t137.5 43q56 0 103 -21q13 3 37 9t44 9.5t41 3.5v-40h-93q57 -44 57 -118q0 -71 -52 -114.5t-137 -43.5q-64 0 -107 24q-18 -23 -18 -47q0 -49 78 -55l119 -7
q164 -12 164 -124q0 -69 -61.5 -111t-169.5 -42zM96 -79q0 -51 42 -79t117 -28q72 0 114 26.5t42 69.5q0 61 -115 69l-98 5q-39 3 -69 14q-33 -26 -33 -77zM132 308q0 -62 29 -97t77 -35t76.5 35t28.5 97t-28.5 97t-76.5 35t-77 -35t-29 -97zM177 641q0 26 18 43t45 17
q26 0 43.5 -17t17.5 -43t-17.5 -43t-43.5 -17q-27 0 -45 17t-18 43z" />
    <glyph glyph-name="uni0122" unicode="&#x122;" horiz-adv-x="729" 
d="M382 -14q-151 0 -241 96t-91 247q0 154 97.5 254t243.5 100q138 0 230 -57l-13 -136h-14q-11 77 -65 121t-133 44q-112 0 -179.5 -85.5t-68.5 -231.5q1 -147 69.5 -235t182.5 -88q101 0 146 49v174q0 42 -21 62t-74 23v14h263v-14q-77 -6 -77 -85v-133
q-36 -53 -103.5 -86t-151.5 -33zM335 -133q0 24 15 38.5t38 14.5q27 0 42 -19.5t15 -54.5q0 -47 -30 -78.5t-76 -36.5v14q61 10 64 73q-9 -3 -18 -3q-21 0 -35.5 15.5t-14.5 36.5z" />
    <glyph glyph-name="uni0123" unicode="&#x123;" horiz-adv-x="495" 
d="M243 -212q-98 0 -159.5 31.5t-61.5 87.5q0 65 93 98q-51 28 -51 85q0 56 53 92q-69 42 -69 126q0 71 52.5 114t137.5 43q56 0 103 -21q13 3 37 9t44 9.5t41 3.5v-40h-93q57 -44 57 -118q0 -71 -52 -114.5t-137 -43.5q-64 0 -107 24q-18 -23 -18 -47q0 -49 78 -55l119 -7
q164 -12 164 -124q0 -69 -61.5 -111t-169.5 -42zM96 -79q0 -51 42 -79t117 -28q72 0 114 26.5t42 69.5q0 61 -115 69l-98 5q-39 3 -69 14q-33 -26 -33 -77zM132 308q0 -62 29 -97t77 -35t76.5 35t28.5 97t-28.5 97t-76.5 35t-77 -35t-29 -97zM184 635q0 47 30 78.5t76 36.5
v-14q-61 -10 -64 -73q9 3 18 3q21 0 35.5 -15.5t14.5 -36.5q0 -24 -15 -38.5t-38 -14.5q-27 0 -42 19.5t-15 54.5z" />
    <glyph glyph-name="Hcircumflex" unicode="&#x124;" horiz-adv-x="789" 
d="M479 14q48 3 69 19.5t21 61.5v234h-349v-234q0 -45 21 -61.5t69 -19.5v-14h-270v14q48 3 69 19.5t21 61.5v479q0 44 -21 60.5t-69 19.5v14h270v-14q-48 -3 -69 -19.5t-21 -60.5v-217h349v217q0 44 -21 60.5t-69 19.5v14h270v-14q-48 -3 -69 -19.5t-21 -60.5v-479
q0 -45 21 -61.5t69 -19.5v-14h-270v14zM249 751l110 121h86l107 -121h-15l-136 66l-138 -66h-14z" />
    <glyph glyph-name="hcircumflex" unicode="&#x125;" horiz-adv-x="539" 
d="M458 67q0 -24 14 -36t46 -17v-14h-201v14q33 4 46.5 16.5t13.5 36.5v239q0 53 -24 78.5t-65 25.5q-49 0 -84 -36t-35 -106v-201q0 -24 13.5 -36.5t46.5 -16.5v-14h-201v14q33 4 46.5 16.5t13.5 36.5v529q0 46 -47 50l-14 1v14l142 36v-350q20 57 60.5 87.5t94.5 30.5
q62 0 98 -39t36 -113v-246zM-24 751l110 121h86l107 -121h-15l-136 66l-138 -66h-14z" />
    <glyph glyph-name="Hbar" unicode="&#x126;" horiz-adv-x="789" 
d="M479 14q48 3 69 19.5t21 61.5v234h-349v-234q0 -45 21 -61.5t69 -19.5v-14h-270v14q48 3 69 19.5t21 61.5v393h-60v24h60v62q0 44 -21 60.5t-69 19.5v14h270v-14q-48 -3 -69 -19.5t-21 -60.5v-62h349v62q0 44 -21 60.5t-69 19.5v14h270v-14q-48 -3 -69 -19.5t-21 -60.5
v-62h70v-24h-70v-393q0 -45 21 -61.5t69 -19.5v-14h-270v14zM220 357h349v131h-349v-131z" />
    <glyph glyph-name="hbar" unicode="&#x127;" horiz-adv-x="539" 
d="M458 67q0 -24 14 -36t46 -17v-14h-201v14q33 4 46.5 16.5t13.5 36.5v239q0 53 -24 78.5t-65 25.5q-49 0 -84 -36t-35 -106v-201q0 -24 13.5 -36.5t46.5 -16.5v-14h-201v14q33 4 46.5 16.5t13.5 36.5v475h-81v24h81v30q0 46 -47 50l-14 1v14l142 36v-131h145v-24h-145
v-195q20 57 60.5 87.5t94.5 30.5q62 0 98 -39t36 -113v-246z" />
    <glyph glyph-name="Itilde" unicode="&#x128;" horiz-adv-x="361" 
d="M45 14q48 3 69 19.5t21 61.5v479q0 44 -21 60.5t-69 19.5v14h270v-14q-48 -3 -69 -19.5t-21 -60.5v-479q0 -45 21 -61.5t69 -19.5v-14h-270v14zM43 782v28q0 80 67 80q28 0 80 -26.5t75 -26.5q20 0 30 11t13 40h11v-27q0 -80 -66 -80q-27 0 -80 26t-76 26
q-20 0 -30 -10.5t-13 -40.5h-11z" />
    <glyph glyph-name="itilde" unicode="&#x129;" horiz-adv-x="261" 
d="M172 67q0 -24 14 -36t46 -17v-14h-200v14q32 5 46 17t14 36v297q0 47 -48 51l-14 1v14l142 35v-398zM-7 564v28q0 80 67 80q27 0 78 -26t74 -26q20 0 29.5 10.5t12.5 40.5h11v-28q0 -80 -66 -80q-27 0 -78.5 26t-74.5 26q-20 0 -29.5 -10.5t-12.5 -40.5h-11z" />
    <glyph glyph-name="Imacron" unicode="&#x12a;" horiz-adv-x="361" 
d="M45 14q48 3 69 19.5t21 61.5v479q0 44 -21 60.5t-69 19.5v14h270v-14q-48 -3 -69 -19.5t-21 -60.5v-479q0 -45 21 -61.5t69 -19.5v-14h-270v14zM45 782v24h271v-24h-271z" />
    <glyph glyph-name="imacron" unicode="&#x12b;" horiz-adv-x="261" 
d="M172 67q0 -24 14 -36t46 -17v-14h-200v14q32 5 46 17t14 36v297q0 47 -48 51l-14 1v14l142 35v-398zM-4 578v24h271v-24h-271z" />
    <glyph glyph-name="Ibreve" unicode="&#x12c;" horiz-adv-x="361" 
d="M45 14q48 3 69 19.5t21 61.5v479q0 44 -21 60.5t-69 19.5v14h270v-14q-48 -3 -69 -19.5t-21 -60.5v-479q0 -45 21 -61.5t69 -19.5v-14h-270v14zM52 875h12q9 -74 117 -74q110 0 119 74h12q-1 -60 -34.5 -95t-96.5 -35q-62 0 -95.5 35t-33.5 95z" />
    <glyph glyph-name="ibreve" unicode="&#x12d;" horiz-adv-x="261" 
d="M172 67q0 -24 14 -36t46 -17v-14h-200v14q32 5 46 17t14 36v297q0 47 -48 51l-14 1v14l142 35v-398zM12 689h12q5 -88 107 -88q103 0 109 88h12q1 -71 -30.5 -109t-90.5 -38q-58 0 -89 38t-30 109z" />
    <glyph glyph-name="Iogonek" unicode="&#x12e;" horiz-adv-x="361" 
d="M45 14q48 3 69 19.5t21 61.5v479q0 44 -21 60.5t-69 19.5v14h270v-14q-48 -3 -69 -19.5t-21 -60.5v-479q0 -45 21 -61.5t69 -19.5v-14h-73q-78 -57 -78 -118q0 -26 15.5 -42t39.5 -16q38 0 71 42l8 -4q-14 -34 -41.5 -54t-59.5 -20q-42 0 -67 21t-25 56q0 80 112 135
h-172v14z" />
    <glyph glyph-name="iogonek" unicode="&#x12f;" horiz-adv-x="261" 
d="M172 67q0 -24 14 -36t46 -17v-14h-59q-78 -57 -78 -118q0 -26 15.5 -42t39.5 -16q38 0 71 42l8 -4q-14 -34 -41.5 -54t-59.5 -20q-42 0 -67 21t-25 56q0 80 112 135h-116v14q32 5 46 17t14 36v297q0 47 -48 51l-14 1v14l142 35v-398zM69 641q0 26 18 43t45 17
q26 0 43.5 -17t17.5 -43t-17.5 -43t-43.5 -17q-27 0 -45 17t-18 43z" />
    <glyph glyph-name="Idotaccent" unicode="&#x130;" horiz-adv-x="361" 
d="M45 14q48 3 69 19.5t21 61.5v479q0 44 -21 60.5t-69 19.5v14h270v-14q-48 -3 -69 -19.5t-21 -60.5v-479q0 -45 21 -61.5t69 -19.5v-14h-270v14zM120 829q0 25 18 42t44 17t43 -17t17 -42q0 -26 -17 -42.5t-43 -16.5t-44 17t-18 42z" />
    <glyph glyph-name="dotlessi" unicode="&#x131;" horiz-adv-x="261" 
d="M172 67q0 -24 14 -36t46 -17v-14h-200v14q32 5 46 17t14 36v297q0 47 -48 51l-14 1v14l142 35v-398z" />
    <glyph glyph-name="IJ" unicode="&#x132;" horiz-adv-x="894" 
d="M45 14q48 3 69 19.5t21 61.5v479q0 44 -21 60.5t-69 19.5v14h270v-14q-48 -3 -69 -19.5t-21 -60.5v-479q0 -45 21 -61.5t69 -19.5v-14h-270v14zM382 175h96q-5 -27 -5 -46q0 -55 29 -85.5t77 -30.5q50 0 78 36t28 107v421q0 43 -20.5 59t-69.5 18v14h269v-14
q-49 -2 -69 -18t-20 -59v-394q0 -97 -52.5 -147.5t-145.5 -50.5q-91 0 -145 51t-50 139z" />
    <glyph glyph-name="ij" unicode="&#x133;" horiz-adv-x="534" 
d="M172 67q0 -24 14 -36t46 -17v-14h-200v14q32 5 46 17t14 36v297q0 47 -48 51l-14 1v14l142 35v-398zM69 641q0 26 18 43t45 17q26 0 43.5 -17t17.5 -43t-17.5 -43t-43.5 -17q-27 0 -45 17t-18 43zM264 -201q53 41 78 94.5t25 150.5v320q0 47 -48 51l-13 1v14l142 35v-390
q0 -111 -39 -178t-139 -109zM344 641q0 26 18 43t45 17q26 0 43.5 -17t17.5 -43t-17.5 -43t-43.5 -17q-27 0 -45 17t-18 43z" />
    <glyph glyph-name="Jcircumflex" unicode="&#x134;" horiz-adv-x="533" 
d="M503 654q-49 -2 -69 -18t-20 -59v-394q0 -97 -52.5 -147.5t-145.5 -50.5q-91 0 -145 51t-50 139h96q-5 -27 -5 -46q0 -55 29 -85.5t77 -30.5q50 0 78 36t28 107v421q0 43 -20.5 59t-69.5 18v14h269v-14zM219 751l110 121h86l107 -121h-15l-136 66l-138 -66h-14z" />
    <glyph glyph-name="jcircumflex" unicode="&#x135;" horiz-adv-x="225" 
d="M18 416v14l142 35v-390q0 -111 -39 -178t-139 -109l-6 11q53 41 78 94.5t25 150.5v320q0 47 -48 51zM-25 537l99 141h88l98 -141h-13l-128 87l-130 -87h-14z" />
    <glyph glyph-name="uni0136" unicode="&#x136;" horiz-adv-x="719" 
d="M575 88q64 -69 130 -74v-14h-188q-8 35 -65 97l-232 235v-237q0 -45 21 -61.5t69 -19.5v-14h-270v14q48 3 69 19.5t21 61.5v479q0 44 -21 60.5t-69 19.5v14h270v-14q-48 -3 -69 -19.5t-21 -60.5v-229l280 250q25 22 25 36q0 22 -64 23v14h205v-14q-64 -3 -131 -64
l-235 -213zM325 -133q0 24 15 38.5t38 14.5q27 0 42 -19.5t15 -54.5q0 -47 -30 -78.5t-76 -36.5v14q61 10 64 73q-9 -3 -18 -3q-21 0 -35.5 15.5t-14.5 36.5z" />
    <glyph glyph-name="uni0137" unicode="&#x137;" horiz-adv-x="526" 
d="M367 0q-4 28 -51 79l-147 162v-174q0 -24 13.5 -36.5t46.5 -16.5v-14h-201v14q33 4 46.5 16.5t13.5 36.5v529q0 46 -47 50l-14 1v14l142 36v-447l171 130q31 24 31 38q0 15 -36 18v14h162v-14q-48 -3 -127 -63l-126 -99l179 -204q47 -53 102 -57v-13h-158zM211 -141
q0 24 15 38.5t38 14.5q27 0 42 -19.5t15 -54.5q0 -47 -30 -78.5t-76 -36.5v14q61 10 64 73q-9 -3 -18 -3q-21 0 -35.5 15.5t-14.5 36.5z" />
    <glyph glyph-name="kgreenlandic" unicode="&#x138;" horiz-adv-x="541" 
d="M400 0l-221 246l185 142q19 15 19 29q0 17 -25 19v14h155v-14q-49 -3 -128 -63l-125 -99l187 -214q38 -44 94 -47v-13h-141zM30 416v14l142 35v-398q0 -24 14 -36t46 -17v-14h-200v14q32 5 46 17t14 36v297q0 47 -48 51z" />
    <glyph glyph-name="Lacute" unicode="&#x139;" horiz-adv-x="619" 
d="M574 175h14l-27 -184q-51 9 -116 9h-405v14q50 3 70 18.5t20 56.5v491q0 40 -20 55.5t-70 18.5v14h270v-14q-49 -3 -69.5 -18.5t-20.5 -55.5v-491q0 -32 12.5 -46.5t39.5 -14.5h133q74 0 112 36t57 111zM137 738l103 134h128l-217 -134h-14z" />
    <glyph glyph-name="lacute" unicode="&#x13a;" horiz-adv-x="254" 
d="M169 67q0 -24 13.5 -36.5t46.5 -16.5v-14h-201v14q33 4 46.5 16.5t13.5 36.5v529q0 46 -47 50l-14 1v14l142 36v-630zM91 738l103 134h128l-217 -134h-14z" />
    <glyph glyph-name="uni013B" unicode="&#x13b;" horiz-adv-x="619" 
d="M574 175h14l-27 -184q-51 9 -116 9h-405v14q50 3 70 18.5t20 56.5v491q0 40 -20 55.5t-70 18.5v14h270v-14q-49 -3 -69.5 -18.5t-20.5 -55.5v-491q0 -32 12.5 -46.5t39.5 -14.5h133q74 0 112 36t57 111zM287 -133q0 24 15 38.5t38 14.5q27 0 42 -19.5t15 -54.5
q0 -47 -30 -78.5t-76 -36.5v14q61 10 64 73q-9 -3 -18 -3q-21 0 -35.5 15.5t-14.5 36.5z" />
    <glyph glyph-name="uni013C" unicode="&#x13c;" horiz-adv-x="254" 
d="M169 67q0 -24 13.5 -36.5t46.5 -16.5v-14h-201v14q33 4 46.5 16.5t13.5 36.5v529q0 46 -47 50l-14 1v14l142 36v-630zM75 -141q0 24 15 38.5t38 14.5q27 0 42 -19.5t15 -54.5q0 -47 -30 -78.5t-76 -36.5v14q61 10 64 73q-9 -3 -18 -3q-21 0 -35.5 15.5t-14.5 36.5z" />
    <glyph glyph-name="Lcaron" unicode="&#x13d;" horiz-adv-x="619" 
d="M574 175h14l-27 -184q-51 9 -116 9h-405v14q50 3 70 18.5t20 56.5v491q0 40 -20 55.5t-70 18.5v14h270v-14q-49 -3 -69.5 -18.5t-20.5 -55.5v-491q0 -32 12.5 -46.5t39.5 -14.5h133q74 0 112 36t57 111zM459 478l15 190h80l-86 -190h-9z" />
    <glyph glyph-name="lcaron" unicode="&#x13e;" horiz-adv-x="254" 
d="M169 67q0 -24 13.5 -36.5t46.5 -16.5v-14h-201v14q33 4 46.5 16.5t13.5 36.5v529q0 46 -47 50l-14 1v14l142 36v-630zM210 501l15 190h80l-86 -190h-9z" />
    <glyph glyph-name="Ldot" unicode="&#x13f;" horiz-adv-x="619" 
d="M574 175h14l-27 -184q-51 9 -116 9h-405v14q50 3 70 18.5t20 56.5v491q0 40 -20 55.5t-70 18.5v14h270v-14q-49 -3 -69.5 -18.5t-20.5 -55.5v-491q0 -32 12.5 -46.5t39.5 -14.5h133q74 0 112 36t57 111zM341 335q0 26 18 43.5t46 17.5t46 -17.5t18 -43.5q0 -28 -18 -45.5
t-46 -17.5t-46 17.5t-18 45.5z" />
    <glyph glyph-name="ldot" unicode="&#x140;" horiz-adv-x="342" 
d="M169 67q0 -24 13.5 -36.5t46.5 -16.5v-14h-201v14q33 4 46.5 16.5t13.5 36.5v529q0 46 -47 50l-14 1v14l142 36v-630zM227 353q0 27 18.5 44.5t46.5 17.5t46.5 -17.5t18.5 -44.5q0 -28 -18.5 -46t-46.5 -18t-46.5 18t-18.5 46z" />
    <glyph glyph-name="Lslash" unicode="&#x141;" horiz-adv-x="619" 
d="M574 175h14l-27 -184q-51 9 -116 9h-405v14q50 3 70 18.5t20 56.5v220l-86 -33v24l86 33v247q0 40 -20 55.5t-70 18.5v14h270v-14q-49 -3 -69.5 -18.5t-20.5 -55.5v-216l186 71v-23l-186 -71v-252q0 -32 12.5 -46.5t39.5 -14.5h133q74 0 112 36t57 111z" />
    <glyph glyph-name="lslash" unicode="&#x142;" horiz-adv-x="294" 
d="M189 67q0 -24 13.5 -36.5t46.5 -16.5v-14h-201v14q33 4 46.5 16.5t13.5 36.5v301l-70 -31v23l70 32v204q0 46 -47 50l-14 1v14l142 36v-275l79 35v-24l-79 -34v-332z" />
    <glyph glyph-name="Nacute" unicode="&#x143;" horiz-adv-x="732" 
d="M483 668h214v-14q-39 -3 -58 -17t-19 -55v-597h-14l-441 584v-481q0 -18 5.5 -31t13.5 -20.5t23.5 -12t29 -6.5t36.5 -3v-15h-213v14q27 2 41 6.5t25 21t11 46.5v490q0 69 -97 76v14h165l387 -514v428q0 42 -26 55.5t-83 16.5v14zM345 738l103 134h128l-217 -134h-14z
" />
    <glyph glyph-name="nacute" unicode="&#x144;" horiz-adv-x="542" 
d="M462 67q0 -24 13.5 -36.5t46.5 -16.5v-14h-201v14q32 5 46 17t14 36v239q0 53 -24.5 78.5t-65.5 25.5q-48 0 -83.5 -36t-35.5 -106v-201q0 -24 14 -36t46 -17v-14h-200v14q32 5 46 17t14 36v297q0 47 -48 51l-14 1v14l142 35v-118q20 57 60.5 87.5t94.5 30.5
q62 0 98.5 -39.5t36.5 -112.5v-246zM249 537l60 160h117l-163 -160h-14z" />
    <glyph glyph-name="uni0145" unicode="&#x145;" horiz-adv-x="732" 
d="M483 668h214v-14q-39 -3 -58 -17t-19 -55v-597h-14l-441 584v-481q0 -18 5.5 -31t13.5 -20.5t23.5 -12t29 -6.5t36.5 -3v-15h-213v14q27 2 41 6.5t25 21t11 46.5v490q0 69 -97 76v14h165l387 -514v428q0 42 -26 55.5t-83 16.5v14zM318 -133q0 24 15 38.5t38 14.5
q27 0 42 -19.5t15 -54.5q0 -47 -30 -78.5t-76 -36.5v14q61 10 64 73q-9 -3 -18 -3q-21 0 -35.5 15.5t-14.5 36.5z" />
    <glyph glyph-name="uni0146" unicode="&#x146;" horiz-adv-x="542" 
d="M462 67q0 -24 13.5 -36.5t46.5 -16.5v-14h-201v14q32 5 46 17t14 36v239q0 53 -24.5 78.5t-65.5 25.5q-48 0 -83.5 -36t-35.5 -106v-201q0 -24 14 -36t46 -17v-14h-200v14q32 5 46 17t14 36v297q0 47 -48 51l-14 1v14l142 35v-118q20 57 60.5 87.5t94.5 30.5
q62 0 98.5 -39.5t36.5 -112.5v-246zM222 -141q0 24 15 38.5t38 14.5q27 0 42 -19.5t15 -54.5q0 -47 -30 -78.5t-76 -36.5v14q61 10 64 73q-9 -3 -18 -3q-21 0 -35.5 15.5t-14.5 36.5z" />
    <glyph glyph-name="Ncaron" unicode="&#x147;" horiz-adv-x="732" 
d="M483 668h214v-14q-39 -3 -58 -17t-19 -55v-597h-14l-441 584v-481q0 -18 5.5 -31t13.5 -20.5t23.5 -12t29 -6.5t36.5 -3v-15h-213v14q27 2 41 6.5t25 21t11 46.5v490q0 69 -97 76v14h165l387 -514v428q0 42 -26 55.5t-83 16.5v14zM231 872h14l138 -66l136 66h15
l-107 -121h-86z" />
    <glyph glyph-name="ncaron" unicode="&#x148;" horiz-adv-x="542" 
d="M462 67q0 -24 13.5 -36.5t46.5 -16.5v-14h-201v14q32 5 46 17t14 36v239q0 53 -24.5 78.5t-65.5 25.5q-48 0 -83.5 -36t-35.5 -106v-201q0 -24 14 -36t46 -17v-14h-200v14q32 5 46 17t14 36v297q0 47 -48 51l-14 1v14l142 35v-118q20 57 60.5 87.5t94.5 30.5
q62 0 98.5 -39.5t36.5 -112.5v-246zM130 688h14l130 -87l128 87h13l-98 -141h-88z" />
    <glyph glyph-name="napostrophe" unicode="&#x149;" horiz-adv-x="581" 
d="M462 67q0 -24 13.5 -36.5t46.5 -16.5v-14h-201v14q32 5 46 17t14 36v239q0 53 -24.5 78.5t-65.5 25.5q-48 0 -83.5 -36t-35.5 -106v-201q0 -24 14 -36t46 -17v-14h-200v14q32 5 46 17t14 36v297q0 47 -48 51l-14 1v14l142 35v-118q20 57 60.5 87.5t94.5 30.5
q62 0 98.5 -39.5t36.5 -112.5v-246zM58 695q0 22 15 35t38 13q27 0 42 -18t15 -49q0 -42 -30 -70t-76 -33v12q61 10 64 66q-9 -3 -19 -3q-21 0 -35 13.5t-14 33.5z" />
    <glyph glyph-name="Eng" unicode="&#x14a;" horiz-adv-x="732" 
d="M487 668h210v-14q-39 -3 -58 -17t-19 -55l-1 -643q0 -71 -32.5 -111t-99.5 -40q-79 0 -116 47.5t-31 129.5h86q-5 -30 -5 -49q0 -48 21.5 -74t61.5 -26q45 0 67.5 32t22.5 85q0 49 -14.5 78.5t-57.5 83.5q-9 11 -14 17l-343 457v-481q0 -18 5.5 -31t13.5 -20.5t23.5 -12
t29 -6.5t36.5 -3v-15h-213v14q27 2 41 6.5t25 21t11 46.5v490q0 69 -97 76v14h165l390 -519v433q0 42 -26 55.5t-82 16.5v14z" />
    <glyph glyph-name="eng" unicode="&#x14b;" horiz-adv-x="528" 
d="M381 318q0 43 -23.5 67.5t-63.5 24.5q-48 0 -84.5 -36t-36.5 -106v-201q0 -27 14 -37.5t44 -16.5v-13h-197v13q30 6 44 16.5t14 37.5v300q0 43 -47 47h-21v13l137 38h12v-120q19 55 60.5 87.5t92.5 32.5q65 0 100.5 -38.5t35.5 -105.5v-246q0 -111 -38.5 -178
t-138.5 -109l-7 11q53 40 78 94t25 151v274z" />
    <glyph glyph-name="Omacron" unicode="&#x14c;" horiz-adv-x="771" 
d="M386 -15q-149 0 -242.5 97t-93.5 252t93.5 252t242.5 97q148 0 241.5 -97t93.5 -252t-93.5 -252t-241.5 -97zM148 334q0 -147 64.5 -234t173.5 -87q108 0 172.5 87t64.5 234q0 148 -64.5 234.5t-172.5 86.5q-109 0 -173.5 -86.5t-64.5 -234.5zM252 782v24h271v-24h-271z
" />
    <glyph glyph-name="omacron" unicode="&#x14d;" horiz-adv-x="496" 
d="M248 -14q-96 0 -155.5 66.5t-59.5 173.5t59.5 173t155.5 66t155 -66t59 -173t-59 -173.5t-155 -66.5zM113 578v24h271v-24h-271zM121 226q0 -102 33.5 -158.5t93.5 -56.5q59 0 92.5 56.5t33.5 158.5t-33.5 158t-92.5 56q-60 0 -93.5 -56.5t-33.5 -157.5z" />
    <glyph glyph-name="Obreve" unicode="&#x14e;" horiz-adv-x="771" 
d="M386 -15q-149 0 -242.5 97t-93.5 252t93.5 252t242.5 97q148 0 241.5 -97t93.5 -252t-93.5 -252t-241.5 -97zM148 334q0 -147 64.5 -234t173.5 -87q108 0 172.5 87t64.5 234q0 148 -64.5 234.5t-172.5 86.5q-109 0 -173.5 -86.5t-64.5 -234.5zM259 875h12q9 -74 117 -74
q110 0 119 74h12q-1 -60 -34.5 -95t-96.5 -35q-62 0 -95.5 35t-33.5 95z" />
    <glyph glyph-name="obreve" unicode="&#x14f;" horiz-adv-x="496" 
d="M248 -14q-96 0 -155.5 66.5t-59.5 173.5t59.5 173t155.5 66t155 -66t59 -173t-59 -173.5t-155 -66.5zM121 226q0 -102 33.5 -158.5t93.5 -56.5q59 0 92.5 56.5t33.5 158.5t-33.5 158t-92.5 56q-60 0 -93.5 -56.5t-33.5 -157.5zM129 689h12q5 -88 107 -88q104 0 109 88h12
q1 -71 -30.5 -109t-90.5 -38q-58 0 -89 38t-30 109z" />
    <glyph glyph-name="Ohungarumlaut" unicode="&#x150;" horiz-adv-x="771" 
d="M386 -15q-149 0 -242.5 97t-93.5 252t93.5 252t242.5 97q148 0 241.5 -97t93.5 -252t-93.5 -252t-241.5 -97zM148 334q0 -147 64.5 -234t173.5 -87q108 0 172.5 87t64.5 234q0 148 -64.5 234.5t-172.5 86.5q-109 0 -173.5 -86.5t-64.5 -234.5zM284 738l77 144h90
l-153 -144h-14zM416 738l78 144h95l-158 -144h-15z" />
    <glyph glyph-name="ohungarumlaut" unicode="&#x151;" horiz-adv-x="496" 
d="M248 -14q-96 0 -155.5 66.5t-59.5 173.5t59.5 173t155.5 66t155 -66t59 -173t-59 -173.5t-155 -66.5zM121 226q0 -102 33.5 -158.5t93.5 -56.5q59 0 92.5 56.5t33.5 158.5t-33.5 158t-92.5 56q-60 0 -93.5 -56.5t-33.5 -157.5zM151 537l61 160h85l-132 -160h-14zM277 537
l63 160h86l-134 -160h-15z" />
    <glyph glyph-name="OE" unicode="&#x152;" horiz-adv-x="1047" 
d="M408 0q-161 0 -259.5 92t-98.5 242t94.5 242t248.5 92h428q66 0 117 9l27 -184h-14q-19 75 -57 111t-112 36h-178v-283h154q51 0 72 22.5t23 72.5h14v-219h-14q-2 51 -23 73.5t-72 22.5h-154v-234q0 -36 13 -51.5t42 -15.5h134q74 0 112 36t57 111h14l-27 -184
q-51 9 -117 9h-424zM148 334q0 -138 76 -222t201 -84h89v553q0 34 -17 46.5t-64 12.5h-40q-111 0 -178 -84.5t-67 -221.5z" />
    <glyph glyph-name="oe" unicode="&#x153;" horiz-adv-x="818" 
d="M248 -14q-96 0 -155.5 66.5t-59.5 173.5t59.5 173t155.5 66q114 0 173 -90q62 90 182 90q79 0 126 -44t47 -121q0 -10 -2 -32h-312v-9q-2 -98 42 -156t123 -58q49 0 85 27.5t52 68.5l12 -3q-14 -71 -64 -111.5t-124 -40.5q-109 0 -169 87q-59 -87 -171 -87zM121 226
q0 -102 33.5 -158.5t93.5 -56.5q59 0 92.5 56.5t33.5 158.5t-33.5 158t-92.5 56q-60 0 -93.5 -56.5t-33.5 -157.5zM464 293h226q2 18 2 27q0 56 -28.5 88t-74.5 32q-50 0 -83.5 -40t-41.5 -107z" />
    <glyph glyph-name="Racute" unicode="&#x154;" horiz-adv-x="697" 
d="M485 0q-4 23 -58 89l-207 241v-241q0 -42 20.5 -57t69.5 -18v-14h-270v14q50 3 70 17.5t20 57.5v491q0 41 -20.5 56t-69.5 18v14h283q268 0 268 -176q0 -172 -248 -177l183 -213q68 -80 151 -88v-14h-192zM220 343h96q86 0 131.5 39.5t45.5 109.5q0 69 -45.5 108.5
t-131.5 39.5h-95zM280 738l103 134h128l-217 -134h-14z" />
    <glyph glyph-name="racute" unicode="&#x155;" horiz-adv-x="359" 
d="M172 329q16 62 51.5 99t76.5 37q21 0 43 -11l-8 -78q-26 17 -55 17q-44 0 -75.5 -39t-32.5 -112v-175q0 -25 20.5 -37.5t66.5 -15.5v-14h-227v14q32 5 46 17t14 36v297q0 47 -48 51l-14 1v14l142 35v-136zM177 537l60 160h117l-163 -160h-14z" />
    <glyph glyph-name="uni0156" unicode="&#x156;" horiz-adv-x="697" 
d="M485 0q-4 23 -58 89l-207 241v-241q0 -42 20.5 -57t69.5 -18v-14h-270v14q50 3 70 17.5t20 57.5v491q0 41 -20.5 56t-69.5 18v14h283q268 0 268 -176q0 -172 -248 -177l183 -213q68 -80 151 -88v-14h-192zM220 343h96q86 0 131.5 39.5t45.5 109.5q0 69 -45.5 108.5
t-131.5 39.5h-95zM305 -133q0 24 15 38.5t38 14.5q27 0 42 -19.5t15 -54.5q0 -47 -30 -78.5t-76 -36.5v14q61 10 64 73q-9 -3 -18 -3q-21 0 -35.5 15.5t-14.5 36.5z" />
    <glyph glyph-name="uni0157" unicode="&#x157;" horiz-adv-x="359" 
d="M172 329q16 62 51.5 99t76.5 37q21 0 43 -11l-8 -78q-26 17 -55 17q-44 0 -75.5 -39t-32.5 -112v-175q0 -25 20.5 -37.5t66.5 -15.5v-14h-227v14q32 5 46 17t14 36v297q0 47 -48 51l-14 1v14l142 35v-136zM86 -141q0 24 15 38.5t38 14.5q27 0 42 -19.5t15 -54.5
q0 -47 -30 -78.5t-76 -36.5v14q61 10 64 73q-9 -3 -18 -3q-21 0 -35.5 15.5t-14.5 36.5z" />
    <glyph glyph-name="Rcaron" unicode="&#x158;" horiz-adv-x="697" 
d="M485 0q-4 23 -58 89l-207 241v-241q0 -42 20.5 -57t69.5 -18v-14h-270v14q50 3 70 17.5t20 57.5v491q0 41 -20.5 56t-69.5 18v14h283q268 0 268 -176q0 -172 -248 -177l183 -213q68 -80 151 -88v-14h-192zM166 872h14l138 -66l136 66h15l-107 -121h-86zM220 343h96
q86 0 131.5 39.5t45.5 109.5q0 69 -45.5 108.5t-131.5 39.5h-95z" />
    <glyph glyph-name="rcaron" unicode="&#x159;" horiz-adv-x="359" 
d="M172 329q16 62 51.5 99t76.5 37q21 0 43 -11l-8 -78q-26 17 -55 17q-44 0 -75.5 -39t-32.5 -112v-175q0 -25 20.5 -37.5t66.5 -15.5v-14h-227v14q32 5 46 17t14 36v297q0 47 -48 51l-14 1v14l142 35v-136zM58 688h14l130 -87l128 87h13l-98 -141h-88z" />
    <glyph glyph-name="Sacute" unicode="&#x15a;" horiz-adv-x="615" 
d="M108 210q24 -92 79 -144t128 -52q64 0 104 34.5t40 90.5q0 42 -21 72.5t-54 48.5t-73 32.5t-80.5 31t-73.5 37.5t-54 57.5t-21 86.5q0 79 57.5 128t153.5 49q121 0 214 -55l-13 -137h-14q-16 83 -66 123.5t-124 40.5q-53 0 -91.5 -32t-38.5 -82q0 -43 28.5 -74t71 -47
t92.5 -36.5t92.5 -41.5t71 -63t28.5 -100q0 -87 -64 -139.5t-168 -52.5q-147 0 -232 75l14 149h14zM272 738l103 134h128l-217 -134h-14z" />
    <glyph glyph-name="sacute" unicode="&#x15b;" horiz-adv-x="418" 
d="M71 150q18 -66 56.5 -102.5t88.5 -36.5q44 0 71.5 23.5t27.5 61.5q0 31 -19.5 51.5t-48.5 29.5t-63.5 21t-63.5 25t-48.5 42.5t-19.5 72.5q0 58 43 92.5t114 34.5q86 0 138 -31l-6 -113h-14q-11 56 -43.5 87.5t-79.5 31.5q-40 0 -64.5 -21t-24.5 -55q0 -29 19.5 -48
t48.5 -28t63.5 -21t63.5 -26t48.5 -44t19.5 -74q0 -62 -45 -99.5t-119 -37.5q-110 0 -164 48l7 116h14zM187 537l60 160h117l-163 -160h-14z" />
    <glyph glyph-name="Scircumflex" unicode="&#x15c;" horiz-adv-x="615" 
d="M108 210q24 -92 79 -144t128 -52q64 0 104 34.5t40 90.5q0 42 -21 72.5t-54 48.5t-73 32.5t-80.5 31t-73.5 37.5t-54 57.5t-21 86.5q0 79 57.5 128t153.5 49q121 0 214 -55l-13 -137h-14q-16 83 -66 123.5t-124 40.5q-53 0 -91.5 -32t-38.5 -82q0 -43 28.5 -74t71 -47
t92.5 -36.5t92.5 -41.5t71 -63t28.5 -100q0 -87 -64 -139.5t-168 -52.5q-147 0 -232 75l14 149h14zM158 751l110 121h86l107 -121h-15l-136 66l-138 -66h-14z" />
    <glyph glyph-name="scircumflex" unicode="&#x15d;" horiz-adv-x="418" 
d="M71 150q18 -66 56.5 -102.5t88.5 -36.5q44 0 71.5 23.5t27.5 61.5q0 31 -19.5 51.5t-48.5 29.5t-63.5 21t-63.5 25t-48.5 42.5t-19.5 72.5q0 58 43 92.5t114 34.5q86 0 138 -31l-6 -113h-14q-11 56 -43.5 87.5t-79.5 31.5q-40 0 -64.5 -21t-24.5 -55q0 -29 19.5 -48
t48.5 -28t63.5 -21t63.5 -26t48.5 -44t19.5 -74q0 -62 -45 -99.5t-119 -37.5q-110 0 -164 48l7 116h14zM68 537l99 141h88l98 -141h-13l-128 87l-130 -87h-14z" />
    <glyph glyph-name="Scedilla" unicode="&#x15e;" horiz-adv-x="615" 
d="M108 210q24 -92 79 -144t128 -52q64 0 104 34.5t40 90.5q0 42 -21 72.5t-54 48.5t-73 32.5t-80.5 31t-73.5 37.5t-54 57.5t-21 86.5q0 79 57.5 128t153.5 49q121 0 214 -55l-13 -137h-14q-16 83 -66 123.5t-124 40.5q-53 0 -91.5 -32t-38.5 -82q0 -43 28.5 -74t71 -47
t92.5 -36.5t92.5 -41.5t71 -63t28.5 -100q0 -84 -59.5 -136t-158.5 -56l-15 -41q101 -19 101 -83q0 -33 -25 -53.5t-67 -20.5q-53 0 -89 33l6 8q29 -18 58 -18q50 0 50 40q0 38 -70 50l33 85q-145 2 -228 75l14 149h14z" />
    <glyph glyph-name="scedilla" unicode="&#x15f;" horiz-adv-x="418" 
d="M71 150q18 -66 56.5 -102.5t88.5 -36.5q44 0 71.5 23.5t27.5 61.5q0 31 -19.5 51.5t-48.5 29.5t-63.5 21t-63.5 25t-48.5 42.5t-19.5 72.5q0 58 43 92.5t114 34.5q86 0 138 -31l-6 -113h-14q-11 56 -43.5 87.5t-79.5 31.5q-40 0 -64.5 -21t-24.5 -55q0 -29 19.5 -48
t48.5 -28t63.5 -21t63.5 -26t48.5 -44t19.5 -74q0 -62 -45 -99.5t-119 -37.5h-4l-15 -41q101 -19 101 -83q0 -33 -25 -53.5t-67 -20.5q-53 0 -89 33l6 8q29 -18 58 -18q50 0 50 40q0 38 -70 50l33 86q-96 4 -142 47l7 116h14z" />
    <glyph glyph-name="Scaron" unicode="&#x160;" horiz-adv-x="615" 
d="M108 210q24 -92 79 -144t128 -52q64 0 104 34.5t40 90.5q0 42 -21 72.5t-54 48.5t-73 32.5t-80.5 31t-73.5 37.5t-54 57.5t-21 86.5q0 79 57.5 128t153.5 49q121 0 214 -55l-13 -137h-14q-16 83 -66 123.5t-124 40.5q-53 0 -91.5 -32t-38.5 -82q0 -43 28.5 -74t71 -47
t92.5 -36.5t92.5 -41.5t71 -63t28.5 -100q0 -87 -64 -139.5t-168 -52.5q-147 0 -232 75l14 149h14zM157 872h14l138 -66l136 66h15l-107 -121h-86z" />
    <glyph glyph-name="scaron" unicode="&#x161;" horiz-adv-x="418" 
d="M71 150q18 -66 56.5 -102.5t88.5 -36.5q44 0 71.5 23.5t27.5 61.5q0 31 -19.5 51.5t-48.5 29.5t-63.5 21t-63.5 25t-48.5 42.5t-19.5 72.5q0 58 43 92.5t114 34.5q86 0 138 -31l-6 -113h-14q-11 56 -43.5 87.5t-79.5 31.5q-40 0 -64.5 -21t-24.5 -55q0 -29 19.5 -48
t48.5 -28t63.5 -21t63.5 -26t48.5 -44t19.5 -74q0 -62 -45 -99.5t-119 -37.5q-110 0 -164 48l7 116h14zM68 688h14l130 -87l128 87h13l-98 -141h-88z" />
    <glyph glyph-name="uni0162" unicode="&#x162;" horiz-adv-x="664" 
d="M377 103q0 -51 19.5 -68.5t70.5 -20.5v-14h-123l-20 -55q101 -19 101 -83q0 -33 -25 -53.5t-67 -20.5q-53 0 -89 33l6 8q29 -18 58 -18q50 0 50 40q0 38 -70 50l38 99h-129v14q50 3 70 20.5t20 68.5v537h-73q-74 0 -112 -36t-58 -111h-14l28 184q51 -9 116 -9h316
q65 0 116 9l27 -184h-14q-19 75 -57 111t-112 36h-73v-537z" />
    <glyph glyph-name="uni0163" unicode="&#x163;" horiz-adv-x="314" 
d="M292 52q-14 -29 -41.5 -47t-61.5 -18q-14 0 -20 1l-16 -43q101 -19 101 -83q0 -33 -25 -53.5t-67 -20.5q-53 0 -89 33l6 8q29 -18 58 -18q50 0 50 40q0 38 -70 50l35 91q-77 20 -77 130v303h-59v14q80 73 126 143h14v-132h129v-25h-129v-307q0 -87 74 -87q32 0 51 27z
" />
    <glyph glyph-name="Tcaron" unicode="&#x164;" horiz-adv-x="664" 
d="M377 103q0 -51 19.5 -68.5t70.5 -20.5v-14h-270v14q50 3 70 20.5t20 68.5v537h-73q-74 0 -112 -36t-58 -111h-14l28 184q51 -9 116 -9h316q65 0 116 9l27 -184h-14q-19 75 -57 111t-112 36h-73v-537zM180 872h14l138 -66l136 66h15l-107 -121h-86z" />
    <glyph glyph-name="tcaron" unicode="&#x165;" horiz-adv-x="314" 
d="M292 52q-14 -29 -41.5 -47t-61.5 -18q-56 0 -85 34.5t-29 100.5v303h-59v14q80 73 126 143h14v-132h129v-25h-129v-307q0 -87 74 -87q32 0 51 27zM217 501l15 190h80l-86 -190h-9z" />
    <glyph glyph-name="Tbar" unicode="&#x166;" horiz-adv-x="664" 
d="M377 103q0 -51 19.5 -68.5t70.5 -20.5v-14h-270v14q50 3 70 20.5t20 68.5v219h-109v24h109v294h-73q-74 0 -112 -36t-58 -111h-14l28 184q51 -9 116 -9h316q65 0 116 9l27 -184h-14q-19 75 -57 111t-112 36h-73v-294h108v-24h-108v-219z" />
    <glyph glyph-name="tbar" unicode="&#x167;" horiz-adv-x="314" 
d="M292 52q-14 -29 -41.5 -47t-61.5 -18q-56 0 -85 34.5t-29 100.5v167h-56v24h56v112h-59v14q80 73 126 143h14v-132h129v-25h-129v-112h129v-24h-129v-171q0 -87 74 -87q32 0 51 27z" />
    <glyph glyph-name="Utilde" unicode="&#x168;" horiz-adv-x="748" 
d="M510 668h208v-14q-49 -3 -69.5 -18t-20.5 -56v-327q0 -132 -62.5 -199.5t-182.5 -67.5q-126 0 -194.5 67.5t-68.5 194.5v332q0 41 -20.5 56t-69.5 18v14h270v-14q-49 -3 -69.5 -18t-20.5 -56v-325q0 -109 54.5 -167t149.5 -58q89 0 137.5 57t48.5 167v326q0 41 -20.5 56
t-69.5 18v14zM263 782v28q0 80 67 80q28 0 80 -26.5t75 -26.5q20 0 30 11t13 40h11v-27q0 -80 -66 -80q-27 0 -80 26t-76 26q-20 0 -30 -10.5t-13 -40.5h-11z" />
    <glyph glyph-name="utilde" unicode="&#x169;" horiz-adv-x="527" 
d="M494 34l14 -1v-14l-139 -35v127q-19 -59 -60 -92t-98 -33q-62 0 -98 39t-36 113v226q0 47 -47 51l-14 1v14l142 35v-320q0 -53 24 -78.5t65 -25.5q49 0 84 36t35 106v181q0 47 -47 51l-14 1v14l142 35v-381q0 -46 47 -50zM122 564v28q0 80 67 80q27 0 78 -26t74 -26
q20 0 29.5 10.5t12.5 40.5h11v-28q0 -80 -66 -80q-27 0 -78.5 26t-74.5 26q-20 0 -29.5 -10.5t-12.5 -40.5h-11z" />
    <glyph glyph-name="Umacron" unicode="&#x16a;" horiz-adv-x="748" 
d="M510 668h208v-14q-49 -3 -69.5 -18t-20.5 -56v-327q0 -132 -62.5 -199.5t-182.5 -67.5q-126 0 -194.5 67.5t-68.5 194.5v332q0 41 -20.5 56t-69.5 18v14h270v-14q-49 -3 -69.5 -18t-20.5 -56v-325q0 -109 54.5 -167t149.5 -58q89 0 137.5 57t48.5 167v326q0 41 -20.5 56
t-69.5 18v14zM265 782v24h271v-24h-271z" />
    <glyph glyph-name="umacron" unicode="&#x16b;" horiz-adv-x="527" 
d="M494 34l14 -1v-14l-139 -35v127q-19 -59 -60 -92t-98 -33q-62 0 -98 39t-36 113v226q0 47 -47 51l-14 1v14l142 35v-320q0 -53 24 -78.5t65 -25.5q49 0 84 36t35 106v181q0 47 -47 51l-14 1v14l142 35v-381q0 -46 47 -50zM125 578v24h271v-24h-271z" />
    <glyph glyph-name="Ubreve" unicode="&#x16c;" horiz-adv-x="748" 
d="M510 668h208v-14q-49 -3 -69.5 -18t-20.5 -56v-327q0 -132 -62.5 -199.5t-182.5 -67.5q-126 0 -194.5 67.5t-68.5 194.5v332q0 41 -20.5 56t-69.5 18v14h270v-14q-49 -3 -69.5 -18t-20.5 -56v-325q0 -109 54.5 -167t149.5 -58q89 0 137.5 57t48.5 167v326q0 41 -20.5 56
t-69.5 18v14zM271 875h12q9 -74 117 -74q110 0 119 74h12q-1 -60 -34.5 -95t-96.5 -35q-62 0 -95.5 35t-33.5 95z" />
    <glyph glyph-name="ubreve" unicode="&#x16d;" horiz-adv-x="527" 
d="M494 34l14 -1v-14l-139 -35v127q-19 -59 -60 -92t-98 -33q-62 0 -98 39t-36 113v226q0 47 -47 51l-14 1v14l142 35v-320q0 -53 24 -78.5t65 -25.5q49 0 84 36t35 106v181q0 47 -47 51l-14 1v14l142 35v-381q0 -46 47 -50zM141 689h12q5 -88 107 -88q104 0 109 88h12
q1 -71 -30.5 -109t-90.5 -38q-58 0 -89 38t-30 109z" />
    <glyph glyph-name="Uring" unicode="&#x16e;" horiz-adv-x="748" 
d="M510 668h208v-14q-49 -3 -69.5 -18t-20.5 -56v-327q0 -132 -62.5 -199.5t-182.5 -67.5q-126 0 -194.5 67.5t-68.5 194.5v332q0 41 -20.5 56t-69.5 18v14h270v-14q-49 -3 -69.5 -18t-20.5 -56v-325q0 -109 54.5 -167t149.5 -58q89 0 137.5 57t48.5 167v326q0 41 -20.5 56
t-69.5 18v14zM306 830q0 38 27 63t68 25t68 -25t27 -63t-27.5 -63t-67.5 -25q-41 0 -68 25t-27 63zM331 830q0 -29 20 -48.5t50 -19.5t50 19.5t20 48.5q0 30 -20 49t-50 19t-50 -19t-20 -49z" />
    <glyph glyph-name="uring" unicode="&#x16f;" horiz-adv-x="527" 
d="M494 34l14 -1v-14l-139 -35v127q-19 -59 -60 -92t-98 -33q-62 0 -98 39t-36 113v226q0 47 -47 51l-14 1v14l142 35v-320q0 -53 24 -78.5t65 -25.5q49 0 84 36t35 106v181q0 47 -47 51l-14 1v14l142 35v-381q0 -46 47 -50zM166 626q0 38 27 63t68 25t68 -25t27 -63
t-27.5 -63t-67.5 -25q-41 0 -68 25t-27 63zM191 626q0 -29 20 -48.5t50 -19.5t50 19.5t20 48.5q0 30 -20 49t-50 19t-50 -19t-20 -49z" />
    <glyph glyph-name="Uhungarumlaut" unicode="&#x170;" horiz-adv-x="748" 
d="M510 668h208v-14q-49 -3 -69.5 -18t-20.5 -56v-327q0 -132 -62.5 -199.5t-182.5 -67.5q-126 0 -194.5 67.5t-68.5 194.5v332q0 41 -20.5 56t-69.5 18v14h270v-14q-49 -3 -69.5 -18t-20.5 -56v-325q0 -109 54.5 -167t149.5 -58q89 0 137.5 57t48.5 167v326q0 41 -20.5 56
t-69.5 18v14zM297 738l77 144h90l-153 -144h-14zM429 738l78 144h95l-158 -144h-15z" />
    <glyph glyph-name="uhungarumlaut" unicode="&#x171;" horiz-adv-x="527" 
d="M494 34l14 -1v-14l-139 -35v127q-19 -59 -60 -92t-98 -33q-62 0 -98 39t-36 113v226q0 47 -47 51l-14 1v14l142 35v-320q0 -53 24 -78.5t65 -25.5q49 0 84 36t35 106v181q0 47 -47 51l-14 1v14l142 35v-381q0 -46 47 -50zM163 537l61 160h85l-132 -160h-14zM289 537
l63 160h86l-134 -160h-15z" />
    <glyph glyph-name="Uogonek" unicode="&#x172;" horiz-adv-x="748" 
d="M510 668h208v-14q-49 -3 -69.5 -18t-20.5 -56v-327q0 -226 -177 -261q-30 -22 -49 -52t-19 -58q0 -26 15.5 -42t39.5 -16q38 0 71 42l8 -4q-14 -34 -41.5 -54t-59.5 -20q-42 0 -67 21t-25 56q0 37 26 69.5t70 53.5q-24 -2 -37 -2q-126 0 -194.5 67.5t-68.5 194.5v332
q0 41 -20.5 56t-69.5 18v14h270v-14q-49 -3 -69.5 -18t-20.5 -56v-325q0 -109 54.5 -167t149.5 -58q89 0 137.5 57t48.5 167v326q0 41 -20.5 56t-69.5 18v14z" />
    <glyph glyph-name="uogonek" unicode="&#x173;" horiz-adv-x="527" 
d="M494 34l14 -1v-14l-103 -26q-31 -22 -50 -52t-19 -59q0 -26 15.5 -42t39.5 -16q38 0 71 42l8 -4q-14 -34 -41.5 -54t-59.5 -20q-42 0 -67 21t-25 56q0 36 24.5 68t67.5 53v125q-19 -59 -60 -92t-98 -33q-62 0 -98 39t-36 113v226q0 47 -47 51l-14 1v14l142 35v-320
q0 -53 24 -78.5t65 -25.5q49 0 84 36t35 106v181q0 47 -47 51l-14 1v14l142 35v-381q0 -46 47 -50z" />
    <glyph glyph-name="Wcircumflex" unicode="&#x174;" horiz-adv-x="1022" 
d="M474 553q-17 48 -40.5 73t-62.5 28v14h255v-14q-67 -1 -67 -51q0 -18 8 -40l155 -434l156 429q11 28 11 48q0 47 -71 48v14h204v-14q-48 -3 -72.5 -26.5t-43.5 -73.5l-209 -569h-14l-178 485l-179 -485h-14l-209 568q-18 49 -40.5 73.5t-62.5 27.5v14h256v-14
q-67 -1 -67 -51q0 -18 8 -40l154 -433l139 381zM349 751l110 121h86l107 -121h-15l-136 66l-138 -66h-14z" />
    <glyph glyph-name="wcircumflex" unicode="&#x175;" horiz-adv-x="713" 
d="M320 385q-20 49 -60 52v13h201v-13q-58 -3 -58 -30q0 -8 6 -22l110 -280l107 265q8 16 8 31q0 32 -59 36v13h146v-13q-42 -3 -71 -70l-155 -381h-12l-128 313l-128 -313h-13l-159 394q-23 54 -63 57v13h201v-13q-58 -1 -58 -31q0 -10 6 -23l108 -277l93 224zM217 537
l99 141h88l98 -141h-13l-128 87l-130 -87h-14z" />
    <glyph glyph-name="Ycircumflex" unicode="&#x176;" horiz-adv-x="623" 
d="M165 14q47 3 67 18t20 57v197l-172 285q-48 80 -100 83v14h262v-14q-73 -1 -73 -39q0 -17 16 -44l147 -246l152 246q20 32 20 50q0 32 -69 33v14h208v-14q-74 -1 -126 -83l-175 -282v-200q0 -42 20 -57t68 -18v-14h-265v14zM162 751l110 121h86l107 -121h-15l-136 66
l-138 -66h-14z" />
    <glyph glyph-name="ycircumflex" unicode="&#x177;" horiz-adv-x="451" 
d="M1 -106q39 -34 87 -34q32 0 57 25.5t48 80.5l15 37l-152 365q-28 66 -66 69v13h201v-13q-56 -3 -56 -35q0 -12 5 -23l111 -273l105 252q11 23 11 41q0 34 -59 38v13h151v-13q-43 -6 -76 -82l-165 -394q-40 -94 -81.5 -133.5t-101.5 -39.5q-29 0 -65 18zM87 538l99 141h88
l98 -141h-13l-128 87l-130 -87h-14z" />
    <glyph glyph-name="Ydieresis" unicode="&#x178;" horiz-adv-x="623" 
d="M165 14q47 3 67 18t20 57v197l-172 285q-48 80 -100 83v14h262v-14q-73 -1 -73 -39q0 -17 16 -44l147 -246l152 246q20 32 20 50q0 32 -69 33v14h208v-14q-74 -1 -126 -83l-175 -282v-200q0 -42 20 -57t68 -18v-14h-265v14zM172 814q0 23 16.5 38.5t41.5 15.5
q23 0 39 -16t16 -38q0 -24 -16 -40t-39 -16q-25 0 -41.5 16t-16.5 40zM341 814q0 22 17 38t41 16t39.5 -15.5t15.5 -38.5q0 -24 -15.5 -40t-39.5 -16t-41 16t-17 40z" />
    <glyph glyph-name="Zacute" unicode="&#x179;" horiz-adv-x="632" 
d="M550 -9q-51 9 -117 9h-386v14l411 626h-204q-74 0 -112 -36t-58 -111h-14l28 184q51 -9 116 -9h360v-14l-411 -626h231q74 0 112 36t57 111h14zM273 738l103 134h128l-217 -134h-14z" />
    <glyph glyph-name="zacute" unicode="&#x17a;" horiz-adv-x="465" 
d="M42 0v14l274 411h-135q-82 0 -120 -125h-13l24 150h347v-14l-274 -411h146q84 0 118 129h14l-24 -154h-357zM222 537l60 160h117l-163 -160h-14z" />
    <glyph glyph-name="Zdotaccent" unicode="&#x17b;" horiz-adv-x="632" 
d="M550 -9q-51 9 -117 9h-386v14l411 626h-204q-74 0 -112 -36t-58 -111h-14l28 184q51 -9 116 -9h360v-14l-411 -626h231q74 0 112 36t57 111h14zM249 829q0 25 18 42t44 17t43 -17t17 -42q0 -26 -17 -42.5t-43 -16.5t-44 17t-18 42z" />
    <glyph glyph-name="zdotaccent" unicode="&#x17c;" horiz-adv-x="465" 
d="M42 0v14l274 411h-135q-82 0 -120 -125h-13l24 150h347v-14l-274 -411h146q84 0 118 129h14l-24 -154h-357zM185 641q0 26 18 43t45 17q26 0 43.5 -17t17.5 -43t-17.5 -43t-43.5 -17q-27 0 -45 17t-18 43z" />
    <glyph glyph-name="Zcaron" unicode="&#x17d;" horiz-adv-x="632" 
d="M550 -9q-51 9 -117 9h-386v14l411 626h-204q-74 0 -112 -36t-58 -111h-14l28 184q51 -9 116 -9h360v-14l-411 -626h231q74 0 112 36t57 111h14zM158 872h14l138 -66l136 66h15l-107 -121h-86z" />
    <glyph glyph-name="zcaron" unicode="&#x17e;" horiz-adv-x="465" 
d="M42 0v14l274 411h-135q-82 0 -120 -125h-13l24 150h347v-14l-274 -411h146q84 0 118 129h14l-24 -154h-357zM104 688h14l130 -87l128 87h13l-98 -141h-88z" />
    <glyph glyph-name="longs" unicode="&#x17f;" horiz-adv-x="308" 
d="M333 574q-9 41 -30.5 62.5t-45.5 21.5q-39 0 -59 -34t-20 -89v-467q0 -28 18.5 -39t68.5 -16v-13h-231v13q32 5 48 16.5t16 38.5v357h-76v25h76v60q0 85 47.5 129t122.5 44q56 0 90 -15l-13 -94h-12z" />
    <glyph glyph-name="florin" unicode="&#x192;" horiz-adv-x="485" 
d="M437 574q-8 41 -30 62.5t-46 21.5q-39 0 -58.5 -34t-19.5 -89v-85h125v-25h-125v-464q0 -85 -47.5 -129t-122.5 -44q-57 0 -91 15l14 94h12q8 -40 30 -62t46 -22q39 0 58.5 34t19.5 89v489h-126v25h126v60q0 85 47.5 129t122.5 44q56 0 91 -15l-14 -94h-12z" />
    <glyph glyph-name="Aringacute" unicode="&#x1fa;" horiz-adv-x="717" 
d="M601 115q21 -51 46.5 -74.5t69.5 -26.5v-14h-265v14q65 1 65 49q0 19 -10 42l-49 120h-265l-47 -115q-13 -31 -13 -50q0 -45 74 -46v-14h-207v14q46 2 71.5 25t46.5 75l234 569h14zM204 253h243l-121 298zM267 830q0 37 24.5 61.5t63.5 26.5l99 129h128l-210 -129
q37 -4 61 -28t24 -60q0 -38 -27.5 -63t-67.5 -25q-41 0 -68 25t-27 63zM292 830q0 -29 20 -48.5t50 -19.5t50 19.5t20 48.5q0 30 -20 49t-50 19t-50 -19t-20 -49z" />
    <glyph glyph-name="aringacute" unicode="&#x1fb;" horiz-adv-x="477" 
d="M177 -15q-59 0 -95.5 33.5t-36.5 86.5q0 50 28.5 81t69 43.5t80.5 23t68.5 31.5t28.5 57q0 44 -26.5 71.5t-69.5 27.5t-68.5 -28t-25.5 -71q0 -19 6 -39h-91q2 70 52 116.5t133 46.5q79 0 125 -42.5t46 -114.5v-224q0 -46 47 -50l14 -1v-14l-140 -35v120
q-36 -119 -145 -119zM131 117q0 -36 23 -60t58 -24q42 0 75 35.5t33 93.5v120q-12 -23 -44.5 -38t-63.5 -22.5t-56 -34t-25 -70.5zM135 626q0 38 27 63t68 25t68 -25t27 -63t-27.5 -63t-67.5 -25q-41 0 -68 25t-27 63zM160 626q0 -29 20 -48.5t50 -19.5t50 19.5t20 48.5
q0 30 -20 49t-50 19t-50 -19t-20 -49zM233 727l60 160h117l-163 -160h-14z" />
    <glyph glyph-name="AEacute" unicode="&#x1fc;" horiz-adv-x="1011" 
d="M0 14q37 5 65 28t60 72l284 450q25 41 25 57q0 15 -16 22.5t-53 10.5v14h420q66 0 117 9l27 -184h-14q-19 75 -57 111t-112 36h-178v-283h163q46 0 65 22.5t21 73.5h14v-220h-14q-2 51 -21 73.5t-65 22.5h-163v-234q0 -36 13 -51.5t42 -15.5h135q74 0 112 36t57 111h14
l-27 -184q-51 9 -117 9h-409v14q47 2 68.5 19.5t21.5 61.5v130h-250l-73 -115q-25 -40 -25 -57q0 -34 76 -39v-14h-206v14zM245 253h233v369zM606 738l103 134h128l-217 -134h-14z" />
    <glyph glyph-name="aeacute" unicode="&#x1fd;" horiz-adv-x="759" 
d="M320 341q0 44 -26.5 71.5t-69.5 27.5t-68.5 -28t-25.5 -71q0 -19 6 -39h-91q2 70 52 116.5t133 46.5q105 0 146 -73q62 73 169 73q79 0 126 -44t47 -121q0 -10 -2 -32h-312v-9q-2 -98 42 -156t123 -58q49 0 85 27.5t52 68.5l12 -3q-14 -71 -64 -111.5t-124 -40.5
q-71 0 -123 38.5t-73 105.5q-11 -73 -55.5 -109t-101.5 -36q-59 0 -95.5 33.5t-36.5 86.5q0 50 28.5 81t69 43.5t80.5 23t68.5 31.5t28.5 57zM131 117q0 -36 22.5 -58t58.5 -22q44 0 76 37t32 110v97q-11 -23 -44 -37.5t-64 -22.5t-56 -34t-25 -70zM353 537l60 160h117
l-163 -160h-14zM406 293h226q2 18 2 27q0 56 -28.5 88t-74.5 32q-50 0 -83.5 -40t-41.5 -107z" />
    <glyph glyph-name="Oslashacute" unicode="&#x1fe;" horiz-adv-x="738" 
d="M386 -15q-72 0 -136 25l-33 -73l-20 9l33 73q-84 41 -132 124t-48 191q0 155 93.5 252t242.5 97q72 0 134 -25l33 74l21 -9l-34 -74q85 -41 133 -123.5t48 -191.5q0 -155 -93.5 -252t-241.5 -97zM148 334q0 -189 101 -273l254 561q-52 33 -117 33q-109 0 -173.5 -86.5
t-64.5 -234.5zM267 47q53 -34 119 -34q108 0 172.5 87t64.5 234q0 190 -101 274zM351 738l103 134h128l-217 -134h-14z" />
    <glyph glyph-name="oslashacute" unicode="&#x1ff;" horiz-adv-x="496" 
d="M248 -14q-50 0 -89 18l-25 -56l-20 8l26 58q-51 29 -79 84.5t-28 127.5q0 107 59.5 173t155.5 66q49 0 88 -18l28 63l21 -8l-29 -65q50 -29 78 -84t28 -127q0 -107 -59 -173.5t-155 -66.5zM121 226q0 -114 41 -169l157 355q-30 28 -71 28q-60 0 -93.5 -56.5t-33.5 -157.5
zM177 39q31 -28 71 -28q59 0 92.5 56.5t33.5 158.5q0 111 -39 167zM224 537l60 160h117l-163 -160h-14z" />
    <glyph glyph-name="uni0218" unicode="&#x218;" horiz-adv-x="615" 
d="M108 210q24 -92 79 -144t128 -52q64 0 104 34.5t40 90.5q0 42 -21 72.5t-54 48.5t-73 32.5t-80.5 31t-73.5 37.5t-54 57.5t-21 86.5q0 79 57.5 128t153.5 49q121 0 214 -55l-13 -137h-14q-16 83 -66 123.5t-124 40.5q-53 0 -91.5 -32t-38.5 -82q0 -43 28.5 -74t71 -47
t92.5 -36.5t92.5 -41.5t71 -63t28.5 -100q0 -87 -64 -139.5t-168 -52.5q-147 0 -232 75l14 149h14zM264 -133q0 24 15 38.5t38 14.5q27 0 42 -19.5t15 -54.5q0 -47 -30 -78.5t-76 -36.5v14q61 10 64 73q-9 -3 -18 -3q-21 0 -35.5 15.5t-14.5 36.5z" />
    <glyph glyph-name="uni0219" unicode="&#x219;" horiz-adv-x="418" 
d="M71 150q18 -66 56.5 -102.5t88.5 -36.5q44 0 71.5 23.5t27.5 61.5q0 31 -19.5 51.5t-48.5 29.5t-63.5 21t-63.5 25t-48.5 42.5t-19.5 72.5q0 58 43 92.5t114 34.5q86 0 138 -31l-6 -113h-14q-11 56 -43.5 87.5t-79.5 31.5q-40 0 -64.5 -21t-24.5 -55q0 -29 19.5 -48
t48.5 -28t63.5 -21t63.5 -26t48.5 -44t19.5 -74q0 -62 -45 -99.5t-119 -37.5q-110 0 -164 48l7 116h14zM159 -141q0 24 15 38.5t38 14.5q27 0 42 -19.5t15 -54.5q0 -47 -30 -78.5t-76 -36.5v14q61 10 64 73q-9 -3 -18 -3q-21 0 -35.5 15.5t-14.5 36.5z" />
    <glyph glyph-name="uni021A" unicode="&#x21a;" horiz-adv-x="664" 
d="M377 103q0 -51 19.5 -68.5t70.5 -20.5v-14h-270v14q50 3 70 20.5t20 68.5v537h-73q-74 0 -112 -36t-58 -111h-14l28 184q51 -9 116 -9h316q65 0 116 9l27 -184h-14q-19 75 -57 111t-112 36h-73v-537zM277 -133q0 24 15 38.5t38 14.5q27 0 42 -19.5t15 -54.5
q0 -47 -30 -78.5t-76 -36.5v14q61 10 64 73q-9 -3 -18 -3q-21 0 -35.5 15.5t-14.5 36.5z" />
    <glyph glyph-name="uni021B" unicode="&#x21b;" horiz-adv-x="314" 
d="M292 52q-14 -29 -41.5 -47t-61.5 -18q-56 0 -85 34.5t-29 100.5v303h-59v14q80 73 126 143h14v-132h129v-25h-129v-307q0 -87 74 -87q32 0 51 27zM118 -141q0 24 15 38.5t38 14.5q27 0 42 -19.5t15 -54.5q0 -47 -30 -78.5t-76 -36.5v14q61 10 64 73q-9 -3 -18 -3
q-21 0 -35.5 15.5t-14.5 36.5z" />
    <glyph glyph-name="uni0237" unicode="&#x237;" horiz-adv-x="225" 
d="M18 416v14l142 35v-390q0 -111 -39 -178t-139 -109l-6 11q53 41 78 94.5t25 150.5v320q0 47 -48 51z" />
    <glyph glyph-name="circumflex" unicode="&#x2c6;" horiz-adv-x="485" 
d="M199 678h88l98 -141h-13l-128 87l-130 -87h-14z" />
    <glyph glyph-name="caron" unicode="&#x2c7;" horiz-adv-x="485" 
d="M199 547l-99 141h14l130 -87l128 87h13l-98 -141h-88z" />
    <glyph glyph-name="breve" unicode="&#x2d8;" horiz-adv-x="442" 
d="M220 542q-58 0 -89 38t-30 109h12q5 -88 107 -88q104 0 109 88h12q1 -71 -30.5 -109t-90.5 -38z" />
    <glyph glyph-name="dotaccent" unicode="&#x2d9;" horiz-adv-x="324" 
d="M163 581q-27 0 -45 17t-18 43t18 43t45 17q26 0 43.5 -17t17.5 -43t-17.5 -43t-43.5 -17z" />
    <glyph glyph-name="ring" unicode="&#x2da;" horiz-adv-x="390" 
d="M195 538q-41 0 -68 25t-27 63t27 63t68 25t68 -25t27 -63t-27.5 -63t-67.5 -25zM125 626q0 -29 20 -48.5t50 -19.5t50 19.5t20 48.5q0 30 -20 49t-50 19t-50 -19t-20 -49z" />
    <glyph glyph-name="ogonek" unicode="&#x2db;" horiz-adv-x="393" 
d="M192 -212q-42 0 -67 21t-25 56q0 43 34.5 79.5t92.5 55.5h11q-35 -22 -57 -54.5t-22 -63.5q0 -26 15.5 -42t39.5 -16q38 0 71 42l8 -4q-14 -34 -41.5 -54t-59.5 -20z" />
    <glyph glyph-name="tilde" unicode="&#x2dc;" horiz-adv-x="472" 
d="M100 592q0 80 67 80q27 0 78 -26t74 -26q20 0 29.5 10.5t12.5 40.5h11v-28q0 -80 -66 -80q-27 0 -78.5 26t-74.5 26q-20 0 -29.5 -10.5t-12.5 -40.5h-11v28z" />
    <glyph glyph-name="hungarumlaut" unicode="&#x2dd;" horiz-adv-x="472" 
d="M114 537h-14l61 160h85zM226 537l63 160h86l-134 -160h-15z" />
    <glyph glyph-name="uni0394" unicode="&#x394;" horiz-adv-x="648" 
d="M40 0v16l276 667h14l278 -666v-17h-568zM76 28h428l-215 523z" />
    <glyph glyph-name="uni03A9" unicode="&#x3a9;" horiz-adv-x="764" 
d="M340 0h-92q-101 0 -161 -12l-26 177h13q18 -60 57.5 -84.5t115.5 -24.5h67v59q-111 10 -186 91.5t-75 199.5q0 127 90 202t239 75q150 0 239.5 -75t89.5 -203q0 -115 -73 -197.5t-188 -92.5v-60h68q75 0 114.5 24.5t57.5 84.5h12l-25 -176q-61 11 -161 11h-92v144
q74 0 131.5 76t57.5 189q0 116 -62 181t-169 65t-169.5 -65.5t-62.5 -180.5q0 -112 58 -188.5t132 -76.5v-143z" />
    <glyph glyph-name="uni03BC" unicode="&#x3bc;" horiz-adv-x="527" 
d="M494 34l14 -1v-14l-139 -35v127q-19 -59 -60 -92t-98 -33q-89 0 -120 75q6 -134 74 -258h-92q0 31 2 138.5t2 188.5v-1v9v226q0 47 -47 51l-14 1v14l142 35v-320q0 -53 24 -78.5t65 -25.5q49 0 84 36t35 106v181q0 47 -47 51l-14 1v14l142 35v-381q0 -46 47 -50z" />
    <glyph glyph-name="pi" unicode="&#x3c0;" horiz-adv-x="559" 
d="M35 14q32 5 46.5 17t14.5 36v358h-80v25h533v-25h-94v-329q0 -39 15.5 -58.5t59.5 -23.5v-14q-13 -2 -37 -2q-62 0 -90 29t-28 88v310h-199v-358q0 -45 60 -53v-14h-201v14z" />
    <glyph glyph-name="Wgrave" unicode="&#x1e80;" horiz-adv-x="1022" 
d="M474 553q-17 48 -40.5 73t-62.5 28v14h255v-14q-67 -1 -67 -51q0 -18 8 -40l155 -434l156 429q11 28 11 48q0 47 -71 48v14h204v-14q-48 -3 -72.5 -26.5t-43.5 -73.5l-209 -569h-14l-178 485l-179 -485h-14l-209 568q-18 49 -40.5 73.5t-62.5 27.5v14h256v-14
q-67 -1 -67 -51q0 -18 8 -40l154 -433l139 381zM309 871h128l103 -134h-14z" />
    <glyph glyph-name="wgrave" unicode="&#x1e81;" horiz-adv-x="713" 
d="M320 385q-20 49 -60 52v13h201v-13q-58 -3 -58 -30q0 -8 6 -22l110 -280l107 265q8 16 8 31q0 32 -59 36v13h146v-13q-42 -3 -71 -70l-155 -381h-12l-128 313l-128 -313h-13l-159 394q-23 54 -63 57v13h201v-13q-58 -1 -58 -31q0 -10 6 -23l108 -277l93 224zM224 697h117
l60 -160h-14z" />
    <glyph glyph-name="Wacute" unicode="&#x1e82;" horiz-adv-x="1022" 
d="M474 553q-17 48 -40.5 73t-62.5 28v14h255v-14q-67 -1 -67 -51q0 -18 8 -40l155 -434l156 429q11 28 11 48q0 47 -71 48v14h204v-14q-48 -3 -72.5 -26.5t-43.5 -73.5l-209 -569h-14l-178 485l-179 -485h-14l-209 568q-18 49 -40.5 73.5t-62.5 27.5v14h256v-14
q-67 -1 -67 -51q0 -18 8 -40l154 -433l139 381zM462 738l103 134h128l-217 -134h-14z" />
    <glyph glyph-name="wacute" unicode="&#x1e83;" horiz-adv-x="713" 
d="M320 385q-20 49 -60 52v13h201v-13q-58 -3 -58 -30q0 -8 6 -22l110 -280l107 265q8 16 8 31q0 32 -59 36v13h146v-13q-42 -3 -71 -70l-155 -381h-12l-128 313l-128 -313h-13l-159 394q-23 54 -63 57v13h201v-13q-58 -1 -58 -31q0 -10 6 -23l108 -277l93 224zM336 537
l60 160h117l-163 -160h-14z" />
    <glyph glyph-name="Wdieresis" unicode="&#x1e84;" horiz-adv-x="1022" 
d="M474 553q-17 48 -40.5 73t-62.5 28v14h255v-14q-67 -1 -67 -51q0 -18 8 -40l155 -434l156 429q11 28 11 48q0 47 -71 48v14h204v-14q-48 -3 -72.5 -26.5t-43.5 -73.5l-209 -569h-14l-178 485l-179 -485h-14l-209 568q-18 49 -40.5 73.5t-62.5 27.5v14h256v-14
q-67 -1 -67 -51q0 -18 8 -40l154 -433l139 381zM359 814q0 23 16.5 38.5t41.5 15.5q23 0 39 -16t16 -38q0 -24 -16 -40t-39 -16q-25 0 -41.5 16t-16.5 40zM528 814q0 22 17 38t41 16t39.5 -15.5t15.5 -38.5q0 -24 -15.5 -40t-39.5 -16t-41 16t-17 40z" />
    <glyph glyph-name="wdieresis" unicode="&#x1e85;" horiz-adv-x="713" 
d="M320 385q-20 49 -60 52v13h201v-13q-58 -3 -58 -30q0 -8 6 -22l110 -280l107 265q8 16 8 31q0 32 -59 36v13h146v-13q-42 -3 -71 -70l-155 -381h-12l-128 313l-128 -313h-13l-159 394q-23 54 -63 57v13h201v-13q-58 -1 -58 -31q0 -10 6 -23l108 -277l93 224zM217 610
q0 23 17 39t42 16q23 0 39.5 -16t16.5 -39q0 -24 -16.5 -40t-39.5 -16q-25 0 -42 16t-17 40zM389 610q0 23 17 39t42 16q24 0 40 -16t16 -39q0 -24 -16 -40t-40 -16q-25 0 -42 16t-17 40z" />
    <glyph glyph-name="uni1E9E" unicode="&#x1e9e;" horiz-adv-x="830" 
d="M554 -14q-119 0 -202 75l12 141h15q23 -95 65.5 -141.5t110.5 -46.5q56 0 88 31t32 83q0 35 -19 63t-38 42t-76 49q-13 9 -20 13q-49 31 -76 54t-46 57.5t-19 77.5q0 118 127 156h-288v-545q0 -45 21 -61.5t69 -19.5v-14h-270v14q48 3 69 19.5t21 61.5v479q0 44 -21 60.5
t-69 19.5v14h631v-28h-35q-85 0 -132 -31.5t-47 -91.5q0 -44 27.5 -72.5t106.5 -77.5q95 -61 132 -103t37 -105q0 -81 -54.5 -127t-151.5 -46z" />
    <glyph glyph-name="Ygrave" unicode="&#x1ef2;" horiz-adv-x="623" 
d="M165 14q47 3 67 18t20 57v197l-172 285q-48 80 -100 83v14h262v-14q-73 -1 -73 -39q0 -17 16 -44l147 -246l152 246q20 32 20 50q0 32 -69 33v14h208v-14q-74 -1 -126 -83l-175 -282v-200q0 -42 20 -57t68 -18v-14h-265v14zM122 871h128l103 -134h-14z" />
    <glyph glyph-name="ygrave" unicode="&#x1ef3;" horiz-adv-x="451" 
d="M1 -106q39 -34 87 -34q32 0 57 25.5t48 80.5l15 37l-152 365q-28 66 -66 69v13h201v-13q-56 -3 -56 -35q0 -12 5 -23l111 -273l105 252q11 23 11 41q0 34 -59 38v13h151v-13q-43 -6 -76 -82l-165 -394q-40 -94 -81.5 -133.5t-101.5 -39.5q-29 0 -65 18zM93 698h117
l60 -160h-14z" />
    <glyph glyph-name="endash" unicode="&#x2013;" horiz-adv-x="418" 
d="M377 275v-29h-336v29h336z" />
    <glyph glyph-name="emdash" unicode="&#x2014;" horiz-adv-x="789" 
d="M748 275v-29h-707v29h707z" />
    <glyph glyph-name="quoteleft" unicode="&#x2018;" horiz-adv-x="249" 
d="M185 747q-33 -15 -57 -43t-25 -62q11 5 25 5q25 0 42 -17t17 -42q0 -27 -17.5 -45t-44.5 -18q-32 0 -49.5 22.5t-17.5 58.5q0 60 33 98t90 51z" />
    <glyph glyph-name="quoteright" unicode="&#x2019;" horiz-adv-x="249" 
d="M64 534q32 15 56.5 43.5t25.5 61.5q-11 -5 -25 -5q-26 0 -43 17t-17 43t17.5 44t45.5 18q32 0 49.5 -22.5t17.5 -58.5q0 -60 -33 -98t-90 -51z" />
    <glyph glyph-name="quotesinglbase" unicode="&#x201a;" horiz-adv-x="249" 
d="M64 -115q32 15 56.5 43t25.5 61q-12 -4 -25 -4q-26 0 -43 17t-17 42q0 27 17.5 45t45.5 18q32 0 49.5 -22.5t17.5 -59.5q0 -60 -33 -98t-90 -51z" />
    <glyph glyph-name="quotedblleft" unicode="&#x201c;" horiz-adv-x="416" 
d="M352 748q-32 -15 -56.5 -43.5t-25.5 -61.5q11 5 26 5q25 0 42 -17t17 -42q0 -27 -17.5 -45t-44.5 -18q-32 0 -50 22t-18 57q0 122 123 152zM57 605q0 122 123 152l4 -9q-32 -15 -56.5 -43.5t-25.5 -61.5q11 5 26 5q25 0 42 -17t17 -42q0 -27 -17.5 -45t-44.5 -18
q-32 0 -50 22t-18 57z" />
    <glyph glyph-name="quotedblright" unicode="&#x201d;" horiz-adv-x="416" 
d="M64 536q32 15 56 43t26 61q-11 -5 -25 -5q-26 0 -43 17t-17 43q0 27 17.5 44.5t45.5 17.5q32 0 49.5 -22t17.5 -59q0 -60 -33 -98t-90 -51zM229 695q0 27 17.5 44.5t45.5 17.5q32 0 49.5 -22t17.5 -59q0 -60 -33 -98t-90 -51l-4 9q32 15 56 43t26 61q-11 -5 -25 -5
q-26 0 -43 17t-17 43z" />
    <glyph glyph-name="quotedblbase" unicode="&#x201e;" horiz-adv-x="416" 
d="M64 -115q32 15 56.5 43t25.5 61q-12 -4 -25 -4q-26 0 -43 17t-17 42q0 27 17.5 45t45.5 18q32 0 49.5 -22.5t17.5 -59.5q0 -60 -33 -98t-90 -51zM229 44q0 27 17.5 45t45.5 18q32 0 49.5 -22.5t17.5 -59.5q0 -60 -33 -98t-90 -51l-4 9q32 15 56.5 43t25.5 61
q-12 -4 -25 -4q-26 0 -43 17t-17 42z" />
    <glyph glyph-name="dagger" unicode="&#x2020;" horiz-adv-x="524" 
d="M151 14q41 3 60.5 20t19.5 61v356h-76q-53 0 -71.5 -22.5t-19.5 -68.5h-14v207h14q1 -45 19.5 -67.5t71.5 -22.5h76v100q0 42 -19.5 58t-60.5 19v14h221v-14q-40 -3 -59.5 -19.5t-19.5 -57.5v-100h75q53 0 72 22.5t19 67.5h14v-207h-14q0 46 -19 68.5t-72 22.5h-75v-356
q0 -44 19 -61t60 -20v-14h-221v14z" />
    <glyph glyph-name="daggerdbl" unicode="&#x2021;" horiz-adv-x="524" 
d="M151 14q41 3 60.5 19.5t19.5 58.5v79h-79q-52 0 -69.5 -22t-18.5 -68h-14v206h14q1 -46 18.5 -68t69.5 -22h79v274h-79q-52 0 -69.5 -22t-18.5 -68h-14v206h14q1 -46 18.5 -68t69.5 -22h79v80q0 42 -19.5 58t-60.5 19v14h221v-14q-40 -3 -59.5 -19.5t-19.5 -57.5v-80h78
q52 0 70 22.5t18 67.5h14v-206h-14q0 45 -18 67.5t-70 22.5h-78v-274h78q52 0 70 22.5t18 67.5h14v-206h-14q0 45 -18 67.5t-70 22.5h-78v-79q0 -42 19.5 -58.5t59.5 -19.5v-14h-221v14z" />
    <glyph glyph-name="bullet" unicode="&#x2022;" horiz-adv-x="466" 
d="M235 72q-85 0 -143.5 58.5t-58.5 141.5t59 141.5t143 58.5q82 0 140 -58.5t58 -141.5t-58 -141.5t-140 -58.5z" />
    <glyph glyph-name="ellipsis" unicode="&#x2026;" horiz-adv-x="757" 
d="M126 -15q-28 0 -46.5 18t-18.5 46q0 27 18.5 44.5t46.5 17.5t46.5 -17.5t18.5 -44.5q0 -28 -18.5 -46t-46.5 -18zM314 49q0 27 18.5 44.5t46.5 17.5t46.5 -17.5t18.5 -44.5q0 -28 -18.5 -46t-46.5 -18t-46.5 18t-18.5 46zM566 49q0 27 18.5 44.5t46.5 17.5t46.5 -17.5
t18.5 -44.5q0 -28 -18.5 -46t-46.5 -18t-46.5 18t-18.5 46z" />
    <glyph glyph-name="perthousand" unicode="&#x2030;" horiz-adv-x="1112" 
d="M201 0h-28l380 668h28zM40 496q0 85 41.5 136t108.5 51q68 0 109.5 -51t41.5 -136q0 -81 -42 -134t-108 -53t-108.5 52.5t-42.5 134.5zM118 496q0 -79 19.5 -123t53.5 -44t53 44t19 123q0 167 -72 167q-73 0 -73 -167zM412 173q0 85 41.5 136t108.5 51q68 0 109.5 -51
t41.5 -136q0 -81 -42 -134t-108 -53t-108.5 52.5t-42.5 134.5zM490 173q0 -79 19.5 -123t53.5 -44t53 44t19 123q0 167 -72 167q-73 0 -73 -167zM770 173q0 85 41.5 136t108.5 51q68 0 109.5 -51t41.5 -136q0 -81 -42 -134t-108 -53t-108.5 52.5t-42.5 134.5zM848 173
q0 -79 19.5 -123t53.5 -44t53 44t19 123q0 167 -72 167q-73 0 -73 -167z" />
    <glyph glyph-name="guilsinglleft" unicode="&#x2039;" horiz-adv-x="312" 
d="M46 253v16l212 183l7 -6l-127 -184l127 -185l-7 -7z" />
    <glyph glyph-name="guilsinglright" unicode="&#x203a;" horiz-adv-x="312" 
d="M266 253l-212 -183l-7 7l127 185l-127 184l7 6l212 -183v-16z" />
    <glyph glyph-name="fraction" unicode="&#x2044;" horiz-adv-x="155" 
d="M-96 0h-28l380 668h28z" />
    <glyph glyph-name="uni2070" unicode="&#x2070;" horiz-adv-x="360" 
d="M180 349q-68 0 -110.5 53.5t-42.5 138.5t42.5 138t110.5 53t110.5 -53t42.5 -138q0 -86 -42.5 -139t-110.5 -53zM103 541q0 -177 77 -177q76 0 76 177t-76 177q-37 0 -57 -45.5t-20 -131.5z" />
    <glyph glyph-name="uni2074" unicode="&#x2074;" horiz-adv-x="325" 
d="M308 486v-34h-63v-34q0 -27 10 -38.5t38 -14.5v-8h-181v8q32 3 46 15t14 38v34h-166v7l175 265h64v-238h63zM42 486h130v196z" />
    <glyph glyph-name="uni2075" unicode="&#x2075;" horiz-adv-x="309" 
d="M36 533l39 191h196v-65h-193l-21 -100q45 21 93 21q57 0 96 -30.5t39 -85.5q0 -53 -38 -84t-100 -31q-58 0 -93 28.5t-34 83.5h73q-3 -17 -3 -30q0 -33 16 -49.5t43 -16.5q28 0 44 20.5t16 56.5q0 43 -28.5 68t-78.5 25q-31 0 -60 -8z" />
    <glyph glyph-name="uni2076" unicode="&#x2076;" horiz-adv-x="348" 
d="M178 349q-71 0 -111.5 49.5t-40.5 136.5q0 98 48.5 148t119.5 50q46 0 83.5 -24t40.5 -79h-78q1 5 1 16q0 32 -15.5 52t-39.5 20q-40 0 -63 -50t-21 -128q22 55 94 55q54 0 87.5 -34.5t33.5 -86.5q0 -57 -39.5 -91t-99.5 -34zM105 472q0 -48 19.5 -78t50.5 -30
q30 0 48.5 29t18.5 76q0 49 -18.5 75.5t-50.5 26.5t-50 -26t-18 -73z" />
    <glyph glyph-name="uni2077" unicode="&#x2077;" horiz-adv-x="295" 
d="M292 717q-66 -82 -93.5 -157t-27.5 -164q0 -26 1 -39h-81q-3 65 16.5 121t48 93t78.5 85h-98q-49 0 -74.5 -14t-34.5 -54h-8l14 144q39 -8 99 -8h160v-7z" />
    <glyph glyph-name="uni2078" unicode="&#x2078;" horiz-adv-x="339" 
d="M169 349q-63 0 -103 24.5t-40 67.5q0 65 85 89q-74 34 -74 101q0 46 36.5 74t98.5 28q57 0 93 -25t36 -62q0 -54 -76 -79q41 -16 65 -41t24 -70q0 -47 -37.5 -77t-107.5 -30zM87 451q0 -39 23.5 -63t59.5 -24q32 0 53 18.5t21 46.5q0 12 -3 21.5t-10.5 17.5t-14 14
t-20 12t-20.5 9.5t-24 9.5t-23 9q-42 -25 -42 -71zM107 660q0 -19 7 -32t25 -23.5t28 -15t38 -14.5q38 26 38 67q0 35 -20 55.5t-52 20.5q-29 0 -46.5 -16t-17.5 -42z" />
    <glyph glyph-name="uni2079" unicode="&#x2079;" horiz-adv-x="348" 
d="M170 732q71 0 111.5 -49.5t40.5 -136.5q0 -98 -48.5 -148t-119.5 -50q-46 0 -83.5 24t-40.5 79h78q-1 -5 -1 -16q0 -32 15.5 -52t39.5 -20q40 0 63 50t21 128q-22 -55 -94 -55q-54 0 -87.5 34.5t-33.5 86.5q0 57 39.5 91t99.5 34zM106 612q0 -49 18.5 -75.5t50.5 -26.5
t50 26t18 73q0 48 -19.5 78t-50.5 30q-30 0 -48.5 -29t-18.5 -76z" />
    <glyph glyph-name="Euro" unicode="&#x20ac;" horiz-adv-x="776" 
d="M57 437h108q29 113 113 179.5t200 66.5q112 0 178 -50.5t70 -131.5h-93q1 7 1 19q0 61 -41.5 98t-114.5 37q-87 0 -144.5 -59t-74.5 -159h280v-25h-284q-3 -27 -3 -56q0 -36 4 -63h283v-25h-278q20 -102 86 -157.5t156 -55.5q77 0 135 40.5t84 112.5l14 -3
q-24 -105 -97 -162.5t-174 -57.5q-120 0 -204 77.5t-103 205.5h-101v25h98q-2 26 -2 41q0 43 7 78h-103v25z" />
    <glyph glyph-name="uni20B9" unicode="&#x20b9;" horiz-adv-x="543" 
d="M338 0l-298 307v16h97q173 0 181 147h-278v25h278q-8 145 -181 145h-97v28h453v-25h-192q107 -42 114 -148h78v-25h-78q-4 -90 -68.5 -132.5t-172.5 -41.5h-3l188 -194q80 -81 163 -88v-14h-184z" />
    <glyph glyph-name="uni20BD" unicode="&#x20bd;" horiz-adv-x="630" 
d="M400 175v-25h-181v-55q0 -46 23.5 -62t86.5 -19v-14h-290v14q49 3 69.5 19.5t20.5 61.5v55h-109v25h109v119h-109v25h109v255q0 44 -21 60.5t-69 19.5v14h290q122 0 191 -47t69 -140q0 -94 -69.5 -141.5t-190.5 -47.5h-110v-117h181zM219 320h93q87 0 133.5 43.5
t46.5 117.5q0 73 -46.5 116t-133.5 43h-93v-320z" />
    <glyph glyph-name="uni2116" unicode="&#x2116;" horiz-adv-x="1070" 
d="M879 355q-65 0 -108 44t-43 120t43 120t107 44q65 0 108 -44t43 -120t-42.5 -120t-107.5 -44zM40 654v14h165l387 -514v428q0 42 -26 55.5t-83 16.5v14h214v-14q-39 -3 -58 -17t-19 -55v-597h-14l-441 584v-481q0 -18 5.5 -31t13.5 -20.5t23.5 -12t29 -6.5t36.5 -3v-15
h-213v14q27 2 41 6.5t25 21t11 46.5v490q0 69 -97 76zM738 248v30h281v-30h-281zM806 519q0 -144 73 -144q72 0 72 144t-72 144q-73 0 -73 -144z" />
    <glyph glyph-name="uni2117" unicode="&#x2117;" horiz-adv-x="518" 
d="M258 266q-86 0 -147 61t-61 147t61 147.5t147 61.5t148 -61.5t62 -147.5q0 -85 -62 -146.5t-148 -61.5zM66 474q0 -80 56.5 -136.5t135.5 -56.5q80 0 137 57t57 136q0 80 -57 137t-137 57q-79 0 -135.5 -57t-56.5 -137zM165 365v4q17 2 23 8.5t6 18.5v158q0 23 -29 27v4
h104q89 0 89 -62q0 -31 -24 -47t-65 -16h-35v-64q0 -13 7 -19t30 -8v-4h-106zM234 469h25q27 0 41.5 14.5t14.5 39.5q0 24 -14.5 38.5t-41.5 14.5h-25v-107z" />
    <glyph glyph-name="trademark" unicode="&#x2122;" horiz-adv-x="734" 
d="M185 447q0 -20 7 -27.5t28 -9.5v-10h-125v10q22 2 29.5 10t7.5 27v203h-14q-61 0 -78 -55h-10l11 77q37 -5 74 -5h86q37 0 74 5l11 -77h-10q-17 55 -79 55h-12v-203zM322 401v10q21 2 29.5 9t8.5 21v180q0 34 -38 38v9h91l98 -198l97 198h86v-9q-38 -3 -38 -38v-180
q0 -14 8.5 -20.5t29.5 -9.5v-10h-127v10q21 2 28.5 9t7.5 21v178l-108 -224h-6l-111 225v-179q0 -14 7.5 -20.5t29.5 -9.5v-10h-93z" />
    <glyph glyph-name="uni2126" unicode="&#x2126;" horiz-adv-x="764" 
d="M340 0h-92q-101 0 -161 -12l-26 177h13q18 -60 57.5 -84.5t115.5 -24.5h67v59q-111 10 -186 91.5t-75 199.5q0 127 90 202t239 75q150 0 239.5 -75t89.5 -203q0 -115 -73 -197.5t-188 -92.5v-60h68q75 0 114.5 24.5t57.5 84.5h12l-25 -176q-61 11 -161 11h-92v144
q74 0 131.5 76t57.5 189q0 116 -62 181t-169 65t-169.5 -65.5t-62.5 -180.5q0 -112 58 -188.5t132 -76.5v-143z" />
    <glyph glyph-name="estimated" unicode="&#x212e;" horiz-adv-x="797" 
d="M408 -14q-151 0 -254.5 100.5t-103.5 247.5t101 247.5t248 100.5q149 0 249 -101.5t99 -249.5h-569v-210q39 -43 98.5 -72t131.5 -29q155 0 249 133l28 -20q-46 -70 -118.5 -108.5t-158.5 -38.5zM178 372h442v177q-35 39 -94 69t-127 30q-69 0 -128.5 -30t-92.5 -70v-176
z" />
    <glyph glyph-name="oneeighth" unicode="&#x215b;" horiz-adv-x="742" 
d="M20 265q37 3 48 11.5t11 26.5l1 260h-60v8q79 20 125 58h7v-326q0 -20 11 -28t37 -10v-8h-180v8zM124 0l380 668h28l-380 -668h-28zM429 84q0 65 85 89q-74 34 -74 101q0 46 36.5 74t98.5 28q57 0 93 -25t36 -62q0 -54 -76 -79q41 -16 65 -41t24 -70q0 -47 -37.5 -77
t-107.5 -30q-63 0 -103 24.5t-40 67.5zM490 94q0 -39 23.5 -63t59.5 -24q32 0 53 18.5t21 46.5q0 12 -3 21.5t-10.5 17.5t-14 14t-20 12t-20.5 9.5t-24 9.5t-23 9q-42 -25 -42 -71zM510 303q0 -19 7 -32t25 -23.5t28 -15t38 -14.5q38 26 38 67q0 35 -20 55.5t-52 20.5
q-29 0 -46.5 -16t-17.5 -42z" />
    <glyph glyph-name="threeeighths" unicode="&#x215c;" horiz-adv-x="824" 
d="M161 249q-57 0 -97.5 28.5t-37.5 83.5h72q-3 -12 -3 -23q0 -31 18.5 -52t47.5 -21q30 0 50 22t20 60q0 39 -21.5 63t-60.5 24q-13 0 -28 -3l-4 10l107 115h-61q-49 0 -74.5 -14t-35.5 -54h-8l14 144q39 -8 99 -8h153v-7l-159 -165q23 8 48 8q47 0 77 -29.5t30 -69.5
q0 -48 -41.5 -80t-104.5 -32zM206 0l380 668h28l-380 -668h-28zM511 84q0 65 85 89q-74 34 -74 101q0 46 36.5 74t98.5 28q57 0 93 -25t36 -62q0 -54 -76 -79q41 -16 65 -41t24 -70q0 -47 -37.5 -77t-107.5 -30q-63 0 -103 24.5t-40 67.5zM572 94q0 -39 23.5 -63t59.5 -24
q32 0 53 18.5t21 46.5q0 12 -3 21.5t-10.5 17.5t-14 14t-20 12t-20.5 9.5t-24 9.5t-23 9q-42 -25 -42 -71zM592 303q0 -19 7 -32t25 -23.5t28 -15t38 -14.5q38 26 38 67q0 35 -20 55.5t-52 20.5q-29 0 -46.5 -16t-17.5 -42z" />
    <glyph glyph-name="fiveeighths" unicode="&#x215d;" horiz-adv-x="823" 
d="M36 433l39 191h196v-65h-193l-21 -100q45 21 93 21q57 0 96 -30.5t39 -85.5q0 -53 -38 -84t-100 -31q-58 0 -93 28.5t-34 83.5h73q-3 -17 -3 -30q0 -33 16 -49.5t43 -16.5q28 0 44 20.5t16 56.5q0 43 -28.5 68t-78.5 25q-31 0 -60 -8zM205 0l380 668h28l-380 -668h-28z
M510 84q0 65 85 89q-74 34 -74 101q0 46 36.5 74t98.5 28q57 0 93 -25t36 -62q0 -54 -76 -79q41 -16 65 -41t24 -70q0 -47 -37.5 -77t-107.5 -30q-63 0 -103 24.5t-40 67.5zM571 94q0 -39 23.5 -63t59.5 -24q32 0 53 18.5t21 46.5q0 12 -3 21.5t-10.5 17.5t-14 14t-20 12
t-20.5 9.5t-24 9.5t-23 9q-42 -25 -42 -71zM591 303q0 -19 7 -32t25 -23.5t28 -15t38 -14.5q38 26 38 67q0 35 -20 55.5t-52 20.5q-29 0 -46.5 -16t-17.5 -42z" />
    <glyph glyph-name="seveneighths" unicode="&#x215e;" horiz-adv-x="749" 
d="M292 617q-66 -82 -93.5 -157t-27.5 -164q0 -26 1 -39h-81q-3 65 16.5 121t48 93t78.5 85h-98q-49 0 -74.5 -14t-34.5 -54h-8l14 144q39 -8 99 -8h160v-7zM131 0l380 668h28l-380 -668h-28zM436 84q0 65 85 89q-74 34 -74 101q0 46 36.5 74t98.5 28q57 0 93 -25t36 -62
q0 -54 -76 -79q41 -16 65 -41t24 -70q0 -47 -37.5 -77t-107.5 -30q-63 0 -103 24.5t-40 67.5zM497 94q0 -39 23.5 -63t59.5 -24q32 0 53 18.5t21 46.5q0 12 -3 21.5t-10.5 17.5t-14 14t-20 12t-20.5 9.5t-24 9.5t-23 9q-42 -25 -42 -71zM517 303q0 -19 7 -32t25 -23.5
t28 -15t38 -14.5q38 26 38 67q0 35 -20 55.5t-52 20.5q-29 0 -46.5 -16t-17.5 -42z" />
    <glyph glyph-name="arrowleft" unicode="&#x2190;" horiz-adv-x="655" 
d="M250 487l19 -20l-182 -180h528v-28h-528l182 -179l-19 -20l-209 206v14z" />
    <glyph glyph-name="arrowup" unicode="&#x2191;" horiz-adv-x="508" 
d="M40 367l207 209h14l206 -209l-20 -19l-179 182v-528h-28v528l-180 -182z" />
    <glyph glyph-name="arrowright" unicode="&#x2192;" horiz-adv-x="655" 
d="M405 487l209 -207v-14l-209 -206l-19 20l182 179h-528v28h528l-182 180z" />
    <glyph glyph-name="arrowdown" unicode="&#x2193;" horiz-adv-x="508" 
d="M467 194l-207 -209h-14l-206 209l20 19l179 -182v528h28v-528l180 182z" />
    <glyph glyph-name="uni2196" unicode="&#x2196;" horiz-adv-x="532" 
d="M375 668l-1 -27l-256 1l374 -373l-20 -20l-374 373l3 -255l-28 -1l-2 294l10 10z" />
    <glyph glyph-name="uni2197" unicode="&#x2197;" horiz-adv-x="532" 
d="M157 625l294 1l10 -9l-2 -294l-28 1l2 255l-373 -373l-20 20l373 373l-256 -2v28z" />
    <glyph glyph-name="uni2198" unicode="&#x2198;" horiz-adv-x="532" 
d="M459 308l2 -294l-10 -10l-293 2v28l256 -3l-374 374l20 20l373 -374l-1 256z" />
    <glyph glyph-name="uni2199" unicode="&#x2199;" horiz-adv-x="532" 
d="M72 302l28 -1l-2 -256l374 374l19 -20l-373 -374l255 3l1 -28l-293 -2l-10 10z" />
    <glyph glyph-name="partialdiff" unicode="&#x2202;" horiz-adv-x="515" 
d="M223 11q70 0 114.5 79.5t44.5 191.5q0 158 -102 158q-73 0 -116 -79.5t-43 -190.5q0 -159 102 -159zM34 192q0 115 66 194t172 79q93 0 126 -72v30q0 233 -152 235q-58 0 -90.5 -34t-32.5 -84q0 -13 1 -20h-90q11 71 68 116.5t142 45.5q241 0 241 -305q0 -174 -71.5 -283
t-193.5 -109q-86 0 -136 54t-50 153z" />
    <glyph glyph-name="uni2206" unicode="&#x2206;" horiz-adv-x="648" 
d="M40 0v16l276 667h14l278 -666v-17h-568zM76 28h428l-215 523z" />
    <glyph glyph-name="product" unicode="&#x220f;" horiz-adv-x="770" 
d="M469 14q48 3 69 19.5t21 61.5v545h-338v-545q0 -45 21 -61.5t69 -19.5v-14h-270v14q48 3 69 19.5t21 61.5v479q0 44 -21 60.5t-69 19.5v14h698v-14q-48 -3 -68.5 -19.5t-20.5 -60.5v-479q0 -45 20.5 -61.5t68.5 -19.5v-14h-270v14z" />
    <glyph glyph-name="summation" unicode="&#x2211;" horiz-adv-x="624" 
d="M421 241l-261 -411h228q74 0 112 36t57 111h14l-27 -184q-51 9 -117 9h-380v14l274 430l-264 408v14h356q66 0 117 9l27 -184h-14q-19 75 -57 111t-112 36h-204l251 -390v-9z" />
    <glyph glyph-name="minus" unicode="&#x2212;" horiz-adv-x="507" 
d="M46 319v31h416v-31h-416z" />
    <glyph glyph-name="radical" unicode="&#x221a;" horiz-adv-x="467" 
d="M190 0l-125 333h-73v25h145l85 -232l189 542h26l-232 -668h-15z" />
    <glyph glyph-name="infinity" unicode="&#x221e;" horiz-adv-x="700" 
d="M533 485q63 0 98.5 -40.5t35.5 -108.5t-35.5 -108t-100.5 -40q-30 0 -53 7.5t-47.5 29.5t-36.5 35.5t-44 52.5q-54 -68 -95.5 -96.5t-87.5 -28.5q-62 0 -98 40.5t-36 107.5q0 68 36.5 108.5t101.5 40.5q29 0 52 -7.5t48.5 -31t36 -35t43.5 -51.5q56 71 95.5 98t86.5 27z
M64 338q0 -58 27.5 -89.5t76.5 -31.5q41 0 74.5 25.5t88.5 92.5q-54 68 -86.5 94t-77.5 26q-50 0 -76.5 -30.5t-26.5 -86.5zM370 338q53 -69 86 -95t77 -26q48 0 75.5 31t27.5 88t-27.5 88t-75.5 31q-43 0 -76.5 -25t-86.5 -92z" />
    <glyph glyph-name="approxequal" unicode="&#x2248;" horiz-adv-x="520" 
d="M475 314q2 -68 -22 -106.5t-72 -38.5q-27 0 -55 14.5t-77 50.5q-31 22 -45 31.5t-32 17.5t-33 8q-67 0 -62 -118h-32q-5 148 95 148q28 0 54.5 -14t77.5 -51q28 -21 42.5 -30.5t33 -18t32.5 -8.5q68 0 63 115h32zM45 354q-5 148 95 148q28 0 54.5 -14t77.5 -51
q28 -21 42.5 -30.5t33 -18t32.5 -8.5q68 0 63 115h32q2 -68 -22 -106.5t-72 -38.5q-27 0 -55 14.5t-77 50.5q-31 22 -45 31.5t-32 17.5t-33 8q-67 0 -62 -118h-32z" />
    <glyph glyph-name="notequal" unicode="&#x2260;" horiz-adv-x="531" 
d="M169 118l38 101h-160v31h172l65 170h-237v31h249l38 100h30l-38 -100h137v-31h-149l-65 -170h214v-31h-226l-38 -101h-30z" />
    <glyph glyph-name="lessequal" unicode="&#x2264;" horiz-adv-x="507" 
d="M461 0h-416v31h416v-31zM45 320v30l402 191l14 -28l-376 -178l376 -179l-14 -28z" />
    <glyph glyph-name="greaterequal" unicode="&#x2265;" horiz-adv-x="507" 
d="M46 0v31h416v-31h-416zM46 156l376 179l-376 178l14 28l402 -191v-30l-402 -192z" />
    <glyph glyph-name="uni2460" unicode="&#x2460;" 
d="M397 -14q-143 0 -245 102.5t-102 245.5t102 245.5t245 102.5q144 0 246.5 -102.5t102.5 -245.5t-102.5 -245.5t-246.5 -102.5zM75 333q0 -133 94 -227.5t227 -94.5q134 0 229.5 94.5t95.5 227.5q0 134 -95.5 229t-229.5 95q-133 0 -227 -95t-94 -229zM299 149v8
q37 3 48 11.5t11 26.5l1 260h-60v8q79 20 125 58h7v-326q0 -20 11 -28t37 -10v-8h-180z" />
    <glyph glyph-name="uni2461" unicode="&#x2461;" 
d="M397 -14q-143 0 -245 102.5t-102 245.5t102 245.5t245 102.5q144 0 246.5 -102.5t102.5 -245.5t-102.5 -245.5t-246.5 -102.5zM75 333q0 -133 94 -227.5t227 -94.5q134 0 229.5 94.5t95.5 227.5q0 134 -95.5 229t-229.5 95q-133 0 -227 -95t-94 -229zM248 149v8l32 33
q5 6 24 25.5t25 26t22 24t22 25t18.5 23.5t17.5 25t13 23t11.5 25t6 24t2.5 25q0 34 -15.5 54t-42.5 20q-25 0 -40 -19.5t-15 -51.5q0 -23 9 -50h-81q-6 68 32.5 102t96.5 34t95.5 -30.5t37.5 -79.5q0 -21 -6.5 -40t-23.5 -38t-29.5 -31.5t-42.5 -32.5t-43.5 -28.5
t-50.5 -30.5h122q36 0 55 13t28 47h8l-17 -125h-271z" />
    <glyph glyph-name="uni2462" unicode="&#x2462;" 
d="M397 -14q-143 0 -245 102.5t-102 245.5t102 245.5t245 102.5q144 0 246.5 -102.5t102.5 -245.5t-102.5 -245.5t-246.5 -102.5zM75 333q0 -133 94 -227.5t227 -94.5q134 0 229.5 94.5t95.5 227.5q0 134 -95.5 229t-229.5 95q-133 0 -227 -95t-94 -229zM252 255h72
q-3 -12 -3 -23q0 -31 18.5 -52t47.5 -21q30 0 50 22t20 60q0 39 -21.5 63t-60.5 24q-13 0 -28 -3l-4 10l107 115h-61q-49 0 -74.5 -14t-35.5 -54h-8l14 144q39 -8 99 -8h153v-7l-159 -165q23 8 48 8q47 0 77 -29.5t30 -69.5q0 -48 -41.5 -80t-104.5 -32q-57 0 -97.5 28.5
t-37.5 83.5z" />
    <glyph glyph-name="uni2463" unicode="&#x2463;" 
d="M397 -14q-143 0 -245 102.5t-102 245.5t102 245.5t245 102.5q144 0 246.5 -102.5t102.5 -245.5t-102.5 -245.5t-246.5 -102.5zM75 333q0 -133 94 -227.5t227 -94.5q134 0 229.5 94.5t95.5 227.5q0 134 -95.5 229t-229.5 95q-133 0 -227 -95t-94 -229zM217 244v7l175 265
h64v-238h63v-34h-63v-34q0 -27 10 -38.5t38 -14.5v-8h-181v8q32 3 46 15t14 38v34h-166zM253 278h130v196z" />
    <glyph glyph-name="uni2464" unicode="&#x2464;" 
d="M397 -14q-143 0 -245 102.5t-102 245.5t102 245.5t245 102.5q144 0 246.5 -102.5t102.5 -245.5t-102.5 -245.5t-246.5 -102.5zM75 333q0 -133 94 -227.5t227 -94.5q134 0 229.5 94.5t95.5 227.5q0 134 -95.5 229t-229.5 95q-133 0 -227 -95t-94 -229zM253 255h73
q-3 -17 -3 -30q0 -33 16 -49.5t43 -16.5q28 0 44 20.5t16 56.5q0 43 -28.5 68t-78.5 25q-31 0 -60 -8l-6 6l39 191h196v-65h-193l-21 -100q45 21 93 21q57 0 96 -30.5t39 -85.5q0 -53 -38 -84t-100 -31q-58 0 -93 28.5t-34 83.5z" />
    <glyph glyph-name="uni2465" unicode="&#x2465;" 
d="M397 -14q-143 0 -245 102.5t-102 245.5t102 245.5t245 102.5q144 0 246.5 -102.5t102.5 -245.5t-102.5 -245.5t-246.5 -102.5zM75 333q0 -133 94 -227.5t227 -94.5q134 0 229.5 94.5t95.5 227.5q0 134 -95.5 229t-229.5 95q-133 0 -227 -95t-94 -229zM243 328
q0 98 48.5 148t119.5 50q46 0 83.5 -24t40.5 -79h-78q1 5 1 16q0 32 -15.5 52t-39.5 20q-40 0 -63 -50t-21 -128q22 55 94 55q54 0 87.5 -34.5t33.5 -86.5q0 -57 -39.5 -91t-99.5 -34q-71 0 -111.5 49.5t-40.5 136.5zM322 265q0 -48 19.5 -78t50.5 -30q30 0 48.5 29t18.5 76
q0 49 -18.5 75.5t-50.5 26.5t-50 -26t-18 -73z" />
    <glyph glyph-name="uni2466" unicode="&#x2466;" 
d="M397 -14q-143 0 -245 102.5t-102 245.5t102 245.5t245 102.5q144 0 246.5 -102.5t102.5 -245.5t-102.5 -245.5t-246.5 -102.5zM75 333q0 -133 94 -227.5t227 -94.5q134 0 229.5 94.5t95.5 227.5q0 134 -95.5 229t-229.5 95q-133 0 -227 -95t-94 -229zM267 380l14 144
q39 -8 99 -8h160v-7q-66 -82 -93.5 -157t-27.5 -164q0 -26 1 -39h-81q-3 65 16.5 121t48 93t78.5 85h-98q-49 0 -74.5 -14t-34.5 -54h-8z" />
    <glyph glyph-name="uni2467" unicode="&#x2467;" 
d="M397 -14q-143 0 -245 102.5t-102 245.5t102 245.5t245 102.5q144 0 246.5 -102.5t102.5 -245.5t-102.5 -245.5t-246.5 -102.5zM75 333q0 -133 94 -227.5t227 -94.5q134 0 229.5 94.5t95.5 227.5q0 134 -95.5 229t-229.5 95q-133 0 -227 -95t-94 -229zM255 234q0 65 85 89
q-74 34 -74 101q0 46 36.5 74t98.5 28q57 0 93 -25t36 -62q0 -54 -76 -79q41 -16 65 -41t24 -70q0 -47 -37.5 -77t-107.5 -30q-63 0 -103 24.5t-40 67.5zM316 244q0 -39 23.5 -63t59.5 -24q32 0 53 18.5t21 46.5q0 12 -3 21.5t-10.5 17.5t-14 14t-20 12t-20.5 9.5t-24 9.5
t-23 9q-42 -25 -42 -71zM336 453q0 -19 7 -32t25 -23.5t28 -15t38 -14.5q38 26 38 67q0 35 -20 55.5t-52 20.5q-29 0 -46.5 -16t-17.5 -42z" />
    <glyph glyph-name="uni2468" unicode="&#x2468;" 
d="M397 -14q-143 0 -245 102.5t-102 245.5t102 245.5t245 102.5q144 0 246.5 -102.5t102.5 -245.5t-102.5 -245.5t-246.5 -102.5zM75 333q0 -133 94 -227.5t227 -94.5q134 0 229.5 94.5t95.5 227.5q0 134 -95.5 229t-229.5 95q-133 0 -227 -95t-94 -229zM256 245h78
q-1 -5 -1 -16q0 -32 15.5 -52t39.5 -20q40 0 63 50t21 128q-22 -55 -94 -55q-54 0 -87.5 34.5t-33.5 86.5q0 57 39.5 91t99.5 34q71 0 111.5 -49.5t40.5 -136.5q0 -98 -48.5 -148t-119.5 -50q-46 0 -83.5 24t-40.5 79zM332 406q0 -49 18.5 -75.5t50.5 -26.5t50 26t18 73
q0 48 -19.5 78t-50.5 30q-30 0 -48.5 -29t-18.5 -76z" />
    <glyph glyph-name="uni24EA" unicode="&#x24ea;" 
d="M397 -14q-143 0 -245 102.5t-102 245.5t102 245.5t245 102.5q144 0 246.5 -102.5t102.5 -245.5t-102.5 -245.5t-246.5 -102.5zM75 333q0 -133 94 -227.5t227 -94.5q134 0 229.5 94.5t95.5 227.5q0 134 -95.5 229t-229.5 95q-133 0 -227 -95t-94 -229zM242 335
q0 85 42.5 138t110.5 53t110.5 -53t42.5 -138q0 -86 -42.5 -139t-110.5 -53t-110.5 53.5t-42.5 138.5zM318 335q0 -177 77 -177q76 0 76 177t-76 177q-37 0 -57 -45.5t-20 -131.5z" />
    <glyph glyph-name="uni24FF" unicode="&#x24ff;" 
d="M397 -14q144 0 246.5 102.5t102.5 245.5t-102.5 245.5t-246.5 102.5q-143 0 -245 -102.5t-102 -245.5t102 -245.5t245 -102.5zM246 335q0 85 42.5 138t110.5 53t110.5 -53t42.5 -138q0 -86 -42.5 -139t-110.5 -53t-110.5 53.5t-42.5 138.5zM322 335q0 -177 77 -177
q76 0 76 177t-76 177q-37 0 -57 -45.5t-20 -131.5z" />
    <glyph glyph-name="lozenge" unicode="&#x25ca;" horiz-adv-x="461" 
d="M219 -15l-199 349l199 349h23l198 -349l-198 -349h-23zM49 334l181 -317l181 317l-181 317z" />
    <glyph glyph-name="circle" unicode="&#x25cb;" 
d="M397 -14q-143 0 -245 102.5t-102 245.5t102 245.5t245 102.5q144 0 246.5 -102.5t102.5 -245.5t-102.5 -245.5t-246.5 -102.5zM75 333q0 -133 94 -227.5t227 -94.5q134 0 229.5 94.5t95.5 227.5q0 134 -95.5 229t-229.5 95q-133 0 -227 -95t-94 -229z" />
    <glyph glyph-name="uni25CF" unicode="&#x25cf;" 
d="M397 -14q144 0 246.5 102.5t102.5 245.5t-102.5 245.5t-246.5 102.5q-143 0 -245 -102.5t-102 -245.5t102 -245.5t245 -102.5z" />
    <glyph glyph-name="uni2776" unicode="&#x2776;" 
d="M397 -14q144 0 246.5 102.5t102.5 245.5t-102.5 245.5t-246.5 102.5q-143 0 -245 -102.5t-102 -245.5t102 -245.5t245 -102.5zM306 149v8q37 3 48 11.5t11 26.5l1 260h-60v8q79 20 125 58h7v-326q0 -20 11 -28t37 -10v-8h-180z" />
    <glyph glyph-name="uni2777" unicode="&#x2777;" 
d="M397 -14q144 0 246.5 102.5t102.5 245.5t-102.5 245.5t-246.5 102.5q-143 0 -245 -102.5t-102 -245.5t102 -245.5t245 -102.5zM255 149v8l32 33q5 6 24 25.5t25 26t22 24t22 25t18.5 23.5t17.5 25t13 23t11.5 25t6 24t2.5 25q0 34 -15.5 54t-42.5 20q-25 0 -40 -19.5
t-15 -51.5q0 -23 9 -50h-81q-6 68 32.5 102t96.5 34t95.5 -30.5t37.5 -79.5q0 -21 -6.5 -40t-23.5 -38t-29.5 -31.5t-42.5 -32.5t-43.5 -28.5t-50.5 -30.5h122q36 0 55 13t28 47h8l-17 -125h-271z" />
    <glyph glyph-name="uni2778" unicode="&#x2778;" 
d="M397 -14q144 0 246.5 102.5t102.5 245.5t-102.5 245.5t-246.5 102.5q-143 0 -245 -102.5t-102 -245.5t102 -245.5t245 -102.5zM256 255h72q-3 -12 -3 -23q0 -31 18.5 -52t47.5 -21q30 0 50 22t20 60q0 39 -21.5 63t-60.5 24q-13 0 -28 -3l-4 10l107 115h-61
q-49 0 -74.5 -14t-35.5 -54h-8l14 144q39 -8 99 -8h153v-7l-159 -165q23 8 48 8q47 0 77 -29.5t30 -69.5q0 -48 -41.5 -80t-104.5 -32q-57 0 -97.5 28.5t-37.5 83.5z" />
    <glyph glyph-name="uni2779" unicode="&#x2779;" 
d="M397 -14q144 0 246.5 102.5t102.5 245.5t-102.5 245.5t-246.5 102.5q-143 0 -245 -102.5t-102 -245.5t102 -245.5t245 -102.5zM223 244v7l175 265h64v-238h63v-34h-63v-34q0 -27 10 -38.5t38 -14.5v-8h-181v8q32 3 46 15t14 38v34h-166zM259 278h130v196z" />
    <glyph glyph-name="uni277A" unicode="&#x277a;" 
d="M397 -14q144 0 246.5 102.5t102.5 245.5t-102.5 245.5t-246.5 102.5q-143 0 -245 -102.5t-102 -245.5t102 -245.5t245 -102.5zM260 255h73q-3 -17 -3 -30q0 -33 16 -49.5t43 -16.5q28 0 44 20.5t16 56.5q0 43 -28.5 68t-78.5 25q-31 0 -60 -8l-6 6l39 191h196v-65h-193
l-21 -100q45 21 93 21q57 0 96 -30.5t39 -85.5q0 -53 -38 -84t-100 -31q-58 0 -93 28.5t-34 83.5z" />
    <glyph glyph-name="uni277B" unicode="&#x277b;" 
d="M397 -14q144 0 246.5 102.5t102.5 245.5t-102.5 245.5t-246.5 102.5q-143 0 -245 -102.5t-102 -245.5t102 -245.5t245 -102.5zM243 328q0 98 48.5 148t119.5 50q46 0 83.5 -24t40.5 -79h-78q1 5 1 16q0 32 -15.5 52t-39.5 20q-40 0 -63 -50t-21 -128q22 55 94 55
q54 0 87.5 -34.5t33.5 -86.5q0 -57 -39.5 -91t-99.5 -34q-71 0 -111.5 49.5t-40.5 136.5zM322 265q0 -48 19.5 -78t50.5 -30q30 0 48.5 29t18.5 76q0 49 -18.5 75.5t-50.5 26.5t-50 -26t-18 -73z" />
    <glyph glyph-name="uni277C" unicode="&#x277c;" 
d="M397 -14q144 0 246.5 102.5t102.5 245.5t-102.5 245.5t-246.5 102.5q-143 0 -245 -102.5t-102 -245.5t102 -245.5t245 -102.5zM267 380l14 144q39 -8 99 -8h160v-7q-66 -82 -93.5 -157t-27.5 -164q0 -26 1 -39h-81q-3 65 16.5 121t48 93t78.5 85h-98q-49 0 -74.5 -14
t-34.5 -54h-8z" />
    <glyph glyph-name="uni277D" unicode="&#x277d;" 
d="M397 -14q144 0 246.5 102.5t102.5 245.5t-102.5 245.5t-246.5 102.5q-143 0 -245 -102.5t-102 -245.5t102 -245.5t245 -102.5zM255 234q0 65 85 89q-74 34 -74 101q0 46 36.5 74t98.5 28q57 0 93 -25t36 -62q0 -54 -76 -79q41 -16 65 -41t24 -70q0 -47 -37.5 -77
t-107.5 -30q-63 0 -103 24.5t-40 67.5zM316 244q0 -39 23.5 -63t59.5 -24q32 0 53 18.5t21 46.5q0 12 -3 21.5t-10.5 17.5t-14 14t-20 12t-20.5 9.5t-24 9.5t-23 9q-42 -25 -42 -71zM336 453q0 -19 7 -32t25 -23.5t28 -15t38 -14.5q38 26 38 67q0 35 -20 55.5t-52 20.5
q-29 0 -46.5 -16t-17.5 -42z" />
    <glyph glyph-name="uni277E" unicode="&#x277e;" 
d="M397 -14q144 0 246.5 102.5t102.5 245.5t-102.5 245.5t-246.5 102.5q-143 0 -245 -102.5t-102 -245.5t102 -245.5t245 -102.5zM256 245h78q-1 -5 -1 -16q0 -32 15.5 -52t39.5 -20q40 0 63 50t21 128q-22 -55 -94 -55q-54 0 -87.5 34.5t-33.5 86.5q0 57 39.5 91t99.5 34
q71 0 111.5 -49.5t40.5 -136.5q0 -98 -48.5 -148t-119.5 -50q-46 0 -83.5 24t-40.5 79zM332 406q0 -49 18.5 -75.5t50.5 -26.5t50 26t18 73q0 48 -19.5 78t-50.5 30q-30 0 -48.5 -29t-18.5 -76z" />
    <glyph glyph-name="M.titl" horiz-adv-x="927" 
d="M846 654q-46 -3 -65 -22.5t-15 -58.5l49 -491q4 -34 20.5 -48.5t61.5 -19.5v-14h-250v14q46 6 64.5 20.5t14.5 47.5l-49 481l-241 -578h-12l-238 579l-49 -482q-4 -35 15.5 -49t64.5 -19v-14h-187v14q46 6 62 20t19 48l50 491q4 39 -16.5 59t-65.5 22v14h161l223 -550
l230 550h153v-14z" />
    <glyph glyph-name="F_T" horiz-adv-x="1035" 
d="M220 640v-284h149q46 0 61.5 22t17.5 74h14v-219h-14q-2 52 -17.5 74.5t-61.5 22.5h-149v-238q0 -46 24.5 -60.5t95.5 -17.5v-14h-300v14q50 3 70 17.5t20 57.5v491q0 41 -20.5 56t-69.5 18v14h821q66 0 117 9l27 -184h-14q-19 75 -57 111t-112 36h-74v-537
q0 -51 19.5 -68.5t70.5 -20.5v-14h-270v14q50 3 69.5 20.5t19.5 68.5v537h-437z" />
    <glyph glyph-name="T_T" horiz-adv-x="1109" 
d="M822 103q0 -51 19.5 -68.5t70.5 -20.5v-14h-270v14q50 3 69.5 20.5t19.5 68.5v537h-353v-537q0 -51 19.5 -68.5t69.5 -20.5v-14h-270v14q51 3 70.5 20.5t19.5 68.5v537h-74q-74 0 -112 -36t-57 -111h-14l27 184q51 -9 117 -9h760q66 0 117 9l27 -184h-14q-19 75 -57 111
t-112 36h-73v-537z" />
    <glyph glyph-name="T_h" horiz-adv-x="1088" 
d="M1008 67q0 -24 13.5 -36.5t45.5 -16.5v-14h-200v14q32 5 46 17t14 36v239q0 53 -24.5 78.5t-65.5 25.5q-48 0 -83.5 -36t-35.5 -106v-201q0 -24 14 -36t46 -17v-14h-201v14q33 4 46.5 16.5t13.5 36.5v527q0 24 -9 35t-36 11h-214v-537q0 -51 19.5 -68.5t69.5 -20.5v-14
h-269v14q50 3 69.5 20.5t19.5 68.5v537h-82q-70 -2 -106 -38t-55 -109h-14l28 184q51 -9 116 -9h407l137 30v-351q20 57 60.5 87.5t94.5 30.5q62 0 98.5 -39.5t36.5 -112.5v-246z" />
    <glyph glyph-name="T_i" horiz-adv-x="783" 
d="M198 14q50 3 69.5 20.5t19.5 68.5v536l-69 1q-74 -1 -114.5 -37.5t-59.5 -109.5h-14l28 187q60 -12 160 -12h315q28 0 66 11.5t55 11.5q27 0 44.5 -17t17.5 -43t-17.5 -43t-43.5 -17q-27 0 -45 17t-18 43v5q-118 5 -214 5v-538q0 -51 19.5 -68.5t69.5 -20.5v-14h-269v14z
M552 416v14l142 35v-398q0 -24 14 -36t46 -17v-14h-200v14q32 5 46 17t14 36v297q0 47 -48 51z" />
    <glyph glyph-name="i.loclTRK" horiz-adv-x="261" 
d="M172 67q0 -24 14 -36t46 -17v-14h-200v14q32 5 46 17t14 36v297q0 47 -48 51l-14 1v14l142 35v-398zM69 641q0 26 18 43t45 17q26 0 43.5 -17t17.5 -43t-17.5 -43t-43.5 -17q-27 0 -45 17t-18 43z" />
    <glyph glyph-name="germandbls.calt" horiz-adv-x="830" 
d="M554 -14q-119 0 -202 75l12 141h15q23 -95 65.5 -141.5t110.5 -46.5q56 0 88 31t32 83q0 35 -19 63t-38 42t-76 49q-13 9 -20 13q-49 31 -76 54t-46 57.5t-19 77.5q0 118 127 156h-288v-545q0 -45 21 -61.5t69 -19.5v-14h-270v14q48 3 69 19.5t21 61.5v479q0 44 -21 60.5
t-69 19.5v14h631v-28h-35q-85 0 -132 -31.5t-47 -91.5q0 -44 27.5 -72.5t106.5 -77.5q95 -61 132 -103t37 -105q0 -81 -54.5 -127t-151.5 -46z" />
    <glyph glyph-name="a.ss01" horiz-adv-x="520" 
d="M487 34l14 -1v-14l-140 -35v125q-14 -59 -52 -91.5t-94 -32.5q-85 0 -136.5 65t-51.5 172q0 116 61 179.5t150 63.5q71 0 119 -39l83 39v-381q0 -46 47 -50zM115 238q0 -92 35 -145.5t91 -53.5q51 0 84 36.5t34 110.5v110q0 63 -31.5 103.5t-85.5 40.5q-62 0 -94.5 -56
t-32.5 -146z" />
    <glyph glyph-name="aacute.ss01" horiz-adv-x="520" 
d="M487 34l14 -1v-14l-140 -35v125q-14 -59 -52 -91.5t-94 -32.5q-85 0 -136.5 65t-51.5 172q0 116 61 179.5t150 63.5q71 0 119 -39l83 39v-381q0 -46 47 -50zM115 238q0 -92 35 -145.5t91 -53.5q51 0 84 36.5t34 110.5v110q0 63 -31.5 103.5t-85.5 40.5q-62 0 -94.5 -56
t-32.5 -146zM232 537l60 160h117l-163 -160h-14z" />
    <glyph glyph-name="abreve.ss01" horiz-adv-x="520" 
d="M487 34l14 -1v-14l-140 -35v125q-14 -59 -52 -91.5t-94 -32.5q-85 0 -136.5 65t-51.5 172q0 116 61 179.5t150 63.5q71 0 119 -39l83 39v-381q0 -46 47 -50zM115 238q0 -92 35 -145.5t91 -53.5q51 0 84 36.5t34 110.5v110q0 63 -31.5 103.5t-85.5 40.5q-62 0 -94.5 -56
t-32.5 -146zM137 689h12q5 -88 107 -88q104 0 109 88h12q1 -71 -30.5 -109t-90.5 -38q-58 0 -89 38t-30 109z" />
    <glyph glyph-name="acircumflex.ss01" horiz-adv-x="520" 
d="M487 34l14 -1v-14l-140 -35v125q-14 -59 -52 -91.5t-94 -32.5q-85 0 -136.5 65t-51.5 172q0 116 61 179.5t150 63.5q71 0 119 -39l83 39v-381q0 -46 47 -50zM113 537l99 141h88l98 -141h-13l-128 87l-130 -87h-14zM115 238q0 -92 35 -145.5t91 -53.5q51 0 84 36.5
t34 110.5v110q0 63 -31.5 103.5t-85.5 40.5q-62 0 -94.5 -56t-32.5 -146z" />
    <glyph glyph-name="adieresis.ss01" horiz-adv-x="520" 
d="M487 34l14 -1v-14l-140 -35v125q-14 -59 -52 -91.5t-94 -32.5q-85 0 -136.5 65t-51.5 172q0 116 61 179.5t150 63.5q71 0 119 -39l83 39v-381q0 -46 47 -50zM113 610q0 23 17 39t42 16q23 0 39.5 -16t16.5 -39q0 -24 -16.5 -40t-39.5 -16q-25 0 -42 16t-17 40zM115 238
q0 -92 35 -145.5t91 -53.5q51 0 84 36.5t34 110.5v110q0 63 -31.5 103.5t-85.5 40.5q-62 0 -94.5 -56t-32.5 -146zM285 610q0 23 17 39t42 16q24 0 40 -16t16 -39q0 -24 -16 -40t-40 -16q-25 0 -42 16t-17 40z" />
    <glyph glyph-name="agrave.ss01" horiz-adv-x="520" 
d="M487 34l14 -1v-14l-140 -35v125q-14 -59 -52 -91.5t-94 -32.5q-85 0 -136.5 65t-51.5 172q0 116 61 179.5t150 63.5q71 0 119 -39l83 39v-381q0 -46 47 -50zM115 238q0 -92 35 -145.5t91 -53.5q51 0 84 36.5t34 110.5v110q0 63 -31.5 103.5t-85.5 40.5q-62 0 -94.5 -56
t-32.5 -146zM120 697h117l60 -160h-14z" />
    <glyph glyph-name="amacron.ss01" horiz-adv-x="520" 
d="M487 34l14 -1v-14l-140 -35v125q-14 -59 -52 -91.5t-94 -32.5q-85 0 -136.5 65t-51.5 172q0 116 61 179.5t150 63.5q71 0 119 -39l83 39v-381q0 -46 47 -50zM115 238q0 -92 35 -145.5t91 -53.5q51 0 84 36.5t34 110.5v110q0 63 -31.5 103.5t-85.5 40.5q-62 0 -94.5 -56
t-32.5 -146zM121 578v24h271v-24h-271z" />
    <glyph glyph-name="aogonek.ss01" horiz-adv-x="520" 
d="M487 34l14 -1v-14l-100 -25q-31 -22 -50.5 -52.5t-19.5 -59.5q0 -26 15.5 -42t39.5 -16q38 0 71 42l8 -4q-14 -34 -41.5 -54t-59.5 -20q-42 0 -67 21t-25 56q0 74 89 119v125q-14 -59 -52 -91.5t-94 -32.5q-85 0 -136.5 65t-51.5 172q0 116 61 179.5t150 63.5
q71 0 119 -39l83 39v-381q0 -46 47 -50zM115 238q0 -92 35 -145.5t91 -53.5q51 0 84 36.5t34 110.5v110q0 63 -31.5 103.5t-85.5 40.5q-62 0 -94.5 -56t-32.5 -146z" />
    <glyph glyph-name="aring.ss01" horiz-adv-x="520" 
d="M487 34l14 -1v-14l-140 -35v125q-14 -59 -52 -91.5t-94 -32.5q-85 0 -136.5 65t-51.5 172q0 116 61 179.5t150 63.5q71 0 119 -39l83 39v-381q0 -46 47 -50zM115 238q0 -92 35 -145.5t91 -53.5q51 0 84 36.5t34 110.5v110q0 63 -31.5 103.5t-85.5 40.5q-62 0 -94.5 -56
t-32.5 -146zM162 626q0 38 27 63t68 25t68 -25t27 -63t-27.5 -63t-67.5 -25q-41 0 -68 25t-27 63zM187 626q0 -29 20 -48.5t50 -19.5t50 19.5t20 48.5q0 30 -20 49t-50 19t-50 -19t-20 -49z" />
    <glyph glyph-name="aringacute.ss01" horiz-adv-x="520" 
d="M487 34l14 -1v-14l-140 -35v125q-14 -59 -52 -91.5t-94 -32.5q-85 0 -136.5 65t-51.5 172q0 116 61 179.5t150 63.5q71 0 119 -39l83 39v-381q0 -46 47 -50zM115 238q0 -92 35 -145.5t91 -53.5q51 0 84 36.5t34 110.5v110q0 63 -31.5 103.5t-85.5 40.5q-62 0 -94.5 -56
t-32.5 -146zM162 626q0 36 24 60.5t63 27.5l101 131h128l-213 -131q38 -3 62.5 -27.5t24.5 -60.5q0 -38 -27.5 -63t-67.5 -25q-41 0 -68 25t-27 63zM187 626q0 -29 20 -48.5t50 -19.5t50 19.5t20 48.5q0 30 -20 49t-50 19t-50 -19t-20 -49z" />
    <glyph glyph-name="atilde.ss01" horiz-adv-x="520" 
d="M487 34l14 -1v-14l-140 -35v125q-14 -59 -52 -91.5t-94 -32.5q-85 0 -136.5 65t-51.5 172q0 116 61 179.5t150 63.5q71 0 119 -39l83 39v-381q0 -46 47 -50zM115 238q0 -92 35 -145.5t91 -53.5q51 0 84 36.5t34 110.5v110q0 63 -31.5 103.5t-85.5 40.5q-62 0 -94.5 -56
t-32.5 -146zM118 564v28q0 80 67 80q27 0 78 -26t74 -26q20 0 29.5 10.5t12.5 40.5h11v-28q0 -80 -66 -80q-27 0 -78.5 26t-74.5 26q-20 0 -29.5 -10.5t-12.5 -40.5h-11z" />
    <glyph glyph-name="ae.ss01" horiz-adv-x="804" 
d="M227 -15q-86 0 -140 66.5t-54 169.5q0 114 63 179t151 65q69 0 115 -37l59 37v-85q59 85 169 85q79 0 126 -44t47 -121q0 -10 -2 -32h-311q0 -4 -0.5 -11t-0.5 -11q0 -90 44 -145.5t121 -55.5q49 0 85 27.5t52 68.5l12 -3q-14 -71 -64 -111.5t-124 -40.5q-70 0 -122 38.5
t-74 105.5q-10 -73 -50 -109t-102 -36zM121 235q0 -88 38.5 -142t96.5 -54q46 0 77.5 34.5t31.5 103.5v111q0 68 -29 110t-81 42q-62 0 -98 -59.5t-36 -145.5zM452 293h225q2 18 2 27q0 56 -28.5 88t-74.5 32q-49 0 -81.5 -39t-42.5 -108z" />
    <glyph glyph-name="aeacute.ss01" horiz-adv-x="804" 
d="M227 -15q-86 0 -140 66.5t-54 169.5q0 114 63 179t151 65q69 0 115 -37l59 37v-85q59 85 169 85q79 0 126 -44t47 -121q0 -10 -2 -32h-311q0 -4 -0.5 -11t-0.5 -11q0 -90 44 -145.5t121 -55.5q49 0 85 27.5t52 68.5l12 -3q-14 -71 -64 -111.5t-124 -40.5q-70 0 -122 38.5
t-74 105.5q-10 -73 -50 -109t-102 -36zM121 235q0 -88 38.5 -142t96.5 -54q46 0 77.5 34.5t31.5 103.5v111q0 68 -29 110t-81 42q-62 0 -98 -59.5t-36 -145.5zM389 537l60 160h117l-163 -160h-14zM452 293h225q2 18 2 27q0 56 -28.5 88t-74.5 32q-49 0 -81.5 -39t-42.5 -108
z" />
    <glyph glyph-name="g.ss02" horiz-adv-x="495" 
d="M256 -212q-83 0 -135.5 42.5t-53.5 111.5h91q-6 -19 -6 -38q0 -41 28 -66t76 -25q51 0 80 37.5t29 102.5v147q-16 -56 -53 -85.5t-90 -29.5q-85 0 -137 65t-52 172q0 116 61.5 179.5t149.5 63.5q73 0 120 -39l82 39v-479q0 -93 -51 -145.5t-139 -52.5zM122 238
q0 -92 34.5 -145.5t90.5 -53.5q51 0 84.5 36.5t33.5 110.5v110q0 63 -31 103.5t-85 40.5q-63 0 -95 -56t-32 -146z" />
    <glyph glyph-name="gbreve.ss02" horiz-adv-x="495" 
d="M256 -212q-83 0 -135.5 42.5t-53.5 111.5h91q-6 -19 -6 -38q0 -41 28 -66t76 -25q51 0 80 37.5t29 102.5v147q-16 -56 -53 -85.5t-90 -29.5q-85 0 -137 65t-52 172q0 116 61.5 179.5t149.5 63.5q73 0 120 -39l82 39v-479q0 -93 -51 -145.5t-139 -52.5zM122 238
q0 -92 34.5 -145.5t90.5 -53.5q51 0 84.5 36.5t33.5 110.5v110q0 63 -31 103.5t-85 40.5q-63 0 -95 -56t-32 -146zM138 689h12q5 -88 107 -88q103 0 109 88h12q1 -71 -30.5 -109t-90.5 -38q-58 0 -89 38t-30 109z" />
    <glyph glyph-name="gcircumflex.ss02" horiz-adv-x="495" 
d="M256 -212q-83 0 -135.5 42.5t-53.5 111.5h91q-6 -19 -6 -38q0 -41 28 -66t76 -25q51 0 80 37.5t29 102.5v147q-16 -56 -53 -85.5t-90 -29.5q-85 0 -137 65t-52 172q0 116 61.5 179.5t149.5 63.5q73 0 120 -39l82 39v-479q0 -93 -51 -145.5t-139 -52.5zM114 537l99 141h88
l98 -141h-13l-128 87l-130 -87h-14zM122 238q0 -92 34.5 -145.5t90.5 -53.5q51 0 84.5 36.5t33.5 110.5v110q0 63 -31 103.5t-85 40.5q-63 0 -95 -56t-32 -146z" />
    <glyph glyph-name="uni0123.ss02" horiz-adv-x="495" 
d="M256 -212q-83 0 -135.5 42.5t-53.5 111.5h91q-6 -19 -6 -38q0 -41 28 -66t76 -25q51 0 80 37.5t29 102.5v147q-16 -56 -53 -85.5t-90 -29.5q-85 0 -137 65t-52 172q0 116 61.5 179.5t149.5 63.5q73 0 120 -39l82 39v-479q0 -93 -51 -145.5t-139 -52.5zM122 238
q0 -92 34.5 -145.5t90.5 -53.5q51 0 84.5 36.5t33.5 110.5v110q0 63 -31 103.5t-85 40.5q-63 0 -95 -56t-32 -146zM202 635q0 47 30 78.5t76 36.5v-14q-61 -10 -64 -73q9 3 18 3q21 0 35.5 -15.5t14.5 -36.5q0 -24 -15 -38.5t-38 -14.5q-27 0 -42 19.5t-15 54.5z" />
    <glyph glyph-name="gdotaccent.ss02" horiz-adv-x="495" 
d="M256 -212q-83 0 -135.5 42.5t-53.5 111.5h91q-6 -19 -6 -38q0 -41 28 -66t76 -25q51 0 80 37.5t29 102.5v147q-16 -56 -53 -85.5t-90 -29.5q-85 0 -137 65t-52 172q0 116 61.5 179.5t149.5 63.5q73 0 120 -39l82 39v-479q0 -93 -51 -145.5t-139 -52.5zM122 238
q0 -92 34.5 -145.5t90.5 -53.5q51 0 84.5 36.5t33.5 110.5v110q0 63 -31 103.5t-85 40.5q-63 0 -95 -56t-32 -146zM195 641q0 26 18 43t45 17q26 0 43.5 -17t17.5 -43t-17.5 -43t-43.5 -17q-27 0 -45 17t-18 43z" />
    <glyph glyph-name="g.ss03" horiz-adv-x="495" 
d="M89 -197l5 117h14q16 -47 49.5 -69.5t74.5 -22.5h65q31 0 49.5 20t18.5 53v199q-16 -56 -53 -85.5t-90 -29.5q-85 0 -137 65t-52 172q0 116 61.5 179.5t149.5 63.5q72 0 120 -39l82 39v-529q0 -62 -34.5 -97.5t-95.5 -35.5h-227zM122 238q0 -92 34.5 -145.5t90.5 -53.5
q51 0 84.5 36.5t33.5 110.5v110q0 63 -31 103.5t-85 40.5q-63 0 -95 -56t-32 -146z" />
    <glyph glyph-name="gbreve.ss03" horiz-adv-x="495" 
d="M89 -197l5 117h14q16 -47 49.5 -69.5t74.5 -22.5h65q31 0 49.5 20t18.5 53v199q-16 -56 -53 -85.5t-90 -29.5q-85 0 -137 65t-52 172q0 116 61.5 179.5t149.5 63.5q72 0 120 -39l82 39v-529q0 -62 -34.5 -97.5t-95.5 -35.5h-227zM122 238q0 -92 34.5 -145.5t90.5 -53.5
q51 0 84.5 36.5t33.5 110.5v110q0 63 -31 103.5t-85 40.5q-63 0 -95 -56t-32 -146zM138 689h12q5 -88 107 -88q103 0 109 88h12q1 -71 -30.5 -109t-90.5 -38q-58 0 -89 38t-30 109z" />
    <glyph glyph-name="gcircumflex.ss03" horiz-adv-x="495" 
d="M89 -197l5 117h14q16 -47 49.5 -69.5t74.5 -22.5h65q31 0 49.5 20t18.5 53v199q-16 -56 -53 -85.5t-90 -29.5q-85 0 -137 65t-52 172q0 116 61.5 179.5t149.5 63.5q72 0 120 -39l82 39v-529q0 -62 -34.5 -97.5t-95.5 -35.5h-227zM114 537l99 141h88l98 -141h-13l-128 87
l-130 -87h-14zM122 238q0 -92 34.5 -145.5t90.5 -53.5q51 0 84.5 36.5t33.5 110.5v110q0 63 -31 103.5t-85 40.5q-63 0 -95 -56t-32 -146z" />
    <glyph glyph-name="uni0123.ss03" horiz-adv-x="495" 
d="M89 -197l5 117h14q16 -47 49.5 -69.5t74.5 -22.5h65q31 0 49.5 20t18.5 53v199q-16 -56 -53 -85.5t-90 -29.5q-85 0 -137 65t-52 172q0 116 61.5 179.5t149.5 63.5q72 0 120 -39l82 39v-529q0 -62 -34.5 -97.5t-95.5 -35.5h-227zM122 238q0 -92 34.5 -145.5t90.5 -53.5
q51 0 84.5 36.5t33.5 110.5v110q0 63 -31 103.5t-85 40.5q-63 0 -95 -56t-32 -146zM202 635q0 47 30 78.5t76 36.5v-14q-61 -10 -64 -73q9 3 18 3q21 0 35.5 -15.5t14.5 -36.5q0 -24 -15 -38.5t-38 -14.5q-27 0 -42 19.5t-15 54.5z" />
    <glyph glyph-name="gdotaccent.ss03" horiz-adv-x="495" 
d="M89 -197l5 117h14q16 -47 49.5 -69.5t74.5 -22.5h65q31 0 49.5 20t18.5 53v199q-16 -56 -53 -85.5t-90 -29.5q-85 0 -137 65t-52 172q0 116 61.5 179.5t149.5 63.5q72 0 120 -39l82 39v-529q0 -62 -34.5 -97.5t-95.5 -35.5h-227zM122 238q0 -92 34.5 -145.5t90.5 -53.5
q51 0 84.5 36.5t33.5 110.5v110q0 63 -31 103.5t-85 40.5q-63 0 -95 -56t-32 -146zM195 641q0 26 18 43t45 17q26 0 43.5 -17t17.5 -43t-17.5 -43t-43.5 -17q-27 0 -45 17t-18 43z" />
    <glyph glyph-name="r.ss04" horiz-adv-x="411" 
d="M348 332q-19 93 -83 93h-36q-30 0 -46.5 -18t-16.5 -52v-288q0 -25 20.5 -37.5t66.5 -15.5v-14h-227v14q32 5 46 17t14 36v258q-1 58 30 91.5t88 33.5h163l-5 -118h-14z" />
    <glyph glyph-name="racute.ss04" horiz-adv-x="411" 
d="M348 332q-19 93 -83 93h-36q-30 0 -46.5 -18t-16.5 -52v-288q0 -25 20.5 -37.5t66.5 -15.5v-14h-227v14q32 5 46 17t14 36v258q-1 58 30 91.5t88 33.5h163l-5 -118h-14zM205 537l60 160h117l-163 -160h-14z" />
    <glyph glyph-name="rcaron.ss04" horiz-adv-x="411" 
d="M348 332q-19 93 -83 93h-36q-30 0 -46.5 -18t-16.5 -52v-288q0 -25 20.5 -37.5t66.5 -15.5v-14h-227v14q32 5 46 17t14 36v258q-1 58 30 91.5t88 33.5h163l-5 -118h-14zM86 688h14l130 -87l128 87h13l-98 -141h-88z" />
    <glyph glyph-name="uni0157.ss04" horiz-adv-x="411" 
d="M348 332q-19 93 -83 93h-36q-30 0 -46.5 -18t-16.5 -52v-288q0 -25 20.5 -37.5t66.5 -15.5v-14h-227v14q32 5 46 17t14 36v258q-1 58 30 91.5t88 33.5h163l-5 -118h-14zM80 -141q0 24 15 38.5t38 14.5q27 0 42 -19.5t15 -54.5q0 -47 -30 -78.5t-76 -36.5v14q61 10 64 73
q-9 -3 -18 -3q-21 0 -35.5 15.5t-14.5 36.5z" />
    <glyph glyph-name="f_b" horiz-adv-x="844" 
d="M395 601q-37 58 -97 58q-56 0 -88 -45t-32 -113v-51h110v-25h-110v-358q0 -25 20.5 -37.5t66.5 -15.5v-14h-227v14q32 5 46 17t14 36v358h-76v25h76v30q0 95 56.5 149t144.5 54q55 0 102 -25l75 33v-341q14 55 52 85t91 30q85 0 137 -65t52 -171q0 -116 -61.5 -180
t-149.5 -64q-73 0 -120 39l-82 -39v616zM476 154q0 -63 31.5 -103.5t84.5 -40.5q63 0 95 56t32 146q0 92 -34.5 146t-90.5 54q-51 0 -84.5 -37t-33.5 -111v-110z" />
    <glyph glyph-name="f_j" horiz-adv-x="520" 
d="M387 450l89 15v-390q0 -110 -39 -177.5t-139 -109.5l-6 11q53 41 78 94.5t25 150.5v332q0 42 -39 49h-178v-177h1v-181q0 -25 20 -37.5t66 -15.5v-14h-227v14q33 4 46.5 16.5t13.5 36.5v358h-76v25h76v25q0 96 60 152t149 56q98 0 135 -32l-14 -102h-12q-5 48 -40 78.5
t-83 30.5q-53 0 -84 -45t-31 -113v-50h209z" />
    <glyph glyph-name="ordfeminine.ss01" horiz-adv-x="359" 
d="M328 419l12 -2v-11l-108 -29v76q-18 -74 -90 -74q-52 0 -83.5 40.5t-31.5 108.5q0 74 39.5 115t96.5 41q50 0 82 -32l46 32h10v-235q0 -26 27 -30zM102 543q0 -60 17.5 -91.5t48.5 -31.5q25 0 42 19t19 57v98q-10 71 -60 71q-67 0 -67 -122z" />
    <glyph glyph-name="zero.tf" horiz-adv-x="607" 
d="M303 -15q-115 0 -187 97t-72 252t72 252t187 97t187 -97t72 -252t-72 -252t-187 -97zM141 334q0 -154 42.5 -238t119.5 -84t119 84t42 238t-42 238t-119 84t-119.5 -84t-42.5 -238z" />
    <glyph glyph-name="one.tf" horiz-adv-x="607" 
d="M74 14q121 4 159.5 19.5t38.5 64.5l3 471h-200v14q106 16 169.5 36.5t108.5 53.5h11v-575q0 -47 36 -64t142 -20v-14h-468v14z" />
    <glyph glyph-name="two.tf" horiz-adv-x="607" 
d="M54 0v14l51 52q11 11 32 33q61 63 90.5 94t72 82t62 84t34.5 74t15 79q0 64 -34 104t-92 40q-52 0 -85.5 -36t-33.5 -98q0 -34 12 -74h-104q-2 22 -2 32q0 99 63 151t153 52q97 0 159 -54.5t62 -138.5q0 -43 -21 -87.5t-43 -75t-80 -79.5t-85 -69t-106 -76
q-15 -11 -22 -16h226q68 0 95.5 19.5t45.5 84.5h14l-28 -191h-451z" />
    <glyph glyph-name="three.tf" horiz-adv-x="607" 
d="M291 -14q-100 0 -167 54t-59 145h94q-4 -16 -4 -36q0 -57 38 -96t99 -39q64 0 105 43t41 116q0 72 -42.5 117t-121.5 45q-30 0 -55 -5l-1 16l209 236h-151q-80 0 -119.5 -26t-57.5 -96h-14l28 220q60 -12 161 -12h264v-14l-265 -292q39 9 72 9q89 0 139.5 -53.5
t50.5 -127.5q0 -89 -68 -146.5t-176 -57.5z" />
    <glyph glyph-name="four.tf" horiz-adv-x="607" 
d="M234 14q59 3 88 22.5t29 70.5v67h-319v14l347 484h62v-433h120v-65h-120v-67q0 -52 20.5 -71t70.5 -22v-14h-298v14zM102 239h249v347z" />
    <glyph glyph-name="five.tf" horiz-adv-x="607" 
d="M105 351l66 317h340v-86h-329l-40 -190q71 21 136 21q112 0 183.5 -58t71.5 -163q0 -93 -65.5 -149.5t-170.5 -56.5q-102 0 -163 52t-54 147h93q-4 -20 -4 -42q0 -60 34.5 -94.5t93.5 -34.5q63 0 100.5 42.5t37.5 114.5q0 82 -58 130.5t-166 48.5q-44 0 -95 -9z" />
    <glyph glyph-name="six.tf" horiz-adv-x="607" 
d="M314 -15q-123 0 -191 90.5t-68 252.5q0 79 18 142.5t47 102t67 64.5t75.5 36t76.5 10q36 0 69.5 -9t65.5 -29t52.5 -57.5t22.5 -88.5h-101q0 3 0.5 9t0.5 9q0 66 -35.5 102.5t-85.5 36.5q-71 0 -123 -79t-52 -233v-37q40 116 179 116q98 0 157.5 -60t59.5 -154
q0 -100 -66.5 -162t-168.5 -62zM164 209q0 -85 41 -141t107 -56q62 0 101 52.5t39 135.5q0 85 -39.5 133.5t-106.5 48.5q-66 0 -104 -46t-38 -127z" />
    <glyph glyph-name="seven.tf" horiz-adv-x="607" 
d="M541 654q-224 -260 -224 -594q0 -20 2 -60h-103q-2 34 -2 49q0 161 66.5 289.5t182.5 243.5h-196q-80 0 -119 -26t-57 -96h-14l27 220q60 -12 161 -12h276v-14z" />
    <glyph glyph-name="eight.tf" horiz-adv-x="607" 
d="M303 -15q-105 0 -172.5 47t-67.5 124q0 56 38.5 101t112.5 72q-63 28 -98 69.5t-35 109.5q0 78 63 126.5t162 48.5q97 0 159.5 -45.5t62.5 -115.5q0 -102 -140 -156q74 -31 115.5 -74.5t41.5 -122.5q0 -81 -65 -132.5t-177 -51.5zM143 169q0 -72 45.5 -114.5t116.5 -42.5
q67 0 110 36t43 91q0 23 -6 42t-20 34.5t-26.5 26.5t-36.5 22.5t-39 18t-45 17.5t-44 17q-98 -55 -98 -148zM168 540q0 -15 3 -28t7 -23.5t13.5 -21t15.5 -17.5t21 -15.5t22 -13t26 -12.5t26 -10.5t29 -11t28 -10.5q91 51 91 136q0 67 -40 105.5t-105 38.5q-61 0 -99 -33.5
t-38 -83.5z" />
    <glyph glyph-name="nine.tf" horiz-adv-x="607" 
d="M292 683q123 0 191 -90.5t68 -252.5q0 -79 -18 -142.5t-47 -102t-67 -64.5t-75.5 -36t-76.5 -10q-36 0 -69.5 9t-65.5 29t-52.5 57.5t-22.5 88.5h101q0 -3 -0.5 -9t-0.5 -9q0 -66 35.5 -102.5t85.5 -36.5q71 0 123 79t52 233v37q-40 -116 -179 -116q-98 0 -157.5 60
t-59.5 154q0 100 66.5 162t168.5 62zM154 468q0 -85 39.5 -133.5t106.5 -48.5q66 0 104 46t38 127q0 85 -41 141t-107 56q-62 0 -101 -52.5t-39 -135.5z" />
    <glyph glyph-name="zero.sinf" horiz-adv-x="360" 
d="M180 -168q-68 0 -110.5 53.5t-42.5 138.5t42.5 138t110.5 53t110.5 -53t42.5 -138q0 -86 -42.5 -139t-110.5 -53zM103 24q0 -177 77 -177q76 0 76 177t-76 177q-37 0 -57 -45.5t-20 -131.5z" />
    <glyph glyph-name="one.sinf" horiz-adv-x="208" 
d="M20 -152q37 3 48 11.5t11 26.5l1 260h-60v8q79 20 125 58h7v-326q0 -20 11 -28t37 -10v-8h-180v8z" />
    <glyph glyph-name="two.sinf" horiz-adv-x="339" 
d="M23 -160v8l32 33q5 6 24 25.5t25 26t22 24t22 25t18.5 23.5t17.5 25t13 23t11.5 25t6 24t2.5 25q0 34 -15.5 54t-42.5 20q-25 0 -40 -19.5t-15 -51.5q0 -23 9 -50h-81q-6 68 32.5 102t96.5 34t95.5 -30.5t37.5 -79.5q0 -21 -6.5 -40t-23.5 -38t-29.5 -31.5t-42.5 -32.5
t-43.5 -28.5t-50.5 -30.5h122q36 0 55 13t28 47h8l-17 -125h-271z" />
    <glyph glyph-name="three.sinf" horiz-adv-x="330" 
d="M161 -168q-57 0 -97.5 28.5t-37.5 83.5h72q-3 -12 -3 -23q0 -31 18.5 -52t47.5 -21q30 0 50 22t20 60q0 39 -21.5 63t-60.5 24q-13 0 -28 -3l-4 10l107 115h-61q-49 0 -74.5 -14t-35.5 -54h-8l14 144q39 -8 99 -8h153v-7l-159 -165q23 8 48 8q47 0 77 -29.5t30 -69.5
q0 -48 -41.5 -80t-104.5 -32z" />
    <glyph glyph-name="four.sinf" horiz-adv-x="325" 
d="M308 -31v-34h-63v-34q0 -27 10 -38.5t38 -14.5v-8h-181v8q32 3 46 15t14 38v34h-166v7l175 265h64v-238h63zM42 -31h130v196z" />
    <glyph glyph-name="five.sinf" horiz-adv-x="309" 
d="M36 16l39 191h196v-65h-193l-21 -100q45 21 93 21q57 0 96 -30.5t39 -85.5q0 -53 -38 -84t-100 -31q-58 0 -93 28.5t-34 83.5h73q-3 -16 -3 -30q0 -33 16 -49.5t43 -16.5q28 0 44 20.5t16 56.5q0 43 -28.5 68t-78.5 25q-31 0 -60 -8z" />
    <glyph glyph-name="six.sinf" horiz-adv-x="348" 
d="M178 -168q-71 0 -111.5 49.5t-40.5 136.5q0 98 48.5 148t119.5 50q46 0 83.5 -24t40.5 -79h-78q1 5 1 16q0 32 -15.5 52t-39.5 20q-40 0 -63 -50t-21 -128q22 55 94 55q54 0 87.5 -34.5t33.5 -86.5q0 -57 -39.5 -91t-99.5 -34zM105 -45q0 -48 19.5 -78t50.5 -30
q30 0 48.5 29t18.5 76q0 49 -18.5 75.5t-50.5 26.5t-50 -26t-18 -73z" />
    <glyph glyph-name="seven.sinf" horiz-adv-x="295" 
d="M292 200q-66 -82 -93.5 -157t-27.5 -164q0 -26 1 -39h-81q-3 65 16.5 121t48 93t78.5 85h-98q-49 0 -74.5 -14t-34.5 -54h-8l14 144q39 -8 99 -8h160v-7z" />
    <glyph glyph-name="eight.sinf" horiz-adv-x="339" 
d="M169 -168q-63 0 -103 24.5t-40 67.5q0 65 85 89q-74 34 -74 101q0 46 36.5 74t98.5 28q57 0 93 -25t36 -62q0 -54 -76 -79q41 -16 65 -41t24 -70q0 -47 -37.5 -77t-107.5 -30zM87 -66q0 -39 23.5 -63t59.5 -24q32 0 53 18.5t21 46.5q0 12 -3 21.5t-10.5 17.5t-14 14
t-20 12t-20.5 9.5t-24 9.5t-23 9q-42 -25 -42 -71zM107 143q0 -19 7 -32t25 -23.5t28 -15t38 -14.5q38 26 38 67q0 35 -20 55.5t-52 20.5q-29 0 -46.5 -16t-17.5 -42z" />
    <glyph glyph-name="nine.sinf" horiz-adv-x="348" 
d="M170 215q71 0 111.5 -49.5t40.5 -136.5q0 -98 -48.5 -148t-119.5 -50q-46 0 -83.5 24t-40.5 79h78q-1 -5 -1 -16q0 -32 15.5 -52t39.5 -20q40 0 63 50t21 128q-22 -55 -94 -55q-54 0 -87.5 34.5t-33.5 86.5q0 57 39.5 91t99.5 34zM106 95q0 -49 18.5 -75.5t50.5 -26.5
t50 26t18 73q0 48 -19.5 78t-50.5 30q-30 0 -48.5 -29t-18.5 -76z" />
    <glyph glyph-name="zero.dnom" horiz-adv-x="360" 
d="M180 -8q-68 0 -110.5 53.5t-42.5 138.5t42.5 138t110.5 53t110.5 -53t42.5 -138q0 -86 -42.5 -139t-110.5 -53zM103 184q0 -177 77 -177q76 0 76 177t-76 177q-37 0 -57 -45.5t-20 -131.5z" />
    <glyph glyph-name="one.dnom" horiz-adv-x="208" 
d="M20 8q37 3 48 11.5t11 26.5l1 260h-60v8q79 20 125 58h7v-326q0 -20 11 -28t37 -10v-8h-180v8z" />
    <glyph glyph-name="two.dnom" horiz-adv-x="339" 
d="M23 0v8l32 33q5 6 24 25.5t25 26t22 24t22 25t18.5 23.5t17.5 25t13 23t11.5 25t6 24t2.5 25q0 34 -15.5 54t-42.5 20q-25 0 -40 -19.5t-15 -51.5q0 -23 9 -50h-81q-6 68 32.5 102t96.5 34t95.5 -30.5t37.5 -79.5q0 -21 -6.5 -40t-23.5 -38t-29.5 -31.5t-42.5 -32.5
t-43.5 -28.5t-50.5 -30.5h122q36 0 55 13t28 47h8l-17 -125h-271z" />
    <glyph glyph-name="three.dnom" horiz-adv-x="330" 
d="M161 -8q-57 0 -97.5 28.5t-37.5 83.5h72q-3 -12 -3 -23q0 -31 18.5 -52t47.5 -21q30 0 50 22t20 60q0 39 -21.5 63t-60.5 24q-13 0 -28 -3l-4 10l107 115h-61q-49 0 -74.5 -14t-35.5 -54h-8l14 144q39 -8 99 -8h153v-7l-159 -165q23 8 48 8q47 0 77 -29.5t30 -69.5
q0 -48 -41.5 -80t-104.5 -32z" />
    <glyph glyph-name="four.dnom" horiz-adv-x="325" 
d="M308 129v-34h-63v-34q0 -27 10 -38.5t38 -14.5v-8h-181v8q32 3 46 15t14 38v34h-166v7l175 265h64v-238h63zM42 129h130v196z" />
    <glyph glyph-name="five.dnom" horiz-adv-x="309" 
d="M36 176l39 191h196v-65h-193l-21 -100q45 21 93 21q57 0 96 -30.5t39 -85.5q0 -53 -38 -84t-100 -31q-58 0 -93 28.5t-34 83.5h73q-3 -16 -3 -30q0 -33 16 -49.5t43 -16.5q28 0 44 20.5t16 56.5q0 43 -28.5 68t-78.5 25q-31 0 -60 -8z" />
    <glyph glyph-name="six.dnom" horiz-adv-x="348" 
d="M178 -8q-71 0 -111.5 49.5t-40.5 136.5q0 98 48.5 148t119.5 50q46 0 83.5 -24t40.5 -79h-78q1 5 1 16q0 32 -15.5 52t-39.5 20q-40 0 -63 -50t-21 -128q22 55 94 55q54 0 87.5 -34.5t33.5 -86.5q0 -57 -39.5 -91t-99.5 -34zM105 115q0 -48 19.5 -78t50.5 -30
q30 0 48.5 29t18.5 76q0 49 -18.5 75.5t-50.5 26.5t-50 -26t-18 -73z" />
    <glyph glyph-name="seven.dnom" horiz-adv-x="295" 
d="M292 360q-66 -82 -93.5 -157t-27.5 -164q0 -26 1 -39h-81q-3 65 16.5 121t48 93t78.5 85h-98q-49 0 -74.5 -14t-34.5 -54h-8l14 144q39 -8 99 -8h160v-7z" />
    <glyph glyph-name="eight.dnom" horiz-adv-x="339" 
d="M169 -8q-63 0 -103 24.5t-40 67.5q0 65 85 89q-74 34 -74 101q0 46 36.5 74t98.5 28q57 0 93 -25t36 -62q0 -54 -76 -79q41 -16 65 -41t24 -70q0 -47 -37.5 -77t-107.5 -30zM87 94q0 -39 23.5 -63t59.5 -24q32 0 53 18.5t21 46.5q0 12 -3 21.5t-10.5 17.5t-14 14t-20 12
t-20.5 9.5t-24 9.5t-23 9q-42 -25 -42 -71zM107 303q0 -19 7 -32t25 -23.5t28 -15t38 -14.5q38 26 38 67q0 35 -20 55.5t-52 20.5q-29 0 -46.5 -16t-17.5 -42z" />
    <glyph glyph-name="nine.dnom" horiz-adv-x="348" 
d="M170 375q71 0 111.5 -49.5t40.5 -136.5q0 -98 -48.5 -148t-119.5 -50q-46 0 -83.5 24t-40.5 79h78q-1 -5 -1 -16q0 -32 15.5 -52t39.5 -20q40 0 63 50t21 128q-22 -55 -94 -55q-54 0 -87.5 34.5t-33.5 86.5q0 57 39.5 91t99.5 34zM106 255q0 -49 18.5 -75.5t50.5 -26.5
t50 26t18 73q0 48 -19.5 78t-50.5 30q-30 0 -48.5 -29t-18.5 -76z" />
    <glyph glyph-name="zero.numr" horiz-adv-x="360" 
d="M180 249q-68 0 -110.5 53.5t-42.5 138.5t42.5 138t110.5 53t110.5 -53t42.5 -138q0 -86 -42.5 -139t-110.5 -53zM103 441q0 -177 77 -177q76 0 76 177t-76 177q-37 0 -57 -45.5t-20 -131.5z" />
    <glyph glyph-name="one.numr" horiz-adv-x="208" 
d="M20 265q37 3 48 11.5t11 26.5l1 260h-60v8q79 20 125 58h7v-326q0 -20 11 -28t37 -10v-8h-180v8z" />
    <glyph glyph-name="two.numr" horiz-adv-x="339" 
d="M23 257v8l32 33q5 6 24 25.5t25 26t22 24t22 25t18.5 23.5t17.5 25t13 23t11.5 25t6 24t2.5 25q0 34 -15.5 54t-42.5 20q-25 0 -40 -19.5t-15 -51.5q0 -23 9 -50h-81q-6 68 32.5 102t96.5 34t95.5 -30.5t37.5 -79.5q0 -21 -6.5 -40t-23.5 -38t-29.5 -31.5t-42.5 -32.5
t-43.5 -28.5t-50.5 -30.5h122q36 0 55 13t28 47h8l-17 -125h-271z" />
    <glyph glyph-name="three.numr" horiz-adv-x="330" 
d="M161 249q-57 0 -97.5 28.5t-37.5 83.5h72q-3 -12 -3 -23q0 -31 18.5 -52t47.5 -21q30 0 50 22t20 60q0 39 -21.5 63t-60.5 24q-13 0 -28 -3l-4 10l107 115h-61q-49 0 -74.5 -14t-35.5 -54h-8l14 144q39 -8 99 -8h153v-7l-159 -165q23 8 48 8q47 0 77 -29.5t30 -69.5
q0 -48 -41.5 -80t-104.5 -32z" />
    <glyph glyph-name="four.numr" horiz-adv-x="325" 
d="M308 386v-34h-63v-34q0 -27 10 -38.5t38 -14.5v-8h-181v8q32 3 46 15t14 38v34h-166v7l175 265h64v-238h63zM42 386h130v196z" />
    <glyph glyph-name="five.numr" horiz-adv-x="309" 
d="M36 433l39 191h196v-65h-193l-21 -100q45 21 93 21q57 0 96 -30.5t39 -85.5q0 -53 -38 -84t-100 -31q-58 0 -93 28.5t-34 83.5h73q-3 -17 -3 -30q0 -33 16 -49.5t43 -16.5q28 0 44 20.5t16 56.5q0 43 -28.5 68t-78.5 25q-31 0 -60 -8z" />
    <glyph glyph-name="six.numr" horiz-adv-x="348" 
d="M178 249q-71 0 -111.5 49.5t-40.5 136.5q0 98 48.5 148t119.5 50q46 0 83.5 -24t40.5 -79h-78q1 5 1 16q0 32 -15.5 52t-39.5 20q-40 0 -63 -50t-21 -128q22 55 94 55q54 0 87.5 -34.5t33.5 -86.5q0 -57 -39.5 -91t-99.5 -34zM105 372q0 -48 19.5 -78t50.5 -30
q30 0 48.5 29t18.5 76q0 49 -18.5 75.5t-50.5 26.5t-50 -26t-18 -73z" />
    <glyph glyph-name="seven.numr" horiz-adv-x="295" 
d="M292 617q-66 -82 -93.5 -157t-27.5 -164q0 -26 1 -39h-81q-3 65 16.5 121t48 93t78.5 85h-98q-49 0 -74.5 -14t-34.5 -54h-8l14 144q39 -8 99 -8h160v-7z" />
    <glyph glyph-name="eight.numr" horiz-adv-x="339" 
d="M169 249q-63 0 -103 24.5t-40 67.5q0 65 85 89q-74 34 -74 101q0 46 36.5 74t98.5 28q57 0 93 -25t36 -62q0 -54 -76 -79q41 -16 65 -41t24 -70q0 -47 -37.5 -77t-107.5 -30zM87 351q0 -39 23.5 -63t59.5 -24q32 0 53 18.5t21 46.5q0 12 -3 21.5t-10.5 17.5t-14 14
t-20 12t-20.5 9.5t-24 9.5t-23 9q-42 -25 -42 -71zM107 560q0 -19 7 -32t25 -23.5t28 -15t38 -14.5q38 26 38 67q0 35 -20 55.5t-52 20.5q-29 0 -46.5 -16t-17.5 -42z" />
    <glyph glyph-name="nine.numr" horiz-adv-x="348" 
d="M170 632q71 0 111.5 -49.5t40.5 -136.5q0 -98 -48.5 -148t-119.5 -50q-46 0 -83.5 24t-40.5 79h78q-1 -5 -1 -16q0 -32 15.5 -52t39.5 -20q40 0 63 50t21 128q-22 -55 -94 -55q-54 0 -87.5 34.5t-33.5 86.5q0 57 39.5 91t99.5 34zM106 512q0 -49 18.5 -75.5t50.5 -26.5
t50 26t18 73q0 48 -19.5 78t-50.5 30q-30 0 -48.5 -29t-18.5 -76z" />
    <glyph glyph-name="space.tf" horiz-adv-x="607" 
 />
    <glyph glyph-name="colon.case" horiz-adv-x="252" 
d="M126 424q-28 0 -46.5 18t-18.5 46q0 27 18.5 44.5t46.5 17.5t46.5 -17.5t18.5 -44.5q0 -28 -18.5 -46t-46.5 -18zM61 135q0 27 18.5 44.5t46.5 17.5t46.5 -17.5t18.5 -44.5q0 -28 -18.5 -46t-46.5 -18t-46.5 18t-18.5 46z" />
    <glyph glyph-name="bullet.case" horiz-adv-x="501" 
d="M252 142q-85 0 -143.5 58.5t-58.5 141.5t59 141.5t143 58.5q82 0 140 -58.5t58 -141.5t-58 -141.5t-140 -58.5z" />
    <glyph glyph-name="period.tf" horiz-adv-x="607" 
d="M334 -15q-28 0 -46.5 18t-18.5 46q0 27 18.5 44.5t46.5 17.5t46.5 -17.5t18.5 -44.5q0 -28 -18.5 -46t-46.5 -18z" />
    <glyph glyph-name="comma.tf" horiz-adv-x="607" 
d="M265 -119q33 16 58.5 45t26.5 64q-11 -5 -26 -5q-26 0 -44 17.5t-18 44.5q0 28 18.5 46.5t46.5 18.5q33 0 51.5 -23.5t18.5 -61.5q0 -62 -34 -101.5t-94 -53.5z" />
    <glyph glyph-name="hyphen.case" horiz-adv-x="338" 
d="M297 338v-30h-256v30h256z" />
    <glyph glyph-name="endash.case" horiz-adv-x="418" 
d="M377 336v-29h-336v29h336z" />
    <glyph glyph-name="emdash.case" horiz-adv-x="789" 
d="M748 336v-29h-707v29h707z" />
    <glyph glyph-name="parenleft.case" horiz-adv-x="311" 
d="M322 -99q-112 58 -182 176.5t-70 253.5q0 134 69.5 253t182.5 177l8 -14q-77 -64 -125.5 -179t-48.5 -237t48 -236.5t126 -179.5z" />
    <glyph glyph-name="parenright.case" horiz-adv-x="311" 
d="M-19 -85q78 65 126 179.5t48 236.5t-48.5 237t-125.5 179l8 14q113 -58 182.5 -177t69.5 -253q0 -135 -70 -253.5t-182 -176.5z" />
    <glyph glyph-name="braceleft.case" horiz-adv-x="313" 
d="M27 364q56 0 78 20t22 57q0 16 -3 34l-26 191q-3 19 -3 38q0 61 40.5 90t136.5 29v-17q-55 0 -76 -21.5t-21 -60.5q0 -11 2 -33l27 -193q4 -24 4 -48q0 -48 -26.5 -68t-93.5 -28q68 -8 94 -28t26 -66q0 -24 -4 -49l-27 -197q-2 -22 -2 -31q0 -38 21 -59t76 -22v-17
q-96 0 -136.5 29t-40.5 91q0 17 3 38l26 192q0 3 1.5 15t1.5 18q0 37 -22 57t-78 20v19z" />
    <glyph glyph-name="braceright.case" horiz-adv-x="313" 
d="M286 345q-56 0 -78 -20t-22 -57q0 -6 1.5 -18t1.5 -15l26 -192q3 -21 3 -38q0 -62 -40.5 -91t-136.5 -29v17q55 1 76 22t21 59q0 9 -2 31l-27 197q-4 25 -4 49q0 46 26 66t94 28q-67 8 -93.5 28t-26.5 68q0 24 4 48l27 193q2 22 2 33q0 39 -21 60.5t-76 21.5v17
q96 0 136.5 -29t40.5 -90q0 -18 -3 -38l-26 -191q-3 -18 -3 -34q0 -37 22 -57t78 -20v-19z" />
    <glyph glyph-name="bracketleft.case" horiz-adv-x="304" 
d="M100 -109v926h180v-19h-101v-888h101v-19h-180z" />
    <glyph glyph-name="bracketright.case" horiz-adv-x="304" 
d="M204 -109h-180v19h101v888h-101v19h180v-926z" />
    </font>
</defs>
</svg>
