<svg width="33" height="32" viewBox="0 0 33 32" fill="none" xmlns="http://www.w3.org/2000/svg">
<path d="M7.50883 10.2821H1.08478C0.799671 10.2821 0.568652 10.5138 0.568652 10.7994V31.4826C0.568652 31.7684 0.799671 31.9999 1.08478 31.9999H7.50883C7.79394 31.9999 8.02496 31.7684 8.02496 31.4826V10.7994C8.02496 10.5138 7.79394 10.2821 7.50883 10.2821Z" fill="#004D43"/>
<path d="M4.29913 0C1.96168 0 0.0600586 1.90375 0.0600586 4.24376C0.0600586 6.58481 1.96168 8.48928 4.29913 8.48928C6.63472 8.48928 8.53479 6.58471 8.53479 4.24376C8.5349 1.90375 6.63472 0 4.29913 0Z" fill="#004D43"/>
<path d="M23.8489 9.76807C21.2687 9.76807 19.3614 10.8797 18.2046 12.1427V10.7994C18.2046 10.5138 17.9736 10.2821 17.6884 10.2821H11.5363C11.2512 10.2821 11.0202 10.5138 11.0202 10.7994V31.4826C11.0202 31.7684 11.2512 31.9999 11.5363 31.9999H17.9463C18.2314 31.9999 18.4624 31.7684 18.4624 31.4826V21.2492C18.4624 17.8008 19.397 16.4574 21.7956 16.4574C24.4078 16.4574 24.6154 18.6111 24.6154 21.4266V31.4827C24.6154 31.7685 24.8464 32 25.1315 32H31.5439C31.829 32 32.0601 31.7685 32.0601 31.4827V20.1376C32.0601 15.01 31.0845 9.76807 23.8489 9.76807Z" fill="#004D43"/>
</svg>
