<svg width="38" height="30" viewBox="0 0 38 30" fill="none" xmlns="http://www.w3.org/2000/svg">
<path d="M19.1779 0.336182C20.157 0.341571 22.6065 0.365254 25.2091 0.469502L26.1319 0.509738C28.7523 0.633801 31.3705 0.845742 32.6691 1.20781C34.4011 1.6944 35.7626 3.11422 36.2227 4.91398C36.9554 7.77192 37.047 13.35 37.0584 14.6998L37.06 14.9796V14.9992C37.06 14.9992 37.06 15.006 37.06 15.019L37.0584 15.2987C37.047 16.6486 36.9554 22.2267 36.2227 25.0846C35.7562 26.8909 34.3947 28.3109 32.6691 28.7908C31.3705 29.1528 28.7523 29.3647 26.1319 29.4888L25.2091 29.5289C22.6065 29.6332 20.157 29.6569 19.1779 29.6624L18.7483 29.6639H18.7292C18.7292 29.6639 18.7228 29.6639 18.7101 29.6639L18.2808 29.6624C16.2087 29.651 7.54487 29.5574 4.78936 28.7908C3.05726 28.3041 1.69587 26.8843 1.23567 25.0846C0.503043 22.2267 0.411463 16.6486 0.400024 15.2987V14.6998C0.411463 13.35 0.503043 7.77192 1.23567 4.91398C1.70225 3.10755 3.06364 1.68775 4.78936 1.20781C7.54487 0.441089 16.2087 0.347583 18.2808 0.336182H19.1779ZM15.0631 8.58348V21.415L26.0615 14.9992L15.0631 8.58348Z" fill="#004D43"/>
</svg>
